<?xml version="1.0" encoding="utf-8"?>
<!-- Generator: Adobe Illustrator 19.2.0, SVG Export Plug-In . SVG Version: 6.00 Build 0)  -->
<svg version="1.1" id="Слой_1" xmlns="http://www.w3.org/2000/svg" xmlns:xlink="http://www.w3.org/1999/xlink" x="0px" y="0px"
	 viewBox="0 0 392.7 367.1" style="enable-background:new 0 0 392.7 367.1;" xml:space="preserve">
<g>
	<path style="fill-rule:evenodd;clip-rule:evenodd;fill:#3C6AA8;" d="M180.9,1.6C77.7,9.8-9.6,92.6,0.8,199.9
		c9.1,96,98.2,175.3,212.5,166.6c102.1-7.7,189-92.7,178.6-198.8C382.8,72.4,293.2-7.3,180.9,1.6L180.9,1.6z M66.4,52.2l64.6-9.6
		l-9.5-23C107.4,23.9,90.1,34.3,78.1,43C75.8,44.6,67.8,51.7,66.4,52.2L66.4,52.2z M125.6,17.4l9.5,22.8
		c11.3-4.3,48.3-32.9,53.3-34.6C167.7,4.2,143.4,11.9,125.6,17.4L125.6,17.4z M336.4,305.9c7.4-8.2,12.6-12.3,20-23
		c6.5-9.2,10.6-16.7,16.1-27.6l-24.7-10.4L336.4,305.9z M261.4,42.3l65,10.4c-16.5-12.2-29.9-25.7-55.5-33.2L261.4,42.3z
		 M257.9,40.4l9.7-22.8c-18-5.7-42.5-13.4-63.1-12l25.6,17.2C238.2,28,249.4,36.9,257.9,40.4L257.9,40.4z M125.8,349.8
		c11.7,7.8,46.2,12.7,62.4,13c-6.3-5.4-45.1-32-52.7-35.1L125.8,349.8z M261.8,325.6l9.5,22.8c15.6-3.6,45.8-21.9,53.6-32.7
		L261.8,325.6z M20,255c5.9,11.5,9.8,18.8,16.3,28c7.4,10.6,12.6,14.8,19.9,23l-10.8-60.7L20,255z M204.6,363
		c16.2-0.5,50.9-5.4,62.2-13l-9.3-22.3C249.2,331,211.3,357.1,204.6,363L204.6,363z M350,241.4l23.6,9c10-11.7,14.3-41.6,14.7-59
		c-0.4,0.4-1.1,0.4-1.3,1L350,241.4z M122,348.5l9.3-23l-63.5-10.1C75.6,326.5,105.9,344.5,122,348.5L122,348.5z M349.8,126.6
		l26.9,36.5c3.7,5.2,5.6,9.2,11.5,13.4c-0.6-21.4-5.6-40.3-13.2-58.8L349.8,126.6z M347.4,122.6l25.1-8.9
		c-8.2-23.7-23-34.3-32.1-50.3C334.4,71.2,345.9,114.3,347.4,122.6L347.4,122.6z M20.1,114.1l25.2,8.9l10.8-59.5
		c-5.6,1.6-17.6,18.1-20.6,22.1C29.8,93.9,23.9,103.5,20.1,114.1L20.1,114.1z M4.6,176.5c6.9-4.9,36.9-46.4,38.6-50.1l-23.9-9
		C10.1,126.6,4.9,161.8,4.6,176.5L4.6,176.5z M19,250.3l23.9-8.9c-1.7-4-31.2-44-38.4-50.1C4.9,208.9,9.4,238.8,19,250.3L19,250.3z
		 M203.3,67.5l75.5,30.4l-21.3-50.8L203.3,67.5z M50,240.2l53.6,21.6c-2.8-11.1-10-25.2-14.7-35.7c-5.2-11.7-11.1-24.3-16-35.8
		L50,240.2z M319.5,177.6c2.2-2.6,0.7-0.5,3.3-4.7l19.7-46.6l-53.8-20.2L319.5,177.6z M288.9,261.2l54-20.3l-22.5-50.8
		c-5.4,11.1-11,23.5-16.1,34.8C299.5,235.7,292.1,250.3,288.9,261.2L288.9,261.2z M203,299.5c7.8,5.9,41.9,17.9,54,21.6l22.5-50.1
		L203,299.5z M50.4,126.6c1.1,4.7,17.4,44.7,23,51l31-70.9L50.4,126.6z M113.3,97.6l75.9-29c-6.3-5-44.4-18.8-54.6-21.6L113.3,97.6z
		 M135.6,321.2c12.1-3.8,46.4-15.8,54.4-22.1l-75.9-28.9L135.6,321.2z M345.9,237.2l40.8-53.2c-5.9-8.2-12.2-17.2-18.9-25.6
		c-7.4-9-13.4-18.4-20.8-27.7c-2.8,3.5-23,48.3-23.2,52.2C323.4,189.6,342,228,345.9,237.2L345.9,237.2z M6.2,184l40.6,53.2
		c3.9-9.4,22.6-47.5,22.1-54.3c-0.2-4-20.4-48.9-23.2-52.2C32.2,148.4,18.5,166.8,6.2,184L6.2,184z M61.9,57.6l-12.1,64.3
		c5.2-1,53.1-19.1,55.9-21.2c4.8-3.6,22.8-48.3,24.5-53.7L61.9,57.6z M262.7,321.1l68.7-10.6l11.5-64.3c-7.2,1.6-53.6,19-56.6,21.9
		C283.1,271,264.8,314.3,262.7,321.1L262.7,321.1z M342.9,122.1l-11.7-64.3l-68.5-11.1c3.7,13,12.1,28.5,17.4,41.7
		c2.2,5.6,3.3,9.6,6.9,12.3C290,102.8,337.7,120.9,342.9,122.1L342.9,122.1z M61.5,310.3l68.9,11c-3.3-8-19.1-47.6-23-52.2
		c-4.1-5-47.1-20.7-57.2-23L61.5,310.3z M139.9,43.7c6.9,3,50.3,20.9,55.7,21c6.7,0.3,49.4-17.7,57.5-21C248.8,39.3,200.6,7.2,197,7
		C192,6.7,142.5,40.7,139.9,43.7L139.9,43.7z M139.5,325.2c9.3,5,18.9,12.5,28.4,18.6c8,5,21.7,15.6,29.1,18.4l56.2-37
		c-4.3-3.3-50.3-21.6-56-21.9C190.9,303.1,144.7,321.4,139.5,325.2L139.5,325.2z M193.9,71.9c-13,3.7-79.6,28.2-84.3,34.4
		c-4.6,6.4-13.7,30.4-17.8,39.6c-21.7,48-19.5,32.7,2.2,81.2c3.9,9,12.8,34.3,19.3,38.3c3,1.9,78.7,32.9,86.9,31
		c4.5-1,79.1-28.7,83.3-34.8c1.9-2.6,34.9-73.2,32.9-81.2c-1.3-4.3-31.2-73.9-37.1-77.9c-5.2-3.1-34.3-13.6-42.5-16.5
		C227.5,82.5,200.9,69.8,193.9,71.9L193.9,71.9z"/>
	<path style="fill:#2A312A;" d="M161.4,154.8v-0.2l1.5-0.4c1.3,2.1,2.6,3.7,3.7,4.4c1.3,0.7,2.6,1,4.3,1c1.9,0,3.3-0.5,4.5-1.7
		c1.1-1.2,1.7-2.8,1.7-4.9c0-1.9-0.6-3.7-1.7-4.7c-1.3-1.2-2.8-1.7-4.8-1.7c-0.9,0-1.9,0-2.8,0.3c-0.7,0.3-1.7,0.7-2.8,1.6L164,148
		c0.2-3.8,0.4-6.8,0.4-9.2c0-3-0.2-5.6-0.4-7.8l0.4-0.3c3.5,0.2,6.7,0.3,9.7,0.3c2.8,0,5.4-0.2,7.6-0.3l0.2,0.5
		c0,0.9-0.2,1.7-0.2,2.4c0,0.5,0,1.2,0.2,2.3l-0.4,0.3c-3-0.2-5.8-0.2-8.7-0.2c-1.9,0-3.7,0-5.7,0l-0.2,7.5c1.1-0.7,2.2-1,3.2-1.4
		c0.9-0.2,1.9-0.4,3.2-0.4c3.2,0,5.6,0.9,7.2,2.3c1.7,1.6,2.6,3.7,2.6,6.4c0,3.1-1.3,5.9-4.1,8.4c-2.8,2.3-6.1,3.5-10,3.5
		c-1.1,0-2,0-3.2-0.2c-0.9-0.2-1.9-0.5-2.8-0.9C162.7,159.3,162.1,157.1,161.4,154.8L161.4,154.8z M191.8,146.5
		c-1.9-0.9-3-1.9-3.9-3.1c-0.7-1.2-1.1-2.4-1.1-4.2c0-2.4,0.9-4.7,3-6.3c1.9-1.7,4.5-2.6,7.8-2.6c2.8,0,4.8,0.7,6.3,1.9
		c1.5,1.2,2.2,3,2.2,5c0,1.4-0.4,2.4-1.1,3.5c-0.6,1-1.9,2.1-3.7,3.1c2,0.7,3.5,1.6,4.5,2.6c1.1,1.4,1.7,3.1,1.7,5.4
		c0,3-1.1,5.4-3.2,7.5c-2.2,2.1-5,3-8.5,3c-2.8,0-5.2-0.7-7.1-2.3c-1.9-1.6-2.6-3.7-2.6-6.1c0-1.7,0.4-3.1,1.1-4.3
		C188.1,148.4,189.6,147.3,191.8,146.5L191.8,146.5z M198.9,143c1.1-0.7,1.9-1.6,2.4-2.4c0.4-0.9,0.6-1.7,0.6-2.8
		c0-1.6-0.4-2.8-1.3-3.7c-0.9-0.9-2.2-1.4-3.9-1.4c-1.5,0-2.6,0.4-3.5,1.2c-0.9,0.9-1.3,1.7-1.3,3.1c0,1,0.4,2.1,1.3,3
		C194.1,140.9,195.9,141.9,198.9,143L198.9,143z M193.9,147.3c-1.1,0.9-2,1.9-2.6,3c-0.6,1-0.7,2.1-0.7,3.3c0,1.9,0.6,3.3,1.9,4.5
		c1.1,1.2,2.6,1.7,4.3,1.7c1.5,0,2.8-0.5,3.9-1.4c0.9-1,1.5-2.4,1.5-4c0-0.9-0.2-1.7-0.6-2.6c-0.6-0.7-1.1-1.4-2-1.9
		C198.7,149.4,196.8,148.6,193.9,147.3L193.9,147.3z M209.8,154.8v-0.2l1.7-0.4c1.3,2.1,2.4,3.7,3.7,4.4c1.1,0.7,2.6,1,4.1,1
		c1.9,0,3.3-0.5,4.5-1.7c1.1-1.2,1.7-2.8,1.7-4.9c0-1.9-0.6-3.7-1.7-4.7c-1.1-1.2-2.8-1.7-4.8-1.7c-0.9,0-1.9,0-2.6,0.3
		c-0.9,0.3-1.9,0.7-3,1.6l-0.9-0.5c0.2-3.8,0.4-6.8,0.4-9.2c0-3,0-5.6-0.4-7.8l0.4-0.3c3.5,0.2,6.7,0.3,9.7,0.3s5.4-0.2,7.6-0.3
		l0.4,0.5c-0.2,0.9-0.4,1.7-0.4,2.4c0,0.5,0,1.2,0.2,2.3l-0.4,0.3c-3-0.2-5.8-0.2-8.7-0.2c-1.9,0-3.7,0-5.6,0l-0.4,7.5
		c1.1-0.7,2.2-1,3.2-1.4c0.9-0.2,1.9-0.4,3.2-0.4c3.2,0,5.6,0.9,7.2,2.3c1.7,1.6,2.6,3.7,2.6,6.4c0,3.1-1.3,5.9-4.1,8.4
		c-2.6,2.3-5.9,3.5-10,3.5c-1.1,0-2,0-3-0.2c-1.1-0.2-2-0.5-2.8-0.9C211.1,159.3,210.6,157.1,209.8,154.8L209.8,154.8z"/>
	<path style="fill:#2A312A;" d="M98.8,188.4v-1.2c1.7,0.2,3.3,0.2,4.8,0.2c1.3,0,2.8,0,4.3-0.2v1c-0.6,0-0.9,0.2-1.3,0.3
		c-0.2,1-0.2,1.7-0.2,2.4c0,0.5,0,1.4,0.2,3c-2,0.5-3.7,1-5,1.2c-1.3,0.4-2.6,0.4-4.1,0.4c-3.9,0-6.9-0.9-9.1-2.8
		c-2.2-1.9-3.3-4.3-3.3-7.3c0-3,1.1-5.6,3.3-7.3c2.2-1.9,5.6-2.8,9.7-2.8c1.5,0,3,0.2,4.3,0.3c1.3,0.2,2.6,0.5,3.9,0.9v0.3
		c-0.2,1.2-0.4,2.6-0.6,4.4h-1.3c0-0.9,0-1.6-0.2-2.3c-0.7-0.7-1.5-1.2-2.4-1.6c-1.1-0.3-2.2-0.5-3.7-0.5c-2.4,0-4.5,0.7-6.1,2.1
		c-1.5,1.6-2.2,3.5-2.2,6.1c0,2.6,0.7,4.9,2.4,6.4c1.7,1.7,3.5,2.6,5.9,2.6c1.3,0,2.6-0.3,4.1-0.9c0-0.7,0-1.4,0-2.1
		c0-1.4,0-2.3-0.2-2.4C101.8,188.5,100.7,188.5,98.8,188.4L98.8,188.4z M111.5,195.3v-0.7c0.6-0.4,0.9-0.5,1.5-0.9
		c0.2-2.6,0.2-5.2,0.2-8c0-2.3,0-4.2,0-6.1c0-1.4-0.2-2.3-0.2-2.4c-0.2-0.2-0.2-0.2-0.4-0.3c-0.2,0-0.9,0-2.2-0.2v-1.2
		c1.9,0.2,3.7,0.2,5.4,0.2c1.7,0,3.2,0,4.5-0.2v1.2c-1.3,0.2-2,0.2-2.2,0.3c-0.2,0-0.2,0.2-0.4,0.5c0,0.2,0,1.7,0,4.5l-0.2,6.9
		c0,1.2,0,2.8,0.2,4.4c1.3,0.2,2.2,0.2,2.8,0.2c1.9,0,3.5-0.2,4.8-0.5c0.2-0.7,0.6-1.7,0.7-3h1.3c-0.2,1.4-0.4,3.1-0.6,5
		c-0.9,0.2-1.9,0.2-2.6,0.2l-5.4-0.2h-2.4C115.2,195.2,113.5,195.2,111.5,195.3L111.5,195.3z M140.8,195.5c-3.7,0-6.7-0.9-8.5-2.6
		c-2-1.7-3-4.2-3-7.3c0-2.3,0.6-4,1.5-5.6c0.9-1.6,2.2-2.6,3.9-3.5c1.7-0.9,3.9-1.2,6.5-1.2c2.6,0,4.6,0.3,6.3,1.2
		c1.5,0.7,2.8,1.7,3.7,3.1c0.9,1.4,1.3,3.1,1.3,5.2c0,2.1-0.6,4-1.5,5.7c-0.9,1.6-2.2,2.8-4.1,3.6
		C145.2,195.2,143.2,195.5,140.8,195.5L140.8,195.5z M141.3,194.1c2,0,3.5-0.7,4.8-2.1c1.1-1.4,1.7-3.5,1.7-6.4c0-3-0.6-5.2-2-6.8
		c-1.1-1.4-2.8-1.9-5.2-1.9c-2,0-3.7,0.7-5,1.9c-1.1,1.4-1.7,3.5-1.7,6.3c0,1.9,0.4,3.6,0.9,5c0.7,1.4,1.5,2.4,2.4,3
		C138.4,193.8,139.7,194.1,141.3,194.1L141.3,194.1z M156,195.3v-0.7c0.6-0.4,0.9-0.7,1.3-0.9c0.2-1.4,0.2-4.2,0.2-8.5
		c0-3.3,0-5.6-0.2-7c0-0.7-0.2-1.1-0.4-1.2c-0.2-0.2-0.9-0.3-2.2-0.3v-1.2l3,0.2h2.2c0.6,0,1.5,0,3,0c1.1,0,2-0.2,2.6-0.2
		c2.2,0,3.9,0.4,4.8,1c0.9,0.7,1.5,1.7,1.5,3c0,1.2-0.6,2.3-1.5,3c-0.9,0.9-2.2,1.4-4.1,1.7l0,0c1.9,0.2,3.2,0.5,3.7,0.9
		c0.7,0.3,1.3,0.9,1.9,1.6c0.4,0.7,0.6,1.6,0.6,2.4c0,1.1-0.4,2.1-0.9,3.1c-0.7,1-1.9,1.7-3,2.3c-1.1,0.5-2.8,0.9-5,0.9
		c-0.4,0-1.1,0-1.9,0c-0.9-0.2-1.5-0.2-2-0.2C159,195.2,157.9,195.2,156,195.3L156,195.3z M161.8,183.7h0.7c1.7,0,3-0.3,3.5-0.9
		c0.7-0.5,1.1-1.4,1.1-2.6c0-1.2-0.4-1.9-0.9-2.4c-0.6-0.5-1.5-0.7-2.6-0.7c-0.6,0-1.1,0-1.9,0c0,3,0,4.7,0,5.4V183.7z M161.8,193.8
		c0.6,0,1.1,0.2,1.7,0.2c1.5,0,2.4-0.3,3.3-1.2c0.7-0.7,1.1-1.9,1.1-3.3c0-1-0.2-1.7-0.6-2.4c-0.4-0.5-0.9-1-1.5-1.4
		c-0.5-0.2-1.5-0.3-2.6-0.3h-1.5v0.3v3.7v3.6V193.8z M175.1,193.9c0.9,0,1.5,0,1.7-0.2c0.2-0.2,0.4-0.5,0.7-1c0.7-1.2,1.5-3,2.4-5
		l5.2-12.2h2.2l6.9,15c0.7,1.9,1.3,3,1.5,3.1c0.4,0.2,0.9,0.3,2,0.3v1.4c-1.7-0.2-3.2-0.2-4.6-0.2c-1.9,0-3.3,0-5,0.2v-1.4
		c1.3,0,1.9,0,2-0.2c0.2,0,0.4-0.2,0.4-0.3s-0.2-0.7-0.7-1.7l-0.9-2.4c-1.3,0-2.6,0-4.1,0c-1.3,0-2.6,0-3.7,0l-0.6,1.6
		c-0.2,0.5-0.4,1-0.7,1.9c0,0.2,0,0.4,0,0.5c0,0.3,0,0.3,0.2,0.5c0.2,0,0.9,0.2,2.2,0.2v1.4c-1.1-0.2-2.2-0.2-3.7-0.2
		c-1.5,0-2.6,0-3.3,0.2V193.9z M185,180.4l-3.2,7.3c0.9,0,1.9,0,3,0c1.3,0,2.2,0,3.3,0L185,180.4z M200.2,195.3v-0.7
		c0.4-0.4,0.9-0.5,1.5-0.9c0.2-2.6,0.2-5.2,0.2-8c0-2.3,0-4.2,0-6.1c-0.2-1.4-0.2-2.3-0.4-2.4c0-0.2,0-0.2-0.2-0.3
		c-0.2,0-0.9,0-2.2-0.2v-1.2c1.9,0.2,3.7,0.2,5.4,0.2c1.5,0,3.2,0,4.5-0.2v1.2c-1.3,0.2-2,0.2-2.2,0.3c-0.2,0-0.4,0.2-0.4,0.5
		c0,0.2,0,1.7-0.2,4.5v6.9c0,1.2,0,2.8,0,4.4c1.3,0.2,2.4,0.2,3,0.2c1.9,0,3.5-0.2,4.8-0.5c0.2-0.7,0.6-1.7,0.7-3h1.3
		c-0.2,1.4-0.4,3.1-0.6,5c-0.9,0.2-1.9,0.2-2.6,0.2l-5.6-0.2h-2.4C203.7,195.2,202.2,195.2,200.2,195.3L200.2,195.3z M226.7,195.3
		v-0.7c0.6-0.4,1.1-0.7,1.3-0.9c0.2-1.4,0.2-4.2,0.2-8.5c0-3.3,0-5.6,0-7c-0.2-0.7-0.2-1.1-0.4-1.2c-0.2-0.2-0.9-0.3-2.2-0.3v-1.2
		l2.8,0.2h2.2c0.7,0,1.7,0,3,0c1.3,0,2.2-0.2,2.8-0.2c2.2,0,3.7,0.4,4.6,1c0.9,0.7,1.5,1.7,1.5,3c0,1.2-0.6,2.3-1.5,3
		c-0.9,0.9-2.2,1.4-3.9,1.7l0,0c1.7,0.2,3,0.5,3.7,0.9c0.8,0.3,1.3,0.9,1.7,1.6c0.6,0.7,0.7,1.6,0.7,2.4c0,1.1-0.4,2.1-1.1,3.1
		c-0.8,1-1.7,1.7-3,2.3c-1.1,0.5-2.8,0.9-5,0.9c-0.4,0-0.9,0-1.9,0c-0.7-0.2-1.5-0.2-2-0.2C229.7,195.2,228.6,195.2,226.7,195.3
		L226.7,195.3z M232.5,183.7h0.9c1.7,0,2.8-0.3,3.5-0.9c0.6-0.5,0.9-1.4,0.9-2.6c0-1.2-0.2-1.9-0.7-2.4c-0.6-0.5-1.5-0.7-2.8-0.7
		c-0.6,0-1.1,0-1.7,0c-0.2,3-0.2,4.7-0.2,5.4V183.7z M232.7,193.8c0.6,0,1.1,0.2,1.5,0.2c1.5,0,2.6-0.3,3.3-1.2
		c0.7-0.7,1.1-1.9,1.1-3.3c0-1-0.2-1.7-0.6-2.4c-0.4-0.5-0.7-1-1.3-1.4c-0.7-0.2-1.5-0.3-2.6-0.3h-1.5v0.3l-0.2,3.7l0.2,3.6V193.8z
		 M245.8,193.9c1.1,0,1.7,0,1.8-0.2c0.2-0.2,0.4-0.5,0.8-1c0.6-1.2,1.3-3,2.2-5l5.4-12.2h2.2l6.7,15c0.9,1.9,1.5,3,1.7,3.1
		c0.2,0.2,0.7,0.3,1.9,0.3v1.4c-1.7-0.2-3.2-0.2-4.6-0.2c-1.7,0-3.3,0-4.8,0.2v-1.4c1.1,0,1.9,0,2-0.2c0.2,0,0.2-0.2,0.2-0.3
		s-0.2-0.7-0.6-1.7l-1.1-2.4c-1.1,0-2.6,0-4.1,0c-1.3,0-2.4,0-3.5,0l-0.7,1.6c-0.2,0.5-0.4,1-0.6,1.9c-0.2,0.2-0.2,0.4-0.2,0.5
		c0,0.3,0.2,0.3,0.4,0.5c0.2,0,0.7,0.2,2,0.2v1.4c-0.9-0.2-2.2-0.2-3.7-0.2c-1.3,0-2.4,0-3.3,0.2V193.9z M255.7,180.4l-3.2,7.3
		c0.9,0,2,0,3.2,0c1.1,0,2.2,0,3.3,0L255.7,180.4z M270.9,195.3v-0.7c0.6-0.4,1.1-0.5,1.5-0.9c0.2-2.6,0.2-5.2,0.2-8
		c0-2.3,0-4.2,0-6.1c0-1.4-0.2-2.3-0.2-2.4c0-0.2-0.2-0.2-0.4-0.3c-0.2,0-0.9,0-2.2-0.2v-1.2c2,0.2,3.7,0.2,5.4,0.2
		c1.7,0,3.2,0,4.6-0.2v1.2c-1.5,0.2-2.2,0.2-2.4,0.3c-0.2,0-0.2,0.2-0.2,0.5c-0.2,0.2-0.2,1.7-0.2,4.5l-0.2,6.9
		c0,1.2,0.2,2.8,0.2,4.4c1.3,0.2,2.2,0.2,2.8,0.2c2,0,3.5-0.2,4.8-0.5c0.4-0.7,0.6-1.7,0.7-3h1.3c-0.2,1.4-0.4,3.1-0.6,5
		c-0.9,0.2-1.9,0.2-2.6,0.2l-5.4-0.2h-2.4C274.6,195.2,272.9,195.2,270.9,195.3L270.9,195.3z M292.8,195.3v-1.2c0.6,0,1.1,0,1.7-0.2
		c0.4,0,0.6,0,0.7-0.2c0-0.2,0.2-0.3,0.2-0.5c0-0.5,0.2-1.9,0.2-4.5c0-1.7,0-3.6,0-5.6c0-3.7,0-5.6,0-5.7c0,0-0.4,0-1.1,0
		c-1.3,0-2.6,0-3.5,0.2c-0.6,0-0.9,0-0.9,0c-0.2,0.2-0.2,0.2-0.2,0.3c0,0-0.2,0.9-0.4,2.4h-1.3c0.2-1.7,0-3.3,0-4.7v-0.2
		c3.2,0.2,6.3,0.4,9.3,0.4c3,0,6.3-0.2,10-0.4l0.2,0.4c-0.2,1.2-0.4,2.8-0.6,4.5H306c-0.2-1.6-0.2-2.4-0.4-2.6c0,0-0.2-0.2-0.4-0.2
		c-0.9-0.2-2.4-0.2-4.8-0.2c-0.2,0-0.4,0-0.4,0c0,0.2,0,0.3,0,0.9l-0.2,9.4c0,2.8,0,4.4,0.2,5c0,0.7,0.2,1,0.4,1
		c0,0.2,0.9,0.3,2.2,0.3v1.2c-1.5-0.2-3-0.2-4.6-0.2C296,195.2,294.1,195.2,292.8,195.3L292.8,195.3z"/>
	<path style="fill:none;stroke:#2A312A;stroke-width:0.5669;stroke-miterlimit:10;" d="M237.7,129.1c1.7,0,3.2,1.4,3.2,3
		c0,1.6-1.5,3-3.2,3c-1.7,0-3.2-1.4-3.2-3C234.5,130.5,236,129.1,237.7,129.1L237.7,129.1z"/>
	<path style="fill:#2A312A;" d="M136.9,216c-0.4,0-0.7,0.2-0.9,0.3c-0.2,0-0.2,0.3-0.2,0.9v6.3c0,2.1-0.6,3.5-1.7,4.3
		c-0.6,0.5-1.1,0.7-1.7,0.7c-0.4,0-0.7-0.2-0.9-0.2c-0.4-0.2-0.7-0.3-0.7-0.7c0-0.2,0.2-0.2,0.2-0.3c0.2-0.2,0.4-0.2,0.6-0.2
		c0.2,0,0.4,0,0.7,0.3c0.4,0.2,0.6,0.4,0.7,0.4c0.9,0,1.3-0.7,1.3-2.3v-7.8c0-0.9,0-1.4-0.4-1.6c-0.2,0-0.4-0.2-0.9-0.2l0,0v-0.2
		h3.9V216z M146.2,222.8l-0.4,2.3h-8.4v-0.4h0.4c0.9,0,1.3-0.2,1.5-0.5c0-0.2,0-0.3,0-0.7v-6.3c0-0.5,0-0.9-0.4-1
		c-0.2,0-0.6-0.2-0.7-0.2h-0.4v-0.2h7.6v2.1h-0.2c-0.2-1-0.6-1.6-1.1-1.6h-3.5v3.7h3c0.4,0,0.6-0.2,0.7-0.4c0-0.2,0.2-0.5,0.2-0.9
		h0.2v3h-0.2c-0.2-0.5-0.2-0.7-0.4-0.9c0-0.3-0.4-0.3-0.7-0.3h-2.8v3.1c0,0.3,0.2,0.5,0.2,0.7c0.2,0,0.4,0.2,0.7,0.2h2.4
		c0.7,0,1.1-0.2,1.5-0.7c0.2-0.2,0.2-0.5,0.4-1H146.2z M162.7,216c-0.7,0-1.1,0.2-1.3,0.5c-0.2,0.2-0.4,0.5-0.4,0.9l-3.3,7.8h-0.7
		l-2-4.5l-2,4.5h-0.7l-3.3-7.8c-0.2-0.5-0.4-0.9-0.6-1c-0.4-0.2-0.7-0.3-1.3-0.3l0,0v-0.2h4.1v0.2h-0.4c-0.5,0-0.7,0.2-0.7,0.5
		c0,0.2,0,0.4,0,0.5l3,6.8l1.7-4l-1.3-3c-0.2-0.4-0.4-0.5-0.6-0.7c-0.2,0-0.6-0.2-1.1-0.2v-0.2h6.5v0.2c-0.4,0-0.7,0.2-0.9,0.2
		c-0.2,0.2-0.4,0.3-0.5,0.7l-1.1,2.3l2.2,4.7l2.8-7c0-0.2,0-0.4,0-0.5c0-0.2-0.4-0.3-1.1-0.3v-0.2h3.3V216z M155.8,216.7
		c0.2-0.2,0.2-0.2,0.2-0.3c0-0.2-0.2-0.3-0.6-0.3h-0.6c-0.4,0-0.6,0.2-0.6,0.3v0.2l0.7,1.7L155.8,216.7z M171.4,222.8l-0.2,2.3h-8.5
		v-0.4h0.6c0.7,0,1.1-0.2,1.3-0.5c0.2-0.2,0.2-0.3,0.2-0.7v-6.3c0-0.5-0.2-0.9-0.6-1c-0.2,0-0.4-0.2-0.7-0.2h-0.4v-0.2h7.6l0.2,2.1
		h-0.4c-0.2-1-0.6-1.6-1.1-1.6H166v3.7h2.8c0.4,0,0.6-0.2,0.7-0.4c0.2-0.2,0.2-0.5,0.2-0.9h0.4v3h-0.4c0-0.5,0-0.7-0.2-0.9
		c-0.2-0.3-0.4-0.3-0.9-0.3H166v3.1c0,0.3,0,0.5,0.2,0.7c0.2,0,0.4,0.2,0.7,0.2h2.4c0.6,0,1.1-0.2,1.3-0.7c0.2-0.2,0.4-0.5,0.6-1
		H171.4z M180.9,222.8l-1.3,2.3h-7v-0.4h0.6c0.4,0,0.6,0,0.7-0.2c0.2-0.2,0.2-0.3,0.2-0.7v-6.6c0-0.5-0.2-0.7-0.4-0.9
		c-0.2-0.2-0.4-0.3-0.9-0.3h-0.2v-0.2h4.6v0.2h-0.6c-0.7,0-1.1,0.2-1.1,0.3c-0.2,0.2-0.2,0.3-0.2,0.7v7c0,0.3,0.2,0.5,0.6,0.5h2.4
		c0.6,0,0.9-0.2,1.3-0.7c0.2-0.2,0.6-0.5,0.9-1H180.9z M193.5,225.2c-0.2,0-0.4,0-0.6,0c-0.9,0-1.7-0.2-2.2-0.4
		c-0.6-0.2-1.3-0.7-2-1.4l-1.1-1c-0.6-0.7-1.1-1-1.7-1.4c-0.4,0-0.7,0.2-0.9,0.2c-0.2,0-0.6-0.2-0.9-0.2v2.6c0,0.5,0.2,0.9,0.6,1
		c0.2,0,0.4,0,0.7,0h0.4v0.4h-4.5v-0.4h0.2c0.6,0,0.9,0,1.1-0.2c0.2-0.2,0.2-0.5,0.2-1v-6.3c0-0.3,0-0.7-0.2-0.9
		c-0.2-0.2-0.6-0.3-0.9-0.3h-0.4v-0.2c0.2,0,0.7,0,1.3-0.2c0.2,0,0.4,0,0.7,0c0.6,0,1.3,0,1.9,0c1.5,0,2.6,0.2,3.3,0.7
		c0.7,0.5,0.9,1.2,0.9,1.9c0,0.7-0.2,1-0.6,1.6c-0.4,0.3-0.9,0.7-1.5,0.9c0.6,0.3,1.1,0.9,1.9,1.6l1.3,1.2c0.6,0.5,1.3,1,1.9,1.2
		c0.4,0.2,0.7,0.2,1.1,0.2V225.2z M187.9,218.5c0-1-0.4-1.9-1.1-2.3c-0.5-0.2-1.1-0.2-1.9-0.2c-0.4,0-0.7,0-0.9,0v4.9
		c0.2,0,0.6,0,1.1,0C187,220.9,187.9,220,187.9,218.5L187.9,218.5z M204.6,216c-0.6,0-0.9,0.2-1.3,0.3c-0.2,0.2-0.6,0.5-0.7,0.9
		l-2.6,4.2v2.3c0,0.3,0,0.7,0.2,0.9c0.4,0.2,0.6,0.2,1.1,0.2h0.2v0.4H197v-0.4h0.4c0.4,0,0.7,0,0.9-0.2c0.2-0.2,0.4-0.5,0.4-0.9
		v-2.1l-3-4.2c-0.2-0.3-0.4-0.5-0.6-0.7c-0.2-0.3-0.4-0.5-0.7-0.5c-0.2,0-0.4-0.2-0.7-0.2v-0.2h4.3v0.2c-0.9,0-1.3,0.2-1.1,0.5
		c0,0,0,0.2,0.2,0.5l2.6,3.6l2.2-3.6c0.2-0.2,0.2-0.4,0.2-0.5c0-0.3-0.4-0.5-1.1-0.5v-0.2h3.7V216z M216,222.8
		c0,0.7-0.4,1.4-1.1,1.7c-0.6,0.5-1.3,0.7-2.2,0.7c-0.4,0-0.9,0-1.7-0.2c-0.4-0.2-0.6-0.2-0.6-0.2c-0.2,0-0.2,0-0.4,0.2h-0.2
		l-0.4-2.3h0.4c0.2,0.5,0.4,1,0.9,1.6c0.6,0.3,1.1,0.5,1.7,0.5c0.7,0,1.1-0.2,1.5-0.5c0.6-0.2,0.7-0.7,0.7-1.2c0-0.5-0.4-1-0.9-1.6
		c-0.2-0.2-0.8-0.5-1.5-1c-0.9-0.3-1.5-0.9-1.9-1c-0.6-0.5-0.7-1.2-0.7-1.7c0-0.9,0.4-1.6,1.3-1.9c0.4-0.2,0.9-0.3,1.5-0.3
		c0.6,0,1.1,0.2,1.7,0.3c0.2,0,0.4,0.2,0.4,0.2c0.2,0,0.4-0.2,0.4-0.2h0.2l0.4,1.9H215c-0.2-0.5-0.6-1-0.9-1.4
		c-0.4-0.3-0.9-0.5-1.5-0.5c-0.6,0-0.9,0.2-1.3,0.3c-0.4,0.3-0.6,0.7-0.6,1c0,0.5,0.4,1,0.9,1.6c0.2,0.2,0.7,0.3,1.5,0.9
		c0.9,0.5,1.5,0.9,1.9,1.2C215.6,221.6,216,222.1,216,222.8L216,222.8z M226.9,217.9h-0.4c-0.2-0.9-0.4-1.2-0.6-1.4
		c-0.2-0.2-0.4-0.2-0.6-0.2h-2.8v7.3c0,0.3,0,0.7,0.4,0.9c0.2,0.2,0.4,0.2,0.9,0.2h0.6v0.4h-5v-0.4h0.6c0.4,0,0.8,0,0.9-0.2
		c0.2-0.2,0.4-0.5,0.4-0.9v-7.3h-2.8c-0.4,0-0.7,0.2-0.9,0.5c0,0.2-0.2,0.5-0.2,1h-0.4l0.2-2.4h0.4c0,0.2,0.2,0.3,0.6,0.3h7.6
		c0.4,0,0.4-0.2,0.6-0.3h0.2L226.9,217.9z M239.5,220.2c0,1.4-0.6,2.6-1.7,3.7c-1.1,0.9-2.4,1.4-3.9,1.4c-1.1,0-2-0.2-2.8-0.5
		c-0.9-0.3-1.7-0.9-2.2-1.7c-0.6-0.7-0.7-1.4-0.7-2.4c0-0.9,0.2-1.7,0.7-2.4c0.4-0.9,1.1-1.4,2-1.9c0.9-0.3,1.9-0.7,3-0.7
		c1.5,0,3,0.5,3.9,1.4C239,217.8,239.5,218.8,239.5,220.2L239.5,220.2z M238,220.7c0-1.4-0.4-2.6-1.3-3.5c-0.7-0.9-1.8-1.2-3.2-1.2
		c-1.3,0-2.2,0.3-3,1.4c-0.6,0.7-0.9,1.7-0.9,2.8c0,0.9,0.2,1.6,0.6,2.3c0.4,0.9,0.9,1.4,1.7,1.9c0.7,0.3,1.5,0.5,2.4,0.5
		c1.5,0,2.6-0.7,3.3-2.1C237.9,222.1,238,221.4,238,220.7L238,220.7z M253.1,225.2c-0.2,0-0.6,0-0.7,0c-0.9,0-1.7-0.2-2.2-0.4
		c-0.6-0.2-1.1-0.7-2-1.4l-0.9-1c-0.7-0.7-1.3-1-1.7-1.4c-0.6,0-0.9,0.2-1.1,0.2c-0.2,0-0.4-0.2-0.7-0.2v2.6c0,0.5,0.2,0.9,0.6,1
		c0.2,0,0.4,0,0.7,0h0.4v0.4h-4.6v-0.4h0.4c0.6,0,0.8,0,0.9-0.2c0.2-0.2,0.4-0.5,0.4-1v-6.3c0-0.3-0.2-0.7-0.4-0.9
		c0-0.2-0.4-0.3-0.9-0.3h-0.4v-0.2c0.4,0,0.7,0,1.5-0.2c0.2,0,0.4,0,0.6,0c0.7,0,1.3,0,2,0c1.5,0,2.4,0.2,3.2,0.7
		c0.7,0.5,1.1,1.2,1.1,1.9c0,0.7-0.2,1-0.6,1.6c-0.4,0.3-0.9,0.7-1.5,0.9c0.4,0.3,0.9,0.9,1.7,1.6l1.3,1.2c0.7,0.5,1.3,1,2,1.2
		c0.4,0.2,0.7,0.2,1.1,0.2V225.2z M247.5,218.5c0-1-0.4-1.9-1.3-2.3c-0.4-0.2-1.1-0.2-1.8-0.2c-0.4,0-0.6,0-0.7,0v4.9
		c0.2,0,0.6,0,0.9,0C246.6,220.9,247.5,220,247.5,218.5L247.5,218.5z M262,222.8l-0.4,2.3h-8.4v-0.4h0.4c0.7,0,1.3-0.2,1.5-0.5
		c0-0.2,0-0.3,0-0.7v-6.3c0-0.5-0.2-0.9-0.4-1c-0.2,0-0.6-0.2-0.9-0.2h-0.4v-0.2h7.6l0.2,2.1h-0.2c-0.2-1-0.6-1.6-1.3-1.6h-3.3v3.7
		h3c0.2,0,0.6-0.2,0.6-0.4c0.2-0.2,0.2-0.5,0.4-0.9h0.2v3h-0.2c-0.2-0.5-0.2-0.7-0.4-0.9c-0.2-0.3-0.4-0.3-0.7-0.3h-2.8v3.1
		c0,0.3,0.2,0.5,0.2,0.7c0.2,0,0.4,0.2,0.7,0.2h2.4c0.7,0,1.1-0.2,1.5-0.7c0-0.2,0.2-0.5,0.4-1H262z"/>
</g>
</svg>
