<svg xmlns="http://www.w3.org/2000/svg" viewBox="0 0 512 512"><path d="M245.914 425.453c0 16.547-13.414 29.953-29.961 29.953C199.414 455.406 186 442 186 425.453s13.414-29.953 29.953-29.953c16.547 0 29.961 13.406 29.961 29.953zm168.055 0c0 16.547-13.422 29.953-29.969 29.953-16.531 0-29.953-13.406-29.953-29.953S367.469 395.5 384 395.5c16.547 0 29.969 13.406 29.969 29.953z" fill="#434a54"/><path fill="#B5B5B5" d="M448 384H181.336c-5.883 0-10.672-4.781-10.672-10.656 0-5.891 4.789-10.688 10.672-10.688H448L512 128H128.844l-18.18-66.812-.008.016a10.69 10.69 0 0 0-9.023-7.797L11.93 42.75h-.008a8.35 8.35 0 0 0-1.258-.094C4.773 42.656 0 47.438 0 53.344c0 5.453 4.109 9.953 9.406 10.578l82.562 9.828 73.953 271.531c-9.883 5.438-16.586 15.969-16.586 28.062 0 16.062 11.828 29.344 27.258 31.641a42.392 42.392 0 0 0-5.93 21.672c0 23.562 19.102 42.688 42.672 42.688 23.562 0 42.664-19.125 42.664-42.688a42.439 42.439 0 0 0-5.719-21.312h96.781c-3.641 6.266-5.719 13.547-5.719 21.312 0 23.562 19.094 42.688 42.656 42.688s42.656-19.125 42.656-42.688c0-7.766-2.078-15.047-5.719-21.312H448c5.891 0 10.656-4.781 10.656-10.688 0-5.875-4.765-10.656-10.656-10.656zm-149.344-42.656h-49.469l-8-53.344h57.469v53.344zm0-74.688h-60.672l-8-53.312h68.672v53.312zm123.391-117.312h62.016L472.438 192h-56.797l6.406-42.656zm-9.609 64h54.188l-14.562 53.312h-47.625l7.999-53.312zM446.25 288l-14.547 53.344H393.25l8-53.344h45zM320 149.344h80.469L394.062 192H320v-42.656zm0 64h70.875l-8 53.312H320v-53.312zM320 288h59.672l-8 53.344H320V288zm-21.344-138.656V192h-71.867l-6.406-42.656h78.273zm-71.039 192h-40.656L172.414 288h47.203l8 53.344zm-28.805-192L205.211 192h-58.977l-11.641-42.656h64.219zm-46.757 64h56.359l8 53.312h-49.82l-14.539-53.312zM213.336 448C201.57 448 192 438.438 192 426.656c0-11.75 9.57-21.312 21.336-21.312 11.758 0 21.328 9.562 21.328 21.312 0 11.782-9.57 21.344-21.328 21.344zM384 448c-11.766 0-21.344-9.562-21.344-21.344 0-11.75 9.578-21.312 21.344-21.312s21.344 9.562 21.344 21.312c0 11.782-9.578 21.344-21.344 21.344z"/><path fill="#fff" d="M384 437.344c5.891 0 10.656-4.781 10.656-10.688 0-5.875-4.766-10.656-10.656-10.656s-10.656 4.781-10.656 10.656c0 5.906 4.765 10.688 10.656 10.688zm-170.664 0c5.891 0 10.664-4.781 10.664-10.688 0-5.875-4.773-10.656-10.664-10.656s-10.672 4.781-10.672 10.656c0 5.906 4.781 10.688 10.672 10.688z"/><path fill="#e1e1e1" d="M120 138l60 213h257l61-213z"/></svg>