<svg xmlns="http://www.w3.org/2000/svg" width="24" height="24" viewBox="0 0 768 768"><title/><path d="M248.615 329.847c0-104.5 85.038-189.538 189.539-189.538s189.538 85.038 189.538 189.538-85.038 189.538-189.538 189.538-189.538-85.038-189.538-189.538zM32 681.847c0 29.615 24.539 54.154 54.154 54.154 14.385 0 28.346-5.923 38.077-16.077l145.115-144.693c49.5 34.269 108.731 52.462 168.807 52.462C602.731 627.693 736 494.424 736 329.846S602.731 31.999 438.153 31.999 140.306 165.268 140.306 329.846c0 60.077 18.191 119.307 52.462 168.807L47.653 643.768C37.923 653.499 32 667.46 32 681.845z"/></svg>