<?xml version="1.0" encoding="utf-8"?><svg xmlns="http://www.w3.org/2000/svg" xmlns:xlink="http://www.w3.org/1999/xlink"><symbol viewBox="0 0 768 768" id="arrow-left"><title/><path d="M36.995 383.999l694.011 300.157L580.15 383.999 731.006 83.844z"/></symbol><symbol viewBox="0 0 768 768" id="arrow-right"><title/><path d="M731.005 383.999L36.994 684.156 187.85 383.999 36.994 83.844z"/></symbol><symbol viewBox="0 0 22.3 21.4" id="cart"><path d="M3 3.3c.4 3.1 1.1 6.3 1.6 9.4.2.7.3 1.5.4 2.3.2 1 .7 1.1 1.8 1.1 3.5 0 8.4.1 11.7 0 .9 0 1.6-.5 1.2-1.5-.3-.8-1.2-.7-2.2-.7H8.8c-1.5.1-1.8.4-1.8-1 3.4-.1 7.1 0 10.5 0 3.8 0 3.1.9 4.2-6 .3-1.6.9-3.4-.6-3.6-.7-.1-14.4 0-15.8 0-.4-2 0-2.3-3.8-2.2-.9.1-1.6.7-1.1 1.6.3.7 1.6.5 2.6.6zm3.6 7.5h3V8.7H6.2l.4 2.1zm7.5-2.2h-3.4v2.1c.2.1-.3.1.3.1.8 0 2.4.1 3.1-.1.1-.4.2-1.7 0-2.1zm-3.4-1H14l.1-2.2h-3.4v2.2zm8.1 3.1l.3-2.1h-3.8l-.1 2.2c.6 0 3.2.1 3.6-.1zM6 7.6h3.5l.1-2.2h-4L6 7.6zm13.3-.1l.2-1.7c.2-.3.1 0 .1-.4h-4.4c-.2.5-.1 1.7 0 2.2.6.1 1.3.1 2 .1l2.1-.2zm-1.7 9.8c-2.2.6-1.1 3.6 1 3 2-.6 1.3-3.6-1-3zm-10.2 0c-2 .6-1.4 3.6.9 3 2-.4 1.4-3.7-.9-3z" fill-rule="evenodd" clip-rule="evenodd" style="fill: #231f20;"/><path d="M19.3 7.5h-4V5.4h4.3v.4c.2-.3.1 0 .1-.4h-4.4c-.2.5-.1 1.7 0 2.2.6.1 1.3.1 2 .1l2-.2z" fill-rule="evenodd" clip-rule="evenodd" style="fill: #8d959b;"/><path d="M10.7 10.7c.2.1-.3.1.3.1.8 0 2.4.1 3.1-.1 0-.4.1-1.8-.1-2.1v2.1h-3.3z" fill-rule="evenodd" clip-rule="evenodd" style="fill: #8a9197;"/><path d="M18.8 10.7h-3.5V8.6l-.1 2.2c.6 0 3.2.1 3.6-.1z" fill-rule="evenodd" clip-rule="evenodd" style="fill: #9da3aa;"/></symbol><symbol viewBox="0 0 768 768" id="cross"><title/><path d="M728.087 596.657l-.008-.008-212.645-212.65 212.645-212.65.008-.007a21.754 21.754 0 0 0 5.005-7.814c2.907-7.787 1.248-16.895-5.013-23.158L627.627 39.918c-6.262-6.262-15.368-7.917-23.157-5.01a21.789 21.789 0 0 0-7.816 5.004c0 .003-.003.005-.006.007L384 252.57 171.352 39.92l-.007-.008a21.774 21.774 0 0 0-7.813-5.004c-7.79-2.908-16.895-1.249-23.158 5.01L39.921 140.371c-6.262 6.262-7.919 15.37-5.012 23.157a21.775 21.775 0 0 0 5.006 7.814l.008.007 212.65 212.648-212.65 212.651c-.002.003-.005.004-.006.007a21.81 21.81 0 0 0-5.007 7.813c-2.908 7.787-1.249 16.895 5.012 23.158l100.453 100.452c6.262 6.262 15.37 7.918 23.158 5.011a21.794 21.794 0 0 0 7.814-5.005l.007-.007 212.648-212.65 212.648 212.65.008.006a21.8 21.8 0 0 0 7.813 5.007c7.789 2.907 16.897 1.25 23.157-5.011L728.08 627.625c6.262-6.262 7.92-15.37 5.013-23.158a21.777 21.777 0 0 0-5.007-7.813z"/></symbol><symbol viewBox="0 0 772 768" id="facebook"><title/><path d="M477.258 179.711v65.771h-33.21c-26.02 0-30.885 14.698-30.885 35.876v47.086h61.981l-8.25 73.742h-53.73v189.088H348.43V402.186h-53.94v-73.742h53.942v-54.31c0-63.03 32.79-97.408 80.597-97.408 22.847 0 42.52 1.993 48.232 2.988z"/><rect width="772" height="772" y="-2" ry="0" style="fill: none;"/><path d="M257.422 78.367c-98.073 0-177.055 78.982-177.055 177.055v257.156c0 98.073 78.982 177.055 177.055 177.055h257.156c98.073 0 177.056-78.982 177.056-177.055V255.422c0-98.073-78.983-177.055-177.056-177.055H257.422zM0-2h772v772H0z"/></symbol><symbol viewBox="0 0 839 768" id="folder"><title/><path d="M231.229 230.081h443.783c45.695 0 45.695-47.39 1.779-47.39h-306.74c-17.575 0-26.342-26.342-26.342-26.342s-12.302-38.644-36.907-38.644H78.346c-33.372 0-24.605 38.644-24.605 38.644s50.969 433.45 54.482 459.813 30.767 34.134 30.767 34.134l59.735-383.329c4.404-28.1 23.716-35.997 32.504-36.887zm534.178 16.665H245.289c-15.522 0-28.12 12.577-28.12 28.1l-54.462 347.269c0 15.542 12.599 28.12 28.12 28.12h520.118c15.5 0 28.12-12.577 28.12-28.12l54.462-347.269c0-15.522-12.556-28.1-28.12-28.1z"/></symbol><symbol viewBox="0 0 22.9 22.1" id="hart"><path d="M11.5 5.4C12.7 3.1 13.9 2 16.4 2c2.7 0 4.9 2.1 4.9 4.7 0 4.6-4.9 9.3-9.9 14-5-4.7-9.9-9.3-9.9-14C1.6 4.1 3.8 2 6.5 2c2.5 0 3.7 1.1 5 3.4z" stroke-width="2.126" stroke-miterlimit="10" style="fill: none; stroke: #da3960;"/></symbol><symbol viewBox="0 0 768 768" id="instagram"><title/><path d="M657.778 32H110.223C67.2 32 32.001 67.2 32.001 110.222v547.555c0 43.061 35.201 78.222 78.222 78.222h547.555c43.023 0 78.222-35.161 78.222-78.222V110.222C736 67.199 700.799 32 657.778 32zM383.375 600.011c119.641 0 216.598-97.034 216.598-216.637 0-13.22-1.682-25.969-4.029-38.486h61.834v282.225c0 14.941-12.125 26.986-27.103 26.986H137.327c-14.98 0-27.103-12.047-27.103-26.986V344.888h60.583c-2.385 12.515-4.067 25.266-4.067 38.486 0 119.641 97.034 216.637 216.637 216.637zM248.012 383.375c0-74.78 60.623-135.363 135.403-135.363 74.74 0 135.403 60.583 135.403 135.363s-60.662 135.403-135.403 135.403c-74.819 0-135.403-60.623-135.403-135.403zm382.662-155.819h-63.165c-14.941 0-27.065-12.202-27.065-27.065v-63.242c0-14.941 12.125-27.025 27.025-27.025h63.165c15.019 0 27.143 12.086 27.143 27.025v63.203c0 14.901-12.125 27.103-27.103 27.103z"/></symbol><symbol viewBox="0 0 768 768" id="left"><title/><path d="M302.365 664.957L56.218 418.81c-19.226-19.224-19.226-50.396 0-69.621l246.147-246.147c19.226-19.224 50.396-19.224 69.621 0 19.226 19.226 19.226 50.395 0 69.621L209.879 334.77H681.78c27.189 0 49.229 22.042 49.229 49.228s-22.042 49.228-49.229 49.228H209.879l162.107 162.107c9.612 9.612 14.417 22.211 14.417 34.81s-4.805 25.197-14.417 34.81c-19.226 19.226-50.395 19.226-69.621 0z"/></symbol><symbol viewBox="0 0 24 24" id="location"><path fill-rule="evenodd" clip-rule="evenodd" d="M11.9 4.8c1.5.1 2.1.5 3 1.3.8.7 1.2 1.6 1.2 3-.1 2.1-1.9 4-4.2 3.9.3.4.2 4.7.2 5.3 0 1.8-.1 3.7 0 5.5.6-.5 5.7-8.2 6.3-9.2.7-1 1.5-2 1.9-3.4.4-1.4.5-3.1.2-4.6C19.7 4.1 18 2 15.7.9c-.9-.5-3.4-1.2-4.3-.7l.6.1-.1 4.5z" style="fill: #AAC2D2;"/><path fill-rule="evenodd" clip-rule="evenodd" d="M11.9 23.7c-.1-1.8 0-3.7 0-5.5 0-.6.2-4.9-.2-5.3-2.2-.1-4-1.9-3.9-4.2.1-2.2 1.8-3.8 4-3.9l.1-4.6-.6-.1C7.9-.3 1.4 4.9 4.1 11.8c.5 1.2 1.2 2.1 1.8 3.1l5.9 9.1c.2-.2.1.1.1-.3z" style="fill: #89AABD;"/><path fill-rule="evenodd" clip-rule="evenodd" d="M11.8 12.9c2.3.2 4.1-1.7 4.2-3.9.1-1.4-.4-2.3-1.2-3-.8-.8-1.4-1.2-3-1.3-2.1.2-3.8 1.8-3.9 4-.1 2.3 1.7 4.2 3.9 4.2z" style="fill: #FFF;"/></symbol><symbol viewBox="0 0 768 768" id="menu"><title/><path d="M40.727 114.285h686.545v147.118H40.727zm0 196.157h686.545V457.56H40.727zm0 196.155h686.545v147.118H40.727z"/></symbol><symbol viewBox="0 0 24 24" id="search"><g fill-rule="evenodd"><path d="M.8 10.2V8.3c.3-.6.2-1.6 1-3 4.3-7.7 15.7-4.5 15.7 4-.1 6.7-8 11.1-13.9 6.2-2.5-2-2.5-4.6-2.8-5.3z" style="fill: #71797E;"/><path d="M9.9 2.6c3.4.4 6.3 3.4 5.9 7.4-.4 3.4-3.5 6.4-7.5 5.9-3.5-.5-6.4-3.6-5.8-7.6.4-3.3 3.4-6.2 7.4-5.7z" style="fill: #FFF;"/><path d="M9.9 3c3.2.5 6 3.3 5.4 7.2-.5 3.2-3.3 5.9-7.2 5.4-3.1-.5-5.8-3.5-5.3-7.2.4-3.2 3.4-6 7.1-5.4z" style="fill: #71797E;"/><path d="M9.9 3.5c2.9.4 5.5 3.1 4.9 6.6-.5 2.8-3.2 5.4-6.6 4.8-2.8-.5-5.3-3.1-4.8-6.6.4-2.8 3.1-5.3 6.5-4.8z" style="fill: #FFF;"/><path d="M22.6 20.4c-.5.5-1.7 1.9-2.2 2.1l-5.2-5.1c.1-.4.7-.8 1-1.2.3-.3.8-.8 1.2-1.1.6.5 5.1 5 5.2 5.3zm.6.7v.7c-.4.5-.4.8-.9 1.1-.6.3-1.1.1-1.6-.1l2.2-2.2.3.5zm-6-6.2L15 17.2c-.9-1.9 1.1-3.2 2.2-2.3z" style="fill: #71797E;"/></g></symbol><symbol viewBox="0 0 713 768" id="twitter"><title/><path d="M673.856 203.542c-17.713 25.765-39.855 48.713-65.217 67.23.403 5.635.403 11.272.403 16.908 0 171.901-130.838 369.969-369.969 369.969-73.671 0-142.109-21.336-199.679-58.374 10.466 1.207 20.531 1.611 31.401 1.611 60.79 0 116.747-20.531 161.433-55.555-57.166-1.208-105.073-38.648-121.577-90.177 8.051 1.207 16.103 2.012 24.557 2.012 11.674 0 23.35-1.611 34.22-4.428C109.847 440.661 65.16 388.325 65.16 325.122v-1.611c17.311 9.662 37.44 15.701 58.776 16.505-35.024-23.35-57.971-63.205-57.971-108.293 0-24.154 6.442-46.297 17.713-65.62 64.01 78.905 160.226 130.435 268.116 136.07-2.012-9.661-3.22-19.726-3.22-29.791 0-71.659 57.971-130.031 130.031-130.031 37.44 0 71.256 15.701 95.008 41.063 29.389-5.636 57.568-16.505 82.528-31.401-9.661 30.194-30.193 55.555-57.166 71.659 26.167-2.819 51.529-10.065 74.879-20.128z"/></symbol><symbol viewBox="0 0 768 768" id="upload"><title/><path d="M384 44.8l350.897 350.897H571.146V723.2h-374.29V395.697H33.105L384.002 44.8z"/></symbol><symbol viewBox="0 0 768 768" id="user-tie"><title/><path d="M243.2 172.8C243.2 95.038 306.238 32 384 32s140.8 63.038 140.8 140.8c0 77.761-63.038 140.8-140.8 140.8s-140.801-63.038-140.801-140.8zm328.592 187.732h-25.979l-146.01 296.447L454.399 384 384 313.601 313.601 384l54.596 272.979-146.008-296.447h-25.978c-93.811 0-93.811 63.055-93.811 140.8v234.667h563.201V501.332c0-77.744 0-140.801-93.81-140.801z"/></symbol></svg>