<svg xmlns="http://www.w3.org/2000/svg" width="33.592" height="32.037" viewBox="0 0 33.5918 32.0371"><title>benefit</title><path d="M33.066 13.383l-7.328 7.146 1.737 10.095a2.665 2.665 0 0 1 .02.403.87.87 0 0 1-.828 1.01 1.646 1.646 0 0 1-.808-.242l-9.064-4.766-9.064 4.766a1.712 1.712 0 0 1-.808.242.884.884 0 0 1-.847-1.01 2.65 2.65 0 0 1 .04-.403l1.736-10.095-7.347-7.146A1.568 1.568 0 0 1 0 12.415a1.117 1.117 0 0 1 1.13-.929l10.134-1.474L15.806.826a1.005 1.005 0 0 1 1.978 0l4.543 9.186 10.134 1.474a1.133 1.133 0 0 1 1.13.929 1.502 1.502 0 0 1-.525.968z" fill="#fbb040"/></svg>