<svg xmlns="http://www.w3.org/2000/svg" style="border: 0 !important; clip: rect(0 0 0 0) !important; height: 1px !important; margin: -1px !important; overflow: hidden !important; padding: 0 !important; position: absolute !important; width: 1px !important;" class="root-svg-symbols-element">
    <symbol id="benefit" viewBox="0 0 33.5918 32.0371">
      <title>benefit</title><path d="M33.066 13.383l-7.328 7.146 1.737 10.095a2.665 2.665 0 0 1 .02.403.87.87 0 0 1-.828 1.01 1.646 1.646 0 0 1-.808-.242l-9.064-4.766-9.064 4.766a1.712 1.712 0 0 1-.808.242.884.884 0 0 1-.847-1.01 2.65 2.65 0 0 1 .04-.403l1.736-10.095-7.347-7.146A1.568 1.568 0 0 1 0 12.415a1.117 1.117 0 0 1 1.13-.929l10.134-1.474L15.806.826a1.005 1.005 0 0 1 1.978 0l4.543 9.186 10.134 1.474a1.133 1.133 0 0 1 1.13.929 1.502 1.502 0 0 1-.525.968z" fill="#fbb040"/>
    </symbol>
    <symbol id="burger" viewBox="0 0 512 512">
      <path fill="#fff" d="M32 96h448v96H32zm0 128h448v96H32zm0 128h448v96H32z"/>
    </symbol>
    <symbol id="cart" viewBox="0 0 768 768">
      <path fill="#91A766" d="M288.11 655.664c0 29.126-24.132 53.258-53.258 53.258s-53.258-24.132-53.258-53.258 24.132-53.258 53.258-53.258 53.258 24.132 53.258 53.258zm372.812 0c0 29.126-24.132 53.258-53.258 53.258s-53.258-24.132-53.258-53.258 24.132-53.258 53.258-53.258 53.258 24.132 53.258 53.258zm53.258-452.698V416c0 13.315-10.402 24.965-23.716 26.63l-434.392 50.762c2.081 9.57 5.409 19.14 5.409 29.126 0 9.57-5.825 18.308-9.986 26.629h382.797c14.562 0 26.63 12.066 26.63 26.63s-12.066 26.63-26.63 26.63H208.221c-14.562 0-26.63-12.066-26.63-26.63 0-12.899 18.723-44.105 25.382-57.003l-73.646-342.438H48.446c-14.562 0-26.63-12.066-26.63-26.63s12.066-26.63 26.63-26.63h106.517c27.878 0 28.71 33.286 32.871 53.258h499.717c14.562 0 26.63 12.066 26.63 26.629z"/>
    </symbol></svg>