<?xml version="1.0" standalone="no"?>
<!DOCTYPE svg PUBLIC "-//W3C//DTD SVG 20010904//EN"
 "http://www.w3.org/TR/2001/REC-SVG-20010904/DTD/svg10.dtd">
<svg version="1.0" xmlns="http://www.w3.org/2000/svg"
 width="16.000000pt" height="16.000000pt" viewBox="0 0 16.000000 16.000000"
 preserveAspectRatio="xMidYMid meet">
<metadata>
Created by potrace 1.11, written by Peter Selinger 2001-2013
</metadata>
<g transform="translate(0.000000,16.000000) scale(0.009938,-0.009938)"
fill="#000000" stroke="none">
<path d="M763 1013 c-7 -2 -13 -18 -13 -33 0 -16 -4 -32 -10 -35 -5 -3 -10
-18 -10 -32 0 -23 -3 -25 -34 -19 -50 9 -76 -21 -76 -88 l0 -49 -22 20 c-32
30 -62 33 -63 8 0 -14 16 -28 53 -48 28 -16 52 -32 52 -38 0 -5 7 -9 17 -9 9
0 48 -17 87 -39 90 -49 121 -59 113 -38 -4 11 -2 14 8 10 8 -3 12 -9 10 -14
-7 -10 39 -23 57 -16 7 3 3 6 -9 6 -12 1 -24 5 -27 10 -3 4 6 6 21 3 16 -3 24
-1 20 5 -4 5 -19 10 -35 11 -48 1 -108 34 -103 57 2 11 5 44 7 74 2 30 8 57
14 61 10 6 17 26 19 56 1 10 101 69 101 59 0 -3 8 -1 18 4 15 8 79 22 110 24
15 0 16 29 1 44 -7 7 -20 8 -38 2 -14 -4 -37 -10 -51 -11 -14 -2 -30 -7 -37
-11 -7 -4 -36 -9 -64 -10 -44 -2 -54 1 -66 21 -15 22 -26 25 -50 15z m-32
-271 c-6 -2 -11 -10 -11 -18 0 -9 -5 -12 -10 -9 -7 4 -6 14 2 28 7 12 13 25
14 30 1 4 3 13 4 20 2 6 5 -1 7 -18 3 -16 0 -31 -6 -33z"/>
<path d="M412 923 c-43 -17 -47 -33 -27 -87 15 -40 15 -46 2 -67 -9 -13 -18
-37 -21 -52 -4 -23 0 -30 20 -37 36 -14 41 -13 47 12 l6 21 19 -23 20 -24 36
19 c43 23 44 34 11 82 -25 38 -23 56 9 83 25 20 20 55 -10 71 -24 12 -28 12
-44 -9 l-18 -22 -9 23 c-8 23 -10 23 -41 10z"/>
<path d="M941 901 l-43 -37 7 -95 c4 -51 10 -97 13 -101 13 -13 65 5 69 23 7
24 15 24 31 -1 15 -24 30 -25 54 -3 17 15 20 15 43 -7 23 -21 26 -22 70 -9 25
7 47 20 50 29 7 21 -1 115 -10 130 -5 9 -4 11 3 6 8 -5 12 2 12 21 0 15 3 38
6 51 6 22 5 23 -42 16 -63 -8 -104 -32 -105 -61 -1 -13 -3 -27 -4 -33 -1 -5
-3 -30 -4 -55 l-1 -45 -25 22 -25 22 20 21 c22 24 27 77 8 93 -7 5 -29 19 -49
30 l-35 19 -43 -36z m59 -90 c0 -6 -4 -13 -10 -16 -5 -3 -10 1 -10 9 0 9 5 16
10 16 6 0 10 -4 10 -9z"/>
<path d="M213 917 c-27 -8 -36 -19 -51 -60 l-19 -49 -13 48 c-7 27 -16 53 -20
57 -4 5 -25 0 -46 -10 -44 -21 -50 -38 -60 -156 l-6 -79 33 7 c45 9 50 16 55
66 6 56 11 60 19 13 11 -67 14 -72 35 -67 13 4 22 17 26 42 12 65 23 70 24 10
0 -31 2 -58 5 -61 3 -3 22 2 42 11 l35 16 -6 92 c-9 123 -12 132 -53 120z"/>
<path d="M1320 911 c-64 -22 -70 -28 -70 -64 0 -63 9 -77 49 -78 l36 -1 -35
-11 c-19 -6 -36 -11 -38 -13 -2 -1 0 -23 3 -49 7 -46 7 -46 42 -40 41 6 93 32
111 54 18 23 7 82 -20 103 -19 15 -20 18 -5 18 11 0 17 8 18 23 0 12 2 30 4
39 7 37 -26 43 -95 19z"/>
<path d="M1545 922 c-16 -1 -49 -5 -72 -8 l-43 -5 0 -61 c0 -55 2 -60 20 -55
19 5 20 0 20 -65 l0 -69 33 3 32 3 -4 68 -3 67 30 0 c28 0 30 3 41 57 14 72
14 72 -6 70 -10 -1 -31 -3 -48 -5z"/>
<path d="M302 913 c-22 -4 -23 -7 -20 -121 3 -104 5 -117 21 -116 9 1 25 2 36
3 16 1 18 8 14 59 -2 31 -5 84 -6 116 -2 61 -6 66 -45 59z"/>
</g>
</svg>
