<svg version="1" xmlns="http://www.w3.org/2000/svg" width="340" height="340" viewBox="0 0 255.000000 255.000000"><path d="M89.3 40.7C43.1 85.9 0 130.4 0 132.8c0 1 .5 2.3 1.2 3 3.7 3.7 4.5 3 66.3-58.1l60-59.4 59.8 59.1c42.4 41.9 60.5 59.2 62.3 59.4 3 .4 5.4-1.3 5.4-4 0-1.1-5.6-7.8-13.1-15.6C224.1 98.6 133.2 8.4 129.7 5.9L127 3.8 89.3 40.7zM168 16.3c-3.5 1.8-3.7 5-.4 7.6 2.5 1.9 3.9 2.1 18.4 2.1h15.8l.3 16.8c.4 18.1 1 20.2 5.5 20.2 4.1 0 4.7-2.9 4.8-24.8.1-19-.1-20.5-1.9-21.8-2.6-1.9-38.7-2-42.5-.1z"/><path d="M34.2 133.8c-2 1.6-2.1 3-2.7 37.7-.7 41.4.3 74.7 2.3 76.7 1 1 9.1 1.4 34.4 1.6l33.1.3 2.9-2.7 2.8-2.8V175h41v69.6l2.9 2.8 2.9 2.8 33.2-.3c30-.4 33.3-.6 34.4-2.1 2.7-3.7 3.1-100.5.5-107.6-1.2-3.1-6.3-3.1-8.1 0-1 1.8-1.4 13.7-1.6 50.5l-.4 48.3h-51.5l-.5-35.6c-.5-31.5-.7-35.7-2.2-37.2-1.5-1.5-4.8-1.7-30.1-1.7-25.4 0-28.6.2-30.1 1.7s-1.8 5.5-2.2 37.2l-.5 35.6H43V137.3l-2.2-2c-3.6-3.2-4.5-3.4-6.6-1.5z"/></svg>