<svg version="1" xmlns="http://www.w3.org/2000/svg" width="476" height="476" viewBox="0 0 357.000000 357.000000"><path d="M160.5 1.1C91.5 8.3 32.6 55.9 10.6 122c-12.4 37.2-12.2 76.2.4 114.1 18.7 56.3 65.1 99.9 122.2 114.8 18 4.7 24.9 5.6 44.8 5.6s26.8-.9 44.8-5.6c64-16.7 112.8-68 127.6-134 14.3-64.1-8.8-132.7-58.8-174.6C254.4 11 207.2-3.8 160.5 1.1zm46.3 3.3c38.4 7 69.6 23.7 96.8 51.8 42.5 43.9 59 107.3 43.5 167.5-15.9 61.7-64.9 110.4-127.2 126.3-25.7 6.6-58.1 6.6-83.8 0-56.7-14.4-101.9-55.4-122.4-111-4.2-11.3-8.2-28.8-9.6-42.2-5.6-51 12.3-103.1 48.1-140.4C75.6 32.2 102.4 16.2 133.4 8c9.7-2.5 14.2-3.3 29.1-5.4 6.3-.9 36.4.3 44.3 1.8z"/><path d="M165.4 8.1c-29.1 2.1-56.9 11.8-82.4 28.6C67 47.3 47.3 67 36.7 83c-26.6 40.1-35.4 86.8-25.1 132.9 15 67.3 69.2 119 137.3 131.3 16.2 2.9 42 2.9 58.2 0C275.2 335 329.4 283.1 344.4 216c10.3-46.4 1.6-92.6-25.1-133C308.7 67 289 47.3 273 36.7c-24.5-16.2-53.2-26.5-79-28.2-4.7-.3-10.5-.7-13-.9-2.5-.2-9.5 0-15.6.5zM195.5 19c51.9 5.8 95.9 33.8 122.7 78 14.7 24.2 22.1 51.2 22.1 80.5 0 26.9-5.3 49.8-17 72.6-22.2 43.6-62.7 74.3-112.3 85.1-9.1 1.9-13.4 2.2-32.5 2.2-24.2 0-33.3-1.3-52-7.5C73 312.1 31.8 266.6 20.1 212.7c-11-50.6 2.1-100.8 36.3-139.9C90.3 34 144 13.3 195.5 19z"/><path d="M154.7 23.5C119.6 29.2 90.3 44.3 66 68.9c-22.1 22.5-36.9 50.7-42.6 81.6-2.6 13.7-2.6 44.1 0 57C38.3 282.4 102 335 178 335c67.4 0 126.4-41.7 148.4-104.9 6.6-19 8-27.9 8-51.6 0-23.1-1.2-31.1-7.4-49.7C309.3 75.9 265 36.9 209.5 25c-13.2-2.8-41.9-3.6-54.8-1.5zm54.8 4.4c5 1.1 11.7 2.8 15 3.8l5.9 1.9-12.6 12.6c-7 6.9-13.4 14.1-14.4 15.9-.9 1.8-5.5 9.1-10.2 16.1-7.7 11.6-8.7 12.7-10.2 11.3-2.1-1.9-10-4.7-10-3.5 0 .5.8 1.1 1.8 1.4 1 .4 3.1 1.9 4.6 3.5 3.1 3.3 2.6 4.1-4.4 6-6.9 2-10.6 5.3-13 11.7-3.3 8.9-2.1 9.7 3.3 2.1 4.2-5.8 10.2-11.7 12-11.7.7 0-4.2 10.4-13.4 28-3.9 7.5-6.6 12-6.2 10 .4-1.9.8-6.4.8-10 0-5.7-.4-7.2-3.5-12-6.1-9.6-13.5-20-14.2-20-.4 0 .7 3.3 2.4 7.2 5.7 13.5 7.9 21.1 8.5 29.8l.6 8.5-3.7 3.7c-4.7 4.7-4.7 6.7-.1 3.9l3.5-2v2.2c0 1.2-3.8 10.3-8.5 20.2-8 16.7-8.9 18.2-12.6 20.2-2.6 1.4-3.6 1.7-2.9.7.7-.8 1.1-1.7.8-2-.8-.8-5.8 5.5-5.8 7.4-.1 1.3-.6 1-2.1-1.1-1.2-1.5-2.9-3.2-3.9-3.7-1.7-.9-1.7-.7-.4 3.8 1.9 6.1 1.5 8.5-.8 5-1.6-2.4-1.7-4.3-.9-19.1.9-15.6 1.1-16.7 3.7-20.6 1.5-2.3 3-3.8 3.4-3.4.4.4 1.2 3.9 1.9 7.8 1.5 8.6 6.2 23.5 7.4 23.5.5 0 .7-5.6.5-12.8-.3-11.3-.6-13.3-3.1-18.6-3.2-6.9-3-7.3 5.1-11.3 7.2-3.5 5.4-4-3.2-.9-5.4 1.9-6.6 2.1-6.2.9.4-1 .2-1.3-.8-1-.7.3-2.6-.7-4-2.2l-2.6-2.8.2-18.9.3-18.9 2 9.5c1 5.2 1.9 12.3 2 15.7 0 3.4.3 5.9.7 5.5.3-.4 1.7-5.3 2.9-11 2.7-12 2.1-16.2-3.7-25-1.9-2.8-3-5.2-2.5-5.2 1.5 0 8.8 8.6 14.5 17.1 5.4 8.3 13.6 17.4 13.6 15.2 0-.6-1.4-4.9-3.2-9.4-3.6-9.5-9.3-16.4-17.1-20.9-4.4-2.5-4.6-2.8-2.5-3.3 1.3-.4 2.4-.2 2.6.3.2.5 1.4.2 2.8-.6 2-1.4 4.6-1.6 14.4-1.2 9.3.3 11.7.1 10.9-.8-1.3-1.5-9.4-4.4-12.5-4.4-2.5 0-5.5-3.9-3.2-4.1.9 0 .8-.3-.2-.6-.8-.3-3.3-2.3-5.6-4.3-4.7-4.3-14-7.2-15.6-4.8-.8 1.3-.7.2.8-8.7l.6-4 1.4 4.7c.8 2.7 1.9 4.8 2.4 4.8s.7-.7.4-1.5c-.4-.9-.3-4.5.1-8 .6-5.9.8-6.4 2.5-5.5 1.9 1 8 12.2 8 14.7 0 .7.5 1.3 1.1 1.3.8 0 1-1.7.7-4.9l-.5-5 5.4 4.6c2.9 2.5 5.3 4.1 5.3 3.6 0-1.8-6.2-10.3-9.1-12.3-4.6-3.3-13.8-6.1-16-4.9-1.6.8-1.9.6-1.9-.9s-.5-1.8-2.5-1.4c-2.3.4-2.5.1-2.5-3.1 0-3.4 0-3.4 9.3-6.9 20.2-7.7 33.4-9.8 58.2-9.3 14.3.2 21.2.8 28 2.4zm37 13c15.9 7.8 27.8 16.4 40.5 29.1 21.4 21.4 35.4 47.1 42.2 77.1 2 9.1 2.3 13.1 2.3 31.4 0 18.3-.3 22.3-2.3 31.4-6.9 30.7-20.4 55.4-42.2 77.1-36.9 37-89 52.8-139.9 42.4-8.9-1.8-28.2-8-30.8-9.9-1.6-1.2-1.8-3.6-2.1-22.3l-.4-21.1 3.7-.7c2-.3 8.4-.4 14.1-.2 8.6.4 10.2.2 9.3-.9-1.8-2-10.7-4.3-17.3-4.3l-6.1-.1 4.5-2.5 4.5-2.5-4.2.6c-2.4.3-4.3.2-4.3-.2 0-1.1 5.2-9.7 8.4-13.7 1.7-2.1 5.1-5.4 7.5-7.2 5.3-4.1 4.4-4.3-2.5-.5l-5.2 2.8-1.1-9.6-1-9.6 6.6-16c6.1-14.7 7-16.2 10.2-17.9 2.3-1.1 3.7-1.4 3.9-.7.6 1.9 2 1.2 2.6-1.3.4-1.6 1.9-2.9 4.6-4 5.4-2.1 5.4-2.1 7.5 2.1 1.8 3.8 3.2 3.2 2.1-1-.3-1.2-.5-2.6-.5-3 0-.4-1-1.6-2.1-2.5-2-1.6-1.9-1.7 3.6-1.9 7.3-.3 9-1.8 3.6-3.4-7.3-2.1-14.4.7-11.2 4.6 1.1 1.3.8 1.5-1.4 1.5-2.3 0-2.5-.2-1.6-1.9 1.9-3.6 1.3-4.4-3-3.8-2.2.3-4 .3-4 0 0-.8 10.7-24.6 13.8-30.8l2.5-5 1.4 4c.9 2.6 1.2 5.8.8 9.2-.7 6.1 0 6.8 2.1 1.8 2.2-5.2 1.8-9.9-1.1-13.3l-2.5-3 9.7-18c5.4-9.9 9.9-17.7 10.1-17.3.1.4-.6 3.6-1.7 7-2.1 6.9-1.3 7.4 3.2 1.9 1.7-2.2 3.1-5.4 3.6-8.4l.7-4.9 2.2 6.9c1.2 3.7 2.2 8.1 2.2 9.8 0 1.7.4 2.7 1 2.3.6-.3 1-3.5 1-7.1 0-6.7-1.5-11-5.3-15.1l-2-2.2 4.4-6.8c2.4-3.7 6.3-9.2 8.6-12.2l4.3-5.4v3.1c0 1.7.5 3.4 1 3.7.6.4 1-.6 1-2.2 0-5.1 1.9-9.4 6.7-15.9 2.6-3.5 5-6.4 5.3-6.4.3 0 1.9 4.3 3.5 9.6 3 9.5 3 9.5 3.9 5.8 1-4.2-1.5-14.7-4.1-17.7-.9-.9-1.2-1.7-.6-1.7 1.4 0 5.5 4.7 9.6 11.1 3.9 5.9 7.4 9.6 8.2 8.7 1-1-3.6-11.3-6.3-14.1-1.5-1.6-4.4-3.8-6.5-4.8-2.4-1.3-3.5-2.4-3.1-3.2 2.9-5 9.2-12.6 10.4-12.7.9 0 7 2.7 13.5 5.9zM106.4 44c-1.1 1.1-7.4 3.2-7.4 2.5 0-.3 1.2-1.1 2.8-1.9 3.2-1.8 6.1-2.1 4.6-.6zm10 4.4c-.3.9-1 1.3-1.6 1-.5-.3-.4-1.2.3-2 1.5-1.8 2.2-1.3 1.3 1zm4.3 2.7c-.8 2.1-1.3 2.6-1.5 1.5-.2-1 .2-2.3.8-3.1 1.8-2.2 2-1.8.7 1.6zm-23.3 7.6c-.9 2-1.3 4.4-1.1 5.4.3 1 .1 3.7-.4 6-1.3 5.4-.6 5.8 2.1 1.4 1.2-2 2.4-3.5 2.6-3.3.1.2-.4 5-1.3 10.7l-1.6 10.4-1.5-3.7c-1.9-4.7-3.2-4.6-2.1.1 1.3 5.6 1.1 6.1-.9 2.8-1.1-1.7-4.2-5.1-7-7.7-6.6-5.9-7.5-9.2-3.4-13.1C85.2 65.4 98 55.2 98.7 55c.1 0-.5 1.6-1.3 3.7zm13.3 1c-.3 1-.5.4-.5-1.2 0-1.7.2-2.4.5-1.8.2.7.2 2.1 0 3zM79.4 62c-1.7 2.6-3.1 3.7-3.7 3.1-.6-.6.3-2 2.4-4 1.9-1.7 3.5-3.1 3.7-3.1.1 0-1 1.8-2.4 4zm28.4 14c-1.7 6.1-3.3 10.9-3.5 10.6-.5-.4 2.4-21.7 3.4-24.9.4-1.7.7-1.6 1.8.7 1.2 2.3 1 3.9-1.7 13.6zm-34.5-1.7c-.4 2.6-.2 2.9.9 1.9C77.1 73.8 87.6 87.4 92 99c2.1 5.7 2.2 6.2.6 10-.9 2.2-1.6 6.9-1.6 10.3v6.3l-3.7.2c-6 .4-13.5 4.6-17.3 9.7-1.8 2.5-3.5 4.5-3.7 4.5-.2 0-1.1-1.6-1.9-3.5-1.1-2.8-1.4-9.1-1.2-32.2 0-15.8.4-26.6.7-23.8l.7 5 1.7-5.4c.9-3 1.7-6.4 1.7-7.6 0-1.1.5-2.6 1.2-3.3 2-2 4.7 1.3 4.1 5.1zm59.1 2c1.8 1.3 1.8 1.4-1 2.1-1.8.5-3 .3-3.2-.4-.2-.6-1.6-2.5-3-4.2l-2.6-3 4 2c2.1 1.1 4.8 2.7 5.8 3.5zm-10.5 1.3c2.7 4.5 2.6 4.8-.4 6.8L119 86v-6c0-3.3.2-6 .4-6s1.3 1.6 2.5 3.6zm15.6 3.4c.4.6-.7 1-2.7 1-2.5 0-2.9-.3-1.8-1 1.9-1.3 3.7-1.3 4.5 0zM58 101.2v19.3l-2.4-5.2c-1.3-2.8-4.1-7.7-6-10.8-2-3.1-3.3-6.2-3-6.8C47.7 95.8 57.5 82 57.8 82c.1 0 .2 8.7.2 19.2zm58.7-13.5c-.3 1-.5.4-.5-1.2 0-1.7.2-2.4.5-1.8.2.7.2 2.1 0 3zm-5.4 11.7c.5 1.4-.9 37.6-1.5 38.1-.2.1-2.2.7-4.6 1.3-3.9.9-4.4.8-5-.9-1.1-2.8 1.2-27 2.7-29.9 2.7-4.8 6.4-10 7.1-10 .4 0 1 .6 1.3 1.4zm-59.7 15.5C56 124 58 131 58 137v5.8l-3.5.6c-2.3.5-4.4 1.9-6.5 4.4-4.2 5.1-2 5.2 4.3.4 2.8-2.3 5.3-3.9 5.5-3.8.2.2-.8 2.1-2.3 4.1-1.4 2.1-2.5 4.7-2.5 5.9 0 1.9.2 1.8 2.5-.9l2.4-3 .1 30.2v30.2l-3.2-1c-4.7-1.4-18.8-1.3-22.3.1-2.9 1.2-2.7 1.3 6.2 3.1 5.1 1.1 11.4 2.7 14 3.7l4.8 1.8-.4 22.9c-.2 12.7-.6 24.8-1 27l-.7 4-5.2-7.7C39.5 249 32 231.6 27.3 212c-3.7-15.7-4.3-41.8-1.4-58.9 2.5-14.8 7.3-29.5 13.6-42.2l4.7-9.3 2.4 4c1.4 2.1 3.6 6.3 5 9.3zm33.2 15.8c-3.7 4-4.5 6-5.2 13.5-.3 3.7-1.8 9.2-3.2 12.5l-2.6 5.8-3.7-10.5-3.7-10.5 3.5-1.9c2-1 4.7-2.8 6.1-4.1 2.6-2.3 10.1-7.5 10.9-7.5.3 0-.7 1.2-2.1 2.7zm7.2 7c0 2.9-.4 5.3-.9 5.3s-3.2 1.5-5.9 3.4l-5.1 3.4 1-2.7c.6-1.4 2.9-5.9 5.1-9.9 4.6-8 5.8-7.9 5.8.5zm17.5 10.5c-.7 10.7-2.7 20.6-5.5 28.1-1.1 2.9-2 5.4-2 5.6 0 .3 1.4-.8 3.2-2.5 2.2-2 2.9-2.4 2.5-1.1-.4 1-.7 3.1-.7 4.7 0 2.3-.8 3.1-5.2 5.3-5.7 2.8-7.1 2.8-4.5-.1 2.1-2.3 2.2-3.3.1-2.5-1.4.5-1.5-.5-.9-8.8 1.2-17.7 1.6-20.4 3.9-27.3 1.9-5.7 2.8-7.2 5.7-8.7 1.9-1 3.5-1.8 3.7-1.9.2 0 .1 4.2-.3 9.2zm9.1 2.4l-1.1 3.5-.6-3.7c-.4-2-.4-4.6-.1-5.7.5-1.9.5-1.9 1.7.3.8 1.6.9 3.1.1 5.6zm-28.4 22.3c-1 18.3-1.1 19.2-3.4 21.1-1.2 1.1-2.5 1.9-2.8 2-.3 0-.6-2.5-.6-5.6-.1-4.1-.7-6.1-2.2-7.7-1.2-1.2-3-5.1-4.1-8.6l-2-6.4 7.7-7.9c4.2-4.4 7.8-7.5 8-6.9.2.5-.1 9.5-.6 20zm-20.7.6c-1 2.7-2.5 6-3.5 7.2-1.6 2.1-1.7 1.8-1.9-7.2-.1-7.1.2-10.1 1.6-13l1.8-3.8 1.8 5.9c1.8 5.6 1.8 6.1.2 10.9zm3.5 1.9c0 .8-.9 1.6-1.9 1.9-1.7.4-1.8.2-.9-1.9 1.1-2.4 2.8-2.4 2.8 0zm75.4 6.7c-2.2 2.4-5.4 4.3-5.4 3.2 0-.7 6-5.3 6.9-5.3.2 0-.4.9-1.5 2.1zM70.5 192c.7 1.1 1.1-.1 1.5-4.5l.6-6 1.8 4c3.1 6.7 5.6 17.6 5.6 24.8v6.9l-2.6-3.1c-1.4-1.7-4.8-4.3-7.5-5.8l-4.9-2.8v-9.3c0-7.1.4-9.9 1.8-11.9l1.7-2.7.5 4.4c.3 2.5 1 5.2 1.5 6zm34.6 2.6c-1.1 2.1-2.2 6.8-2.5 10.3-.6 6.7.1 7.2 2.1 1.8 1.1-3.1 1.2-3 1.2 2.5.1 3.2-.3 5.8-.8 5.8s-3 1.6-5.5 3.5L95 222v-8.9c0-13.1.5-14.7 6.3-19.2 2.7-2.2 5.1-3.8 5.3-3.6.2.2-.5 2.1-1.5 4.3zm23.1 6.3l-3.9 8.1.3-4.5c.2-3.3 1.1-5.6 3.4-8.6 1.8-2.2 3.4-3.8 3.6-3.6.2.2-1.3 4.1-3.4 8.6zm-39.8 5.8l-.7 6.8-1-4.8c-.7-3.4-.6-5.6.2-7.4 1.8-4 2.4-2 1.5 5.4zm29.4 8.3l.5 7.5-2.4-1.6c-1.6-1.1-2.4-2.6-2.3-4.3 0-1.4.1-5.6.3-9.4l.3-6.7 1.5 3.5c.8 1.9 1.7 6.8 2.1 11zM69 213.1c0 .4-.9.5-2 .2-1.2-.3-2-1.4-2-2.6 0-1.9.1-2 2-.2 1.1 1 2 2.1 2 2.6zm14 4.8c0 1.1.3 2.8.6 3.8.6 1.6.5 1.6-.9-.2-1.8-2.2-2.2-5.5-.7-5.5.6 0 1 .9 1 1.9zm19.3 4.7c-2.9 6.5-2.8 11.6.5 18.6 1.8 3.9 2 5.4 1.3 14.5-.7 9.9-2.1 15.2-2.1 8.2 0-5.7-2-10.8-5.6-14.9-3.4-3.8-3.5-4.1-2.9-9.7.8-6.7 4-14.4 7.9-19.1 1.5-1.7 2.9-3.2 3.1-3.2.2 0-.8 2.5-2.2 5.6zm-19 8.6c2.7 1.9 2.8 2.3 2.2 7.2-1 6.8-1.4 7.3-3.3 3.4-1.3-2.5-3-3.8-7.2-5.5-3-1.2-5.7-1.9-6-1.6-.3.3.1.8.9 1.1.8.3 3.4 2.3 5.9 4.5l4.4 4.1-5.1 2.2c-3.3 1.5-5.8 3.4-7.1 5.6l-2 3.3V222l7.3 3.6c3.9 2 8.5 4.5 10 5.6zm32.7-2.3c-.1.9-.7 2.9-1.5 4.6-1.3 2.9-1.3 2.8-1.4-3.5 0-5.9.1-6.3 1.4-4.6.8 1.1 1.5 2.7 1.5 3.5zm7.4 13.6l1.7 5-2.8 2.4c-1.5 1.3-3.9 3.8-5.2 5.5l-2.3 3.1.6-3c.4-1.7.9-3.8 1.3-4.9.3-1.2.1-1.6-.6-1.2-.6.4-.2-1.7 1-4.6 1.2-2.9 2.4-6.1 2.7-7.1.6-2.5 1.6-1.2 3.6 4.8zm-42.1 20.6l-2.6 15.6-3-3.4c-3.5-3.9-4.8-3.7-2 .4 3 4.5 4.3 8.2 3.8 10.9-.3 1.3-.8 3.6-1.1 5.1l-.5 2.6-5-4.9-4.9-4.8v-10.4c0-10.1.1-10.4 3.3-14.4 2.8-3.6 13.7-13.1 14.3-12.5.1.1-.9 7.2-2.3 15.8zm16.8 2c1.3 4.6 1.8 8.6 1.3 10.3-.3 1.5-.9 2.5-1.2 2.2-.5-.6-4.2-23.2-4.1-25.6.1-1.5.3-.8 4 13.1zm-6.2 9.9c.7 8.8.6 11.8-.4 13-1.5 1.8-3.9 8.9-3.2 9.6.3.3 1.5-.8 2.7-2.3 2.2-2.8 2.2-2.8 1.5-.3-.4 1.4-1.3 4-2.1 5.8-1.2 2.9-1.6 3.2-3.4 2.2-2.3-1.2-2.3-1.7-1-9.1.5-3 1.4-10.1 2-15.9 1.1-11.8 2.2-18.3 2.7-16 .2.8.7 6.7 1.2 13zm12.1 8c0 1.1-.4 2-.9 2s-.7-.9-.4-2c.3-1.1.7-2 .9-2 .2 0 .4.9.4 2zm0 17.1c0 12.4-1.1 16.9-2.3 9.1-1.5-9.7-1.8-17.9-.8-20.5 2.1-5.4 3.1-1.7 3.1 11.4z"/><path d="M142 33.9c-8.2.7-12.2 2.6-17.4 8l-3 3.1h5.2c2.9 0 6.9-.7 9-1.6 6.9-2.9 18.5-11.1 14.5-10.2-.5 0-4.2.4-8.3.7zM232.3 106.1c-1.9.7-2.3 1.6-2.3 5.3 0 3.5.5 4.8 1.9 5.6 2.8 1.4 3.1 1.3 3.2-1.3.1-2 .2-1.9 1.1.6 1.2 3.4 2.8 2.6 2.8-1.4 0-2.5-.3-2.9-1.9-2.4-1 .3-2.3-.1-2.9-.8-.9-1.1-.6-1.3 1.8-.9 2.3.3 3 0 3-1.2 0-1.1-1-1.6-3.2-1.7-3.1-.1-3.1-.2-.8-.8 1.8-.5 2.1-.9 1-1.3-.8-.3-2.5-.2-3.7.3z"/><path d="M245 105.9c-3.2.4-4.6 1.1-4.8 2.3-.4 2.2 2.6 2.4 3.4.3.4-1 1.8-1.4 4.3-1.3l3.6.1-3.2.4c-4.5.6-4.2 2.3.4 2.3 2 0 3.3.3 3 .7-.4.3-2 .6-3.7.5-2.8-.1-3 .1-3 3.9 0 2.8.4 3.9 1.5 3.9.8 0 1.5-.8 1.6-1.8 0-1 .3-1.2.6-.5.8 2.2 2.1 1.4 2.6-1.5.4-2.5.4-2.5.6.5.1 2.5-.3 3.3-1.6 3.3-1.7.1-1.7.1 0 1.4 1.8 1.4 2.4 6.1.8 7-.4.3-.6-.6-.3-1.9.2-1.4-.1-3.2-.8-4-1.4-1.7-5.5-2.1-4.5-.5.4.6-1.6 1-5.4 1-3.3 0-6.3.4-6.6 1-.4.6 2.6 1 8.2 1.1 6.2 0 8.1.3 6.6.9-1.2.5-5 .8-8.3.7-3.4-.2-6.4.1-6.6.5-.5.8 1 1.2 3.4.9.6-.1 1.2.3 1.2.8s-1 1.1-2.2 1.3c-1.6.2-2.6-.4-3.5-2.2l-1.1-2.5-.2 3c-.4 5.6-.1 21.8.5 22.3.3.3.5-2 .5-5.1 0-5 .2-5.7 2-5.7 1.1 0 2-.4 2-.9s-.9-1.3-2-1.6c-1.3-.4-2-1.5-2-3.1 0-2.5 1.5-3.3 2.3-1.2.4 1 .8.9 1.6-.2.9-1.2 1.1-1 1.1 1.2 0 1.9.5 2.8 1.6 2.8 1.2 0 1.5-.7 1.2-2.5-.3-1.3-.1-2.2.3-1.9 1.7 1 .9 4.6-1.1 5.1-2.3.6-2.7 2.3-.6 2.3.8 0 1.8.4 2.1 1 .3.6-.1.7-.9.4-1.3-.5-1.6.1-1.6 3.1 0 2.1-.4 3.4-1 3-.5-.3-1-1.7-1-3.1 0-3.9-2.7-2.9-2.8 1.1-.2 5.6 1.7 6.6 11.7 6.3l8.6-.3.5-3c.4-2.5 1-3.1 3.7-3.3 4.1-.4 5.4-3.2 1.5-3.3-1.5-.1-3.3-.1-3.9 0-.7.1-1.3-.3-1.3-.9 0-.7 3.3-1 9.8-.8 9.6.3 9.7.3 9.7 2.8 0 2.4-.3 2.5-6.7 2.8-5.8.2-6.8.6-6.8 2.1s1 1.8 6.7 2c3.7.1 7 .4 7.5.7.4.3.8-9.1.8-20.9 0-23.5.2-22.7-6.1-22.7-3.9 0-3.7 1.8.4 2.3 3.1.4 3.1.4-.5.5-4.8.2-5 2.2-.3 2.2 1.9 0 3.5.5 3.5 1.1 0 .5-.8.9-1.7.8-3.4-.3-5.3.1-5.3 1.1 0 .6 1.6 1 3.8.8 3.5-.3 3.7-.2 4 3.1.2 1.8 0 3.7-.5 4.2s-.7-.6-.5-2.7l.4-3.5-8.1.3c-4.4.2-8.1 0-8.1-.4s1.6-.8 3.5-.8 3.5-.5 3.5-1c0-1.1-1.2-1.3-4.9-1-1.4.1-2.1-.2-1.7-.9.4-.6 2-1.1 3.7-1.1 1.6 0 2.9-.5 2.9-1 0-1.6-5.7-1.1-7.5.7-1.6 1.6-1.7 1.5-1.3-.3.2-1.3 1.3-2 3.3-2.2 1.7-.1 4.1-.5 5.5-.9 2.1-.5 1.6-.8-2.5-1.4-5.8-.8-9.2-.8-15.5 0zm9.3 11.9c.3 1.8.1 3-.4 2.6-.5-.3-.9-1.9-.9-3.6 0-3.9.6-3.4 1.3 1zm10.7 3.5c0 2.2-.4 2.8-1.6 2.3-.9-.3-2.9-.6-4.5-.6-2.3 0-2.9-.4-2.9-2.3s.5-2.2 4.5-2.2c4.3-.1 4.5.1 4.5 2.8zm2.3 4.4c-1.7.3-2.3 1.1-2.3 3 0 3.3-2.2 2.5-2.6-1-.2-2.5 0-2.7 3.4-2.6 2.3.1 2.9.3 1.5.6zm-23.6 1.9c-.3.3-1.2.4-1.9.1-.8-.3-.5-.6.6-.6 1.1-.1 1.7.2 1.3.5zm27.6 2.5c-.8.8-1.6.8-3 0-1.6-.9-1.4-1 1.2-1.1 2.1 0 2.6.3 1.8 1.1zm-22 5.5c2.1-.5 2-.4-.3 1.4l-2.5 2h2.8c2.6 0 2.7.1 2.5 5.7-.1 5.8-.1 5.8-.7 1.4-.8-5.9-3.1-6.7-3.1-1.2 0 5.8-2 5.1-2.1-.7-.1-2.6-.1-5.2 0-5.8.1-.7-.8-1.4-1.9-1.7-1.4-.4-2-1.3-1.9-3.4.1-2.7.1-2.7.8-.4 1 3.8 3.1 3.8 3.3-.1l.1-3.3.4 3.3c.4 2.9.8 3.3 2.6 2.8zm1.4-2.4c-.3.7-.5.2-.5-1.2s.2-1.9.5-1.3c.2.7.2 1.9 0 2.5zm10-2.6c-.4.4-1.9.7-3.4.8-2.2.1-2.9.7-3.4 3.1-.6 2.9-.7 2.9-.8-.8l-.1-3.7h4.2c2.3 0 3.8.3 3.5.6zm-2 4.6c-.3.8-.6.5-.6-.6-.1-1.1.2-1.7.5-1.3.3.3.4 1.2.1 1.9zm-18 11.5c-.3 1-.5.2-.5-1.7s.2-2.7.5-1.8c.2 1 .2 2.6 0 3.5z"/><path d="M259 121.1c0 .5.9.9 1.9.9 1.1 0 2.2-.4 2.5-.9.3-.5-.6-.9-1.9-.9-1.4 0-2.5.4-2.5.9zM241.3 111.7c-.9.3-1.1 1.7-.7 4.3.6 3.5.4 3.9-1.7 4.3-1.6.3-1.1.5 1.5.6 3.3.1 3.7-.1 2.6-1.4-.7-.8-.8-1.5-.3-1.5.9 0 1.1-5.5.3-6.3-.3-.2-1.1-.2-1.7 0zM231 120.5c0 .8.7 1.1 2 .8 1.1-.3 2-.8 2-1.2 0-.4-.9-.7-2-.8-1.1-.1-2 .4-2 1.2zM264 141.9c0 1.8.6 2.1 4 2.1 3.6 0 4.3-.5 3.9-2.8-.1-.4-1.9-.8-4-1-3.4-.3-3.9-.1-3.9 1.7zM256.5 146c.4.6 1.1.8 1.6.5 1.4-.9 1.1-1.5-.7-1.5-.8 0-1.2.5-.9 1zM255.5 151c.3.5 1.2 1 2 1s1.7-.5 2-1c.4-.6-.5-1-2-1s-2.4.4-2 1zM264.3 150.7c.9.2 2.5.2 3.5 0 .9-.3.1-.5-1.8-.5-1.9 0-2.7.2-1.7.5zM142 209.9c0 .5-2.3 2.3-5 4-5.5 3.4-6.9 5.5-5.3 7.9 1.4 2.3 3.8 2.9 3 .8-.5-1.1.2-2.6 2-4.2 1.7-1.5 2.9-2.1 3.1-1.4.6 1.8-2.8 10.3-4.8 12-2.4 2-3.7 8-1.8 8 .8 0 1.9-.5 2.6-1.2.8-.8 1.2-.8 1.2-.1 0 1.6 5.8 2.3 10.8 1.4 5-1 4.8-.9 5.7-4.3.6-2.2.1-3.3-2.4-5.8-2.4-2.4-2.7-3.2-1.5-3.7 1.8-.7 4.4-5.5 4.4-8.3 0-3.2-2.6-5.2-6.3-4.9-1.8.2-3.8 0-4.5-.5-.6-.4-1.2-.3-1.2.3zm9 4.1c0 1.8-2.9 8-3.7 8.1-.4 0-2 .2-3.4.3l-2.6.2 1.4-4.3c.8-2.3 2.2-4.4 3.1-4.6 3.1-.8 5.2-.7 5.2.3zm-3.2 15.2c3 2.9 2.8 4.5-.9 5.3-3.8.9-9.2-1.2-8.4-3.2.3-.8.8-2.5 1.1-3.8.5-2.1.9-2.3 3.2-1.4 1.5.6 3.7 2 5 3.1zM186.2 211.3c-2 2.1-2.9 4.7-1.7 4.7.3 0 1.4-.6 2.6-1.3 1.8-1.1 2.4-.8 4.9 2.1l3 3.2-2.5 5.8c-1.4 3.1-3.4 6.4-4.5 7.4-3.9 3.3-1.4 5.5 3.2 2.9 1.9-1.1 2.6-2.2 2.2-3.3-.3-.9.3-3.3 1.4-5.4l1.8-3.6 1.7 4.3c.9 2.4 1.7 5.5 1.9 6.9.4 3.5 3 3.1 4-.5 1-3.9 8-14.9 7.3-11.5-.3 1.4-.9 4.7-1.5 7.3-1.2 5.4-.8 6.7 2.1 6.7 2 0 2.1-.2 2.4-8.7.3-6.5 3-14 5.7-15.4 1.9-1 1.9-1.1.1-2.4-1-.8-2.1-1.5-2.5-1.5-.4 0-3.9 4.6-7.8 10.1l-7 10.2-2.4-5.4c-1.8-4.1-2.1-6-1.4-7.8 1-2.7.4-5.1-1.2-5.1-.5 0-1 .9-1 2 0 2.6-.3 2.5-3.8-1-3.7-3.6-4.2-3.7-7-.7zM259.7 209.7c-.5.4-2.3.8-4 .8-2.7 0-3.7.8-6.3 4.7-3.5 5.2-5.9 13.5-5 17.2.4 1.6 1.9 2.9 4.6 4 4.8 1.9 7.6 1.1 11.3-3.3 4.2-5 8.6-19.1 6.9-21.8-1-1.6-6.4-2.7-7.5-1.6zm2.4 11.1c-1.2 4.2-3.4 8.3-5.4 10.7-3.2 3.7-3.6 3.9-6.1 2.7-2.1-.9-2.6-1.8-2.6-4.9 0-4.2 3.7-13 6.3-15.2 1.9-1.5 2.3-.1.6 1.6-.6.6-1 1.6-.8 2.2.2.6 2.4-.5 4.9-2.5 2.4-1.9 4.6-3 4.8-2.4.2.6-.5 4.1-1.7 7.8zM282.7 209.7c-.5.4-2.3.8-4 .8-2.7 0-3.7.8-6.3 4.7-3.5 5.2-5.9 13.5-5 17.2.8 3.1 7.5 6 10.9 4.7 3.6-1.4 7.4-6.5 9.8-13.3 1.9-5.1 2.4-5.7 3-3.9 1 2.6 2.9 2.8 2.9.2 0-2.1 1.5-3.5 4.6-4.5 2-.6 2-.2-1.3 8.5-3.4 9.2-3.8 11.9-1.6 12.6.7.3 1.6-1.3 2.3-3.9 1.7-6.6 1.8-6.8 3.4-6.2.8.3 3.3 3 5.6 6 4 5.3 6.5 6.5 8.8 4.2 1.8-1.8 1.4-3.7-.7-3.1-1.2.3-2.9-.8-5.5-3.8-2-2.3-3.6-4.8-3.6-5.4 0-.6 2.5-3.5 5.5-6.5 5.5-5.4 6.5-7.3 4.4-8.5-1.2-.8-4.9 2.2-4.9 4 0 2-3.9 6.4-7.1 8.1l-3 1.5 1.4-3.3c.8-1.8 2-4.5 2.7-6.1.7-1.5 1.1-3 .7-3.3-.8-.9-14.5 4.5-15.1 5.9-.3.7-.3.1-.1-1.3.3-1.4.2-3.1-.3-3.7-1-1.6-6.4-2.7-7.5-1.6zm2.4 11.1c-1.2 4.2-3.4 8.3-5.4 10.7-3.2 3.7-3.6 3.9-6.1 2.7-2.1-.9-2.6-1.8-2.6-4.9 0-4.2 3.7-13 6.3-15.2 1.9-1.5 2.3-.1.6 1.6-.6.6-1 1.6-.8 2.2.2.6 2.4-.5 4.9-2.5 2.4-1.9 4.6-3 4.8-2.4.2.6-.5 4.1-1.7 7.8zM176.5 211c-.3.5-1.2.7-1.9.4-.8-.3-1.7-.1-2 .5-.4.6-3.4 1.5-6.7 2.2-6.6 1.3-7.4 1.9-6.5 5.5.7 2.6 2.6 3.3 2.6.9 0-1.5 1.4-2.3 6.8-4 2.2-.6 2.3-.5 1.2 1.5-.6 1.2-2.9 3.9-5.1 6.1-2.1 2.1-3.9 4.3-3.9 4.8s-1.3 2.1-3 3.4c-3.7 3.1-4.1 6.3-.7 5.2 1.2-.3 3.2-.9 4.5-1.2 1.9-.4 2.2-1 1.8-2.9-.7-2.8 2.5-5.4 6.6-5.4 2.5 0 2.7.4 3 4.2.2 3.5.7 4.4 2.4 4.6 1.1.2 2.7-.4 3.4-1.3 1-1.2 1-1.5-.4-1.5-1.3 0-1.6-1-1.6-4.9 0-4.5 1.3-13.3 2.6-17.4.6-1.8-2-2.5-3.1-.7zm-2.3 9.7c-.4 3.7-.7 4.3-2.8 4.3-1.3 0-2.4-.2-2.4-.5 0-.7 5.2-8.6 5.5-8.3.1.2 0 2.2-.3 4.5z"/><path d="M229 211c0 .4-1.3 1.3-2.9 2-1.6.6-4.1 2.4-5.6 4-2.4 2.5-2.5 3-1.3 4.9 1.6 2.6 2.8 2.7 2.8.2 0-1.7 4.8-6.6 5.6-5.8.9.8-3.9 12.7-5.1 12.7-.7 0-1.5 1.4-1.9 3.1-.9 4.5-.8 4.7 1.7 4.8 14.3.5 16.1.3 17.4-1.5 2-2.7 1.6-5.8-1.2-8.4-2.5-2.4-2.5-2.4-.5-4.5 1.1-1.1 2.5-3.5 3.1-5.3 1.7-4.9-.8-7.3-7.3-7.1-2.6.1-4.8.5-4.8.9zm9 4.4c0 3.6-4 7.7-6.6 7-2-.5-2.1-.9-1.1-4.1 1.6-5.1 7.7-7.3 7.7-2.9zm-2.9 13.5c1.8 1.5 2.9 3.2 2.6 3.8-1.2 1.9-6.1 2.4-9.4 1.1-3.1-1.3-3.1-1.3-1.6-5 1.7-4.2 3.3-4.2 8.4.1z"/></svg>