<?xml version="1.0" standalone="no"?>
<!DOCTYPE svg PUBLIC "-//W3C//DTD SVG 1.1//EN" "http://www.w3.org/Graphics/SVG/1.1/DTD/svg11.dtd" >
<svg xmlns="http://www.w3.org/2000/svg" xmlns:xlink="http://www.w3.org/1999/xlink" version="1.1">
<metadata>
Created by FontForge 20160405 at Tue Jan 30 16:56:36 2018
 By www-data
Typeface (c) Galdino Otten. 2017. All Rights Reserved
</metadata>
<defs>
<font id="PiSheng" horiz-adv-x="1240" >
  <font-face 
    font-family="Pi Sheng"
    font-weight="400"
    font-stretch="normal"
    units-per-em="2048"
    panose-1="2 0 5 0 0 0 0 0 0 0"
    ascent="1638"
    descent="-410"
    x-height="847"
    cap-height="1383"
    bbox="-293.697 -558 2076 1716"
    underline-thickness="150"
    underline-position="-292"
    unicode-range="U+001D-F002"
  />
<missing-glyph 
d="M208 0v1434h824v-1434h-824zM258 50h724v1334h-724v-1334zM439 974v0q-3 9 -21.5 48.5t-43.5 84t-48 69.5q37 43 104 62t138.5 22t121.5 -0.5t53 -4.5q-1 0 -5 -0.5t-9 -0.5t-9 -0.5l-4 -0.5q0 -1 6 -5q21 -13 69 -49.5t93 -78.5t56 -75q9 -51 -42 -110t-124 -123
q-48 -42 -91 -86q-8 -9 -7.5 -32t3.5 -50t3 -49.5t-7 -31.5h-38.5h-26.5q-15 1 -54 1h-106h-10h-4h-3h-4q-3 -1 -9 -1q5 10 4.5 31.5t-3.5 47.5q-3 36 -3 68t13 47q35 34 73 69q71 64 133 132t87.5 139t-12.5 146q-2 4 -3 7q0 1 -1 1q-105 -44 -162.5 -96t-80.5 -100.5
t-26 -80.5zM720 341v0l-144 184l-186 -170l144 -184z" />
    <glyph glyph-name=".notdef" 
d="M208 0v1434h824v-1434h-824zM258 50h724v1334h-724v-1334zM439 974v0q-3 9 -21.5 48.5t-43.5 84t-48 69.5q37 43 104 62t138.5 22t121.5 -0.5t53 -4.5q-1 0 -5 -0.5t-9 -0.5t-9 -0.5l-4 -0.5q0 -1 6 -5q21 -13 69 -49.5t93 -78.5t56 -75q9 -51 -42 -110t-124 -123
q-48 -42 -91 -86q-8 -9 -7.5 -32t3.5 -50t3 -49.5t-7 -31.5h-38.5h-26.5q-15 1 -54 1h-106h-10h-4h-3h-4q-3 -1 -9 -1q5 10 4.5 31.5t-3.5 47.5q-3 36 -3 68t13 47q35 34 73 69q71 64 133 132t87.5 139t-12.5 146q-2 4 -3 7q0 1 -1 1q-105 -44 -162.5 -96t-80.5 -100.5
t-26 -80.5zM720 341v0l-144 184l-186 -170l144 -184z" />
    <glyph glyph-name=".null" horiz-adv-x="0" 
 />
    <glyph glyph-name=".null" horiz-adv-x="0" 
 />
    <glyph glyph-name="nonmarkingreturn" horiz-adv-x="508" 
 />
    <glyph glyph-name="space" unicode=" " horiz-adv-x="508" 
 />
    <glyph glyph-name="space" unicode="&#xa0;" horiz-adv-x="508" 
 />
    <glyph glyph-name="exclam" unicode="!" horiz-adv-x="469" 
d="M247 433v0l188 1061l-372 -124zM397 179v0l-152 195l-196 -181l152 -195z" />
    <glyph glyph-name="quotedbl" unicode="&#x22;" horiz-adv-x="457" 
d="M189 1544v0h-164l82 -417zM427 1544v0h-164l82 -417z" />
    <glyph glyph-name="numbersign" unicode="#" horiz-adv-x="1622" 
d="M1027 550v0l460 -27l-496 -65l-173 -443l78 430l-377 -49l-153 -391l69 380l-269 -36l-172 260l477 -27l42 234l-188 -25l-172 260l398 -23l50 273l303 83l-143 -368l236 -14l56 309l303 83l-157 -403l447 -26l-482 -64zM589 575v0l327 -19l58 320l-282 -37z" />
    <glyph glyph-name="dollar" unicode="$" horiz-adv-x="989" 
d="M549 868v0q52 -40 105 -79q122 -86 206.5 -167.5t69.5 -161.5q-13 -41 -72 -98t-123 -106t-91 -68q-7 -5 -8 -6q1 -1 6.5 -2.5t13.5 -3.5q7 -1 12 -2.5t6 -2.5q-1 -1 -41 -13.5t-106 -22.5l-11 -330l-20 327q-102 -11 -223.5 25t-227.5 160q37 37 91 88q41 38 72.5 69
t35.5 40q7 -51 59.5 -126.5t185.5 -146.5l-17 262q-64 58 -133 116q-83 69 -155 136.5t-113 131.5t-30 122q11 42 69.5 98.5t122 105t90.5 67.5q8 6 9 6q-1 1 -6.5 1h-12.5h-12.5h-6.5q2 1 36.5 6t90.5 9l-6 96l156 171l-8 -264q90 -1 173 -20.5t131 -67.5q-30 -33 -61 -91
t-53.5 -109t-25.5 -62q-7 42 -43.5 103.5t-124.5 124.5zM338 1274v0q-42 -86 -8 -165t113 -152l-19 298q-38 16 -82 30l-1 -1q-2 -5 -3 -10zM633 195v0q24 56 -5 118t-92 128l-7 -220q45 -20 100 -37l1 1q2 5 3 10z" />
    <glyph glyph-name="percent" unicode="%" horiz-adv-x="1199" 
d="M1162 1296v0l-1152 -1338l923 1302zM372 1411v0q107 -53 155.5 -152t19.5 -216q-27 -96 -98 -164v-1l-182 -181q-109 52 -158.5 152.5t-19.5 218.5q19 68 62 122zM438 917v0q18 104 -36.5 195t-155.5 113q-19 3 -38 4q-6 -18 -10 -37q-19 -104 35 -195.5t155 -113.5
q20 -4 39 -4q7 18 11 38zM984 781v0q107 -53 155.5 -152t19.5 -216q-27 -96 -98 -164v-1l-182 -181q-109 52 -158.5 152.5t-19.5 218.5q19 68 62 122zM1050 287v0q18 104 -36.5 195t-155.5 113q-19 3 -38 4q-6 -18 -10 -37q-19 -104 35 -195.5t155 -113.5q20 -4 39 -4
q7 18 11 38z" />
    <glyph glyph-name="ampersand" unicode="&#x26;" horiz-adv-x="1233" 
d="M1221 244v0l-318 -321l-113 168q-133 -76 -276.5 -83t-269.5 47q-141 64 -183 146t-16.5 168t85.5 162.5t122 128.5t93 67l-11 26.5t-26 60.5q-8 18 -22.5 52.5t-25.5 71.5t-10 61q3 70 36 142.5t102 114.5t183 19q161 -41 230.5 -123.5t72.5 -166t-36 -127.5
q-7 -8 -30 -36t-51 -62t-49 -60l-21 -26l6 -8l217 -203q67 64 131.5 109.5t107.5 69.5l43 24l-35 -38.5t-81.5 -101.5t-83.5 -140zM553 1201v0q-83 27 -103.5 -0.5t-0.5 -85t57.5 -121t69.5 -109l32 -45.5q49 41 85 108t13 136t-153 117zM466 256v0q49 -15 82 -11.5t92 37.5
l-261 381q-44 -71 -61.5 -154t13.5 -152.5t135 -100.5z" />
    <glyph glyph-name="quotesingle" unicode="'" horiz-adv-x="239" 
d="M208 1543v0h-164l82 -417z" />
    <glyph glyph-name="parenleft" unicode="(" horiz-adv-x="832" 
d="M636 -370q-246 189 -386.5 441.5t-143.5 529.5q3 277 143.5 530t386.5 442h115q-248 -242 -331 -438q-82 -193 -82 -523v-22q0 -330 82 -522q83 -196 331 -438h-115z" />
    <glyph glyph-name="parenright" unicode=")" horiz-adv-x="878" 
d="M188 -370h-115q248 242 331 438q82 192 82 522v22q0 330 -82 523q-83 196 -331 438h115q246 -189 386.5 -442t143.5 -530q-3 -277 -143.5 -529.5t-386.5 -441.5z" />
    <glyph glyph-name="asterisk" unicode="*" horiz-adv-x="708" 
d="M23 1267v0l279 -2l-216 -125l153 -185l119 281l27 -279l232 140l-209 165l245 -50l-27 269l-254 -164l148 242h-299l61 -214l-162 140z" />
    <glyph glyph-name="plus" unicode="+" horiz-adv-x="798" 
d="M743 620v0v200l-326 -100zM73 820v0v-200l326 100zM508 1055v0h-200l100 -326zM308 385v0h200l-100 326z" />
    <glyph glyph-name="comma" unicode="," horiz-adv-x="384" 
d="M215 257v0l25 -29t50 -79t29.5 -115.5t-32.5 -139.5t-138 -151l2 14q39 63 39 136q0 74 -40.5 138t-110.5 110z" />
    <glyph glyph-name="hyphen" unicode="-" horiz-adv-x="436" 
d="M393 389v0v200l-417 -100z" />
    <glyph glyph-name="hyphen" unicode="&#xad;" horiz-adv-x="436" 
d="M393 389v0v200l-417 -100z" />
    <glyph glyph-name="period" unicode="." horiz-adv-x="469" 
d="M419 179v0l-152 195l-196 -181l152 -195z" />
    <glyph glyph-name="slash" unicode="/" horiz-adv-x="566" 
d="M-32 -50l541 1484h190z" />
    <glyph glyph-name="zero" unicode="0" horiz-adv-x="982" 
d="M405 1326v0q222 -24 365 -165t156 -364q6 -184 -83 -350v0l-223 -434q-226 22 -371 165t-157 369q-4 130 42 253zM871 543v0q-8 140 -90 245.5t-213.5 151.5t-287.5 9q-44 -12 -86 -28q-5 -39 -4 -78q6 -141 87.5 -247t212.5 -153.5t287 -10.5q46 12 90 29q5 40 4 82z
" />
    <glyph glyph-name="one" unicode="1" horiz-adv-x="668" 
d="M594 22v0l-479 111l216 903q-84 -104 -188 -111q-50 48 -118 103q61 7 123 25q114 36 188 94.5t98 128.5z" />
    <glyph glyph-name="two" unicode="2" horiz-adv-x="1199" 
d="M1159 1004v0q7 -44 -70.5 -128t-203.5 -190.5t-262 -215.5q-175 -139 -300 -250l786 148l-32 -394l-1160 170l119 22q79 86 198 202q115 113 235.5 238.5t217 251t139.5 235.5t2 190q-3 6 -5 11v1q-154 -63 -237 -136.5t-116.5 -141.5t-38.5 -114q-4 13 -30.5 68.5
t-63 118.5t-70.5 98q54 61 166 91t235.5 39t211 7t92.5 -3q-2 -1 -23 -4.5t-48 -7.5q-28 -5 -49 -8.5t-23 -3.5q1 -1 10 -7q30 -20 101.5 -71t137.5 -110.5t81 -105.5z" />
    <glyph glyph-name="three" unicode="3" horiz-adv-x="1205" 
d="M995 616v0q130 -118 93 -290.5t-218 -343.5l-574 60q-119 26 -198 92q-33 28 -55 60l20 2q93 -5 175 40q48 24 88 58q-14 -124 64 -209q20 -20 43 -35q37 19 73 41q90 59 156.5 153t88.5 188t-20.5 154t-168.5 52q16 32 18 68q1 21 -2 40q32 -1 62.5 -2t51 -1t21.5 1
q60 66 72.5 152.5t-37 170t-175.5 141.5q-36 16 -74 28q-9 -5 -44 -37.5t-74 -79t-60 -96.5q-41 25 -89 41q-84 31 -173 19q-9 1 -19 0q19 29 48 55q10 9 23 22q33 37 92.5 76.5t165.5 55.5l546 38q78 -84 122.5 -176.5t38 -181.5t-82.5 -161q-76 -67 -200 -100
q122 -27 202 -95z" />
    <glyph glyph-name="four" unicode="4" horiz-adv-x="1112" 
d="M1143 739v0l-69 -320h-151l44 -302l-360 -139l83 441h-683l920 1117l-503 -1000l304 86l93 490l65 -445z" />
    <glyph glyph-name="five" unicode="5" horiz-adv-x="975" 
d="M372 858v0q87 17 177.5 12.5t168 -46.5t127.5 -137q68 -143 35 -256.5t-124 -198t-196 -140t-183.5 -83l-78.5 -27.5l-185 231q66 16 134 47q174 82 259.5 200.5t45.5 219.5q-15 28 -70.5 48t-124.5 33l-322 21l215 359l-128 15l156 31l106 177l-4 -157l546 109l-41 -252
l-507 61z" />
    <glyph glyph-name="six" unicode="6" horiz-adv-x="1142" 
d="M430 861v0q113 47 218 45.5t152 -16.5q170 -55 236 -172t60.5 -240t-51.5 -196q-28 -41 -90 -89.5t-132 -94t-121.5 -75l-51.5 -29.5q1 0 1 1l1 1l-50 3t-125 21.5t-155 64t-143 128.5q-75 104 -81.5 258.5t63.5 330.5t224 345q12 13 47 47.5t68 64.5q30 28 60 54.5
t50.5 45l20.5 18.5q50 -75 172.5 -158t242.5 -134q-211 -3 -364 -70q-41 70 -114 116q-48 36 -104 55q-35 -163 -34 -325zM652 -4v0q33 56 72.5 167.5t56 241.5t-19.5 241t-153 166q-107 44 -141.5 -14t-20 -174t55 -248.5t84 -238t66.5 -141.5z" />
    <glyph glyph-name="seven" unicode="7" horiz-adv-x="1046" 
d="M930 1261v0l-135 -470l223 45l-41 -252l-234 28l-177 -616l-448 76l115 172t267 397l-286 35l357 71q119 176 214 315t133 191l-284 -180q-93 -57 -202 -61t-208 45l-242 125l265 234l103 -98q79 -75 189.5 -96.5t220.5 15.5l300 106z" />
    <glyph glyph-name="eight" unicode="8" horiz-adv-x="1171" 
d="M1023 535v0q45 -59 60 -150t-13 -184t-111 -159q-45 -29 -173 -38t-252 -6t-159 12q-167 54 -227.5 154.5t-49 201.5t60.5 159q33 36 108 77.5t153 77.5q-112 31 -200 110q-45 45 -62.5 114t4.5 141t97 123q41 23 160 31.5t235 8t149 -7.5q158 -39 218 -115t53.5 -153.5
t-49.5 -122.5q-28 -27 -94 -59t-136 -60q62 -22 121.5 -60t106.5 -95zM624 1157v0q-99 29 -144 -21.5t-34.5 -137t77 -168t189.5 -114.5q41 69 64 156.5t-7 165.5t-145 119zM569 63v0q108 -41 149 32t25.5 195.5t-77 230t-157.5 136.5q-50 -88 -83 -205t-7.5 -224
t150.5 -165z" />
    <glyph glyph-name="nine" unicode="9" horiz-adv-x="1137" 
d="M766 517v0q-113 -46 -218 -44.5t-152 16.5q-170 53 -236 167.5t-60 234.5t52 192q27 39 89.5 87t132.5 92.5t121 73.5l51 29q-1 -1 -1 -2h-1l50 -3t125 -21.5t155 -63t143 -125.5q76 -102 82 -252.5t-64 -322.5t-224 -337q-12 -13 -47 -47t-67 -64q-30 -26 -60.5 -52.5
t-51 -44l-20.5 -17.5q-50 73 -172 154t-243 131q211 3 364 68q41 -68 114 -113q48 -35 104 -54q35 159 34 318zM544 1362v0q-33 -55 -72.5 -164t-56 -236t19.5 -235.5t154 -162.5q106 -42 140.5 14.5t20 170t-55 243t-84 232.5t-66.5 138z" />
    <glyph glyph-name="colon" unicode=":" horiz-adv-x="441" 
d="M472 179v0l-152 195l-196 -181l152 -195zM472 890v0l-152 195l-196 -181l152 -195z" />
    <glyph glyph-name="semicolon" unicode=";" horiz-adv-x="390" 
d="M349 257v0l25 -29t50 -79t29.5 -115.5t-32.5 -139.5t-138 -151l2 14q39 63 39 136q0 74 -40.5 138t-110.5 110zM452 829v0l-152 195l-196 -181l152 -195z" />
    <glyph glyph-name="semicolon" unicode="&#x37e;" horiz-adv-x="390" 
d="M349 257v0l25 -29t50 -79t29.5 -115.5t-32.5 -139.5t-138 -151l2 14q39 63 39 136q0 74 -40.5 138t-110.5 110zM452 829v0l-152 195l-196 -181l152 -195z" />
    <glyph glyph-name="less" unicode="&#x3c;" horiz-adv-x="956" 
d="M-36 707v0l864 -492l52 288l-796 192l760 172l52 372z" />
    <glyph glyph-name="equal" unicode="=" horiz-adv-x="878" 
d="M821 771v0v200l-767 -100zM821 455v0v200l-767 -100z" />
    <glyph glyph-name="greater" unicode="&#x3e;" horiz-adv-x="987" 
d="M995 707l-932 532l52 -372l760 -172l-796 -192l52 -288l864 492v0z" />
    <glyph glyph-name="question" unicode="?" horiz-adv-x="683" 
d="M154 970v0q-4 12 -23 65.5t-45.5 114t-50.5 93.5q38 59 108.5 84.5t146 30t128.5 0t56 -6.5q-1 0 -5 -0.5t-9 -1.5q-6 0 -10 -0.5t-5 -0.5q1 -1 7 -6q22 -19 72.5 -68t98 -106t58.5 -101q10 -69 -43.5 -149t-130.5 -166q-51 -58 -96 -116q-8 -12 -8 -43.5t3 -68.5
t3.5 -67.5t-7.5 -41.5q-25 -1 -40 -0.5t-28 0.5q-138 33 -199 107q-4 48 -3.5 91.5t14.5 63.5q36 46 76 94q75 86 140.5 178t92 188.5t-13.5 197.5q-1 5 -3 9v2q-112 -60 -172.5 -130.5t-84.5 -136t-27 -109.5zM479 179v0l-152 195l-196 -181l152 -195z" />
    <glyph glyph-name="at" unicode="@" horiz-adv-x="1597" 
d="M875 1470v0q272 -17 415 -116.5t193.5 -231.5t45.5 -246t-29 -159q-40 -82 -123 -153t-195.5 -101.5t-244.5 9.5q-59 22 -67 82l-4 -10l-3 23l-71 -96l-46 14.5t-108.5 45.5t-116 81t-73 120t21.5 163q35 71 91 99t119 28t118 -13l-3 20l35 9t80.5 20t82 19.5t43.5 8.5
q2 -3 -11 -49.5t-36 -117.5q-10 -39 -18.5 -102.5t0 -123.5t49.5 -87q56 -29 128 -10t135.5 72.5t94.5 126.5q28 80 14 150.5t-45.5 124.5t-54.5 84q-3 3 -5 6q-63 87 -173 138t-263 51q-167 0 -313.5 -76t-232.5 -214t-79 -328q12 -181 94 -285.5t201 -150.5t241.5 -53.5
t215 5t121.5 27.5l191 -364q-282 -1 -489.5 44t-350 124t-228.5 182t-124 219.5t-38 233.5q0 202 101 379.5t283.5 281.5t430.5 96zM823 647v0q15 -6 30 -11l-49 332q-51 -10 -99 -27.5t-61 -40.5q-24 -65 26.5 -136t152.5 -117z" />
    <glyph glyph-name="A" unicode="A" horiz-adv-x="1359" 
d="M1370 -187v0l-429 716l-318 -77l-17 -469l-545 73q3 8 43 89t102 207l-88 -21l-63 305l296 8q169 340 263 529l-81 181l75 -36t172.5 -81t174 -78.5t87.5 -31.5q6 -2 101 -462l212 -1l-182 -84zM630 652v0l212 6l-196 442z" />
    <glyph glyph-name="B" unicode="B" horiz-adv-x="1296" 
d="M842 767v0q69 -38 149.5 -99.5t137 -143.5t53.5 -178.5t-103 -203.5q-81 -82 -177.5 -104t-192.5 -5.5t-177 49.5q-67 -31 -159.5 -73.5t-169.5 -76t-87 -33.5q-8 0 9.5 132t47.5 326.5t63 395t57 347.5q-12 1 -25 1q-71 0 -134 -12l68 256l78 7t190 1t223 -41
t183.5 -115t70.5 -222q-10 -136 -105 -208zM692 873v0q0 80 -90.5 140.5t-232.5 80.5l96 -418q47 28 99 63t90 71t38 63zM803 189v0q66 79 16 191t-192 205q-56 36 -115 59l2 1q-21 -3 -40 -5l113 -494q72 2 132.5 11t83.5 32z" />
    <glyph glyph-name="C" unicode="C" horiz-adv-x="1475" 
d="M1059 349v0l316 11v0q0 -7 -23.5 -54.5t-82.5 -110t-166.5 -113t-276.5 -63.5q77 83 135 160.5t98 169.5zM723 1240v0q-48 -82 -91 -220t-52.5 -308t42.5 -348t193 -341q-320 128 -482.5 284t-209.5 317t-20 302zM981 1385v0q48 -75 165 -172.5t223 -147.5
q-71 -6 -147 -44t-140 -79q-33 -20 -58 -34q-16 27 -75 104t-120.5 149t-87.5 82z" />
    <glyph glyph-name="D" unicode="D" horiz-adv-x="1224" 
d="M1120 708v0q0 -177 -96 -326.5t-259 -247.5t-370 -127l-11 -80l-11 78q-55 -6 -112 -6q-28 0 -56 1q86 4 166 24l-143 1034q-25 1 -49 1h-8h-3q5 36 4 73q-9 66 -18 131q-20 73 -60 135l-1 6q82 14 168 14q237 0 432 -96t311 -257t116 -357zM398 32v0q189 58 307 192
t118 306q0 140 -80 256t-215 188q-33 -245 -70.5 -514t-59.5 -428z" />
    <glyph glyph-name="E" unicode="E" horiz-adv-x="1341" 
d="M1262 -2v0l-1191 96l292 82l49 399l-48 4l52 30l41 331q-138 -41 -276 -107l-42 -11l20 14q36 28 119.5 87t192.5 130l36 296l35 -251q110 70 216.5 125.5t187.5 77.5q107 28 204 39q0 -2 -1 -4q0 -5 -1 -10q-10 -127 -19 -253q2 -41 6 -80q-270 45 -575 -25l36 -254
l349 203l87 -389l-415 32l42 -302l533 149q-16 -68 -8 -152q14 -132 78 -257z" />
    <glyph glyph-name="F" unicode="F" horiz-adv-x="1125" 
d="M1071 1409v0q0 -1 -1 -3l-2 -10q-10 -120 -20 -239q2 -39 6 -76q-295 43 -629 -24l42 -254l362 117l113 -278l-452 19l78 -483l-401 -168l94 660l-182 8l192 62l41 291q-150 -39 -302 -101l-45 -10l21 13q40 26 131.5 82t209.5 123l40 280l38 -237q121 65 237.5 118
t205.5 74q117 26 223 36z" />
    <glyph glyph-name="G" unicode="G" horiz-adv-x="1564" 
d="M1109 445v0l-150 252l484 -8l-18 -776l-142 238q-71 -57 -191 -96.5t-299 -36.5q114 45 176.5 115.5t92.5 151.5t47 160zM805 1283v0q-52 -81 -104.5 -220t-76.5 -313.5t8 -361.5t149 -365q-286 156 -423.5 329.5t-167 342.5t8.5 312zM1086 1410v0q45 -81 164.5 -192.5
t231.5 -171.5q-78 0 -165 -32.5t-161 -68.5q-37 -18 -66 -30q-16 29 -73 114t-118.5 164.5t-88.5 91.5z" />
    <glyph glyph-name="H" unicode="H" horiz-adv-x="1435" 
d="M1086 -65v0l-136 698l-418 -91l-46 -607l-111 574l-258 -56l132 416l57 -6l-91 470h377l-38 -499l365 -41l-104 540h376l-42 -566l276 -32l-283 -61z" />
    <glyph glyph-name="I" unicode="I" horiz-adv-x="489" 
d="M52 1239v0l276 -1219l120 1363z" />
    <glyph glyph-name="J" unicode="J" horiz-adv-x="1225" 
d="M913 177v0l-19 -216l-49 165l-95 -70q-93 -67 -202 -72t-208 53l-242 146l265 274l103 -115q68 -75 160 -104.5t189 -9.5l-263 896l453 105l-84 -963l255 105z" />
    <glyph glyph-name="K" unicode="K" horiz-adv-x="1256" 
d="M729 -115l-189 782l-181 -128l-83 -708l-188 1258l384 155l-95 -591l319 483l472 -24l-587 -416l556 -487z" />
    <glyph glyph-name="L" unicode="L" horiz-adv-x="1150" 
d="M414 151v0l-11 -136l-39 143l-233 37q12 3 68.5 15.5t141.5 32.5l-250 924q9 3 70.5 16t139.5 28.5t138 27.5l60 12l-77 -990q134 30 270.5 60.5t231.5 52l95 21.5l36 -344z" />
    <glyph glyph-name="M" unicode="M" horiz-adv-x="1642" 
d="M1277 811v0q61 -142 123.5 -289.5t105.5 -251.5l43 -104l-41.5 -23.5t-95.5 -55t-96.5 -57.5t-50.5 -33q-4 0 -16.5 99.5t-29.5 252.5t-34 313q-96 -154 -184 -295.5t-146 -233.5l-58 -92l-60.5 117t-148.5 287.5t-177 340.5l3 -758l-45 15.5t-105 35t-110.5 35
t-64.5 16.5q-8 6 29 141.5t94.5 325.5t110.5 360q-54 104 -87 203t-35 103l480 -74l120 -1040l284 1048h61.5h143h145h74.5q4 0 -63.5 -111.5t-168.5 -274.5z" />
    <glyph glyph-name="N" unicode="N" horiz-adv-x="1325" 
d="M872 29l-473 731l140 -755q-68 0 -114.5 11t-108 25.5t-113 25t-65.5 9.5q-8 6 16.5 144.5t64 333t76.5 368.5q-63 99 -105 194.5t-44 98.5l425 -35l295 -1043l1 1078l41.5 3.5t122.5 11t144.5 13.5t74.5 7q3 0 -187.5 -610.5z" />
    <glyph glyph-name="O" unicode="O" horiz-adv-x="1491" 
d="M429 1258v0q2 1 22.5 2t48 2t47.5 1h22q277 6 444.5 -70t249 -200t101 -261.5t0.5 -253.5q-54 -40 -106 -82q-200 -160 -365 -352q99 210 118 417q4 27 -5 111t-54 200t-149 239.5t-290 228.5q-2 -5 -8 -94.5t0.5 -232t41.5 -305t115.5 -313.5t221.5 -258
q-292 40 -462 150.5t-246.5 254.5t-87.5 284q150 149 282 323q22 28 50.5 70.5t52.5 78.5q27 40 32 46q-1 1 -12.5 3t-25.5 4t-25.5 4t-12.5 3z" />
    <glyph glyph-name="P" unicode="P" horiz-adv-x="1147" 
d="M117 1325v0l96.5 9t236 3.5t278 -45t229.5 -133t89 -260.5q-9 -134 -99.5 -209.5t-216.5 -109t-240 -42.5l68 -330l-58.5 -30.5t-134.5 -70t-138.5 -70t-70.5 -30.5t15 180.5t57 420t64 438.5q-28 -1 -50.5 -4t-50.5 -9zM482 579v0q126 32 201 103t70 159
q-12 98 -115 157.5t-254 57.5z" />
    <glyph glyph-name="Q" unicode="Q" horiz-adv-x="1485" 
d="M1256 351v0q-157 -126 -292 -271q140 -127 303 -204q-33 -24 -64 -49q-63 -48 -116 -105q-64 52 -126 121q-49 58 -97 152q-285 42 -451 152t-241 253t-86 282q150 148 282 322q22 29 50.5 71t52.5 78q27 40 32 47q-1 0 -12.5 2t-25.5 4q-14 3 -25.5 5t-12.5 2q2 2 23 3
t48 1.5t47 0.5h22q277 7 444.5 -69.5t249 -200.5t101 -261.5t0.5 -253.5q-54 -40 -106 -82zM1009 416v0q4 27 -5 111.5t-54 200.5t-149 239t-290 228q-1 -5 -7 -91t-0.5 -224t37.5 -297t107 -309t207 -261q-56 115 -97 223t-55 151l-5 15l20 -23q93 -154 218 -274
q58 157 73 311z" />
    <glyph glyph-name="R" unicode="R" horiz-adv-x="1257" 
d="M1152 128l-327 -209l-215 613q-29 -7 -124 -15l72 -353l-58.5 -30.5t-134.5 -69.5t-138.5 -69.5t-70.5 -30.5t15.5 187t59 432.5t64.5 443.5h-1l-1 -1q-28 0 -50.5 -3.5t-51.5 -9.5l-74 292l96.5 9t236 3.5t278 -45t229.5 -133t89 -260.5q-9 -131 -96.5 -206t-210.5 -110
zM379 1036v0l98 -478q128 31 204.5 102.5t71.5 160.5q-12 99 -116.5 158.5t-257.5 56.5z" />
    <glyph glyph-name="S" unicode="S" horiz-adv-x="1186" 
d="M470 1300v0q-55 -100 -15 -195t134.5 -186t203.5 -177q132 -103 221 -198.5t68 -184.5q-17 -45 -86.5 -104.5t-143 -110.5t-104.5 -71q-9 -5 -11 -6q1 -1 7.5 -3t14.5 -4q8 -3 14 -5t7 -2q-3 -3 -73 -19t-178 -14t-225.5 52.5t-215.5 178.5q43 40 107 93q48 41 84.5 73.5
t41.5 42.5q5 -46 40 -113.5t122 -141t248 -136.5v2q2 5 5 10q33 69 -6 149t-120.5 166.5t-176.5 174.5q-88 81 -164.5 160.5t-118.5 153t-26 137.5q15 46 83.5 105.5t142 110t104.5 69.5q9 6 10 7q-1 0 -7 0.5t-14 0.5q-8 1 -14 1.5t-7 0.5q4 2 80.5 6.5t185 0t210.5 -31
t157 -87.5q-35 -34 -73 -97t-65.5 -118.5t-32.5 -67.5q-5 45 -40 113t-122 141t-247 136q-1 -1 -1 -2z" />
    <glyph glyph-name="T" unicode="T" horiz-adv-x="1274" 
d="M1253 1060v0l-590 -115l206 -925l-496 80l21.5 130t52.5 316t62 369l-408 -79v432l455 -82q20 112 25 130l31 -141z" />
    <glyph glyph-name="U" unicode="U" horiz-adv-x="1348" 
d="M993 229v0q-30 -159 -37 -182l-31 163l-729 -209l3.5 51t8.5 117.5t10.5 121t9.5 66.5l158 -6l-287 891l449 -27l-11 -150t-26.5 -350.5t-29.5 -367.5l421 -17l-175 931l443 -86l-26.5 -142.5t-62.5 -337.5t-69 -369l281 -11z" />
    <glyph glyph-name="V" unicode="V" horiz-adv-x="1355" 
d="M633 12v0l-588 1187l416 32l26.5 -179t60.5 -412t59.5 -416.5t25.5 -211.5zM635 3v0l290 1212l412 68l-102.5 -190t-236 -436t-239.5 -438t-124 -216z" />
    <glyph glyph-name="W" unicode="W" horiz-adv-x="1710" 
d="M1673 1319v0l-81.5 -151t-195.5 -361.5t-222 -406.5l53 -108l-275 -314l-24.5 126t-61.5 315.5t-76 390.5q-183 -337 -325 -594q16 -147 25 -242.5t8 -109.5l-455 1160l299 291l16.5 -143.5t40 -353.5t47.5 -423l203 848l412 68l-49 -90.5t-125 -231.5l209 -427l165 689z
" />
    <glyph glyph-name="X" unicode="X" horiz-adv-x="1511" 
d="M1449 52v0l-505 -60l-243 503l-569 -524l444 699l-532 567l507 -28l130 -374l299 469l468 -123l-634 -583z" />
    <glyph glyph-name="Y" unicode="Y" horiz-adv-x="1298" 
d="M1237 1135v0q-328 -171 -561 -510l159 -782h-0.5t-1.5 1q-92 68 -211 126q-102 49 -200 80l86 551q-161 371 -475 585l382 58q32 -45 82 -132.5t91 -198.5q12 -34 19 -78l8 -23q37 112 81 185q83 131 166.5 223t116.5 120z" />
    <glyph glyph-name="Z" unicode="Z" horiz-adv-x="1206" 
d="M1066 422v0l38 -359l-852 20l-72 -86l-140 412l973 675l-752 -278l-20 367l802 -68l121 84l-881 -1067z" />
    <glyph glyph-name="bracketleft" unicode="[" 
d="M907 1108v0l-229 39l-129 -1073l358 62v-200l-367 63l-14 -122l-11 126l-188 33l182 31l-97 1126l-85 15l83 14l-10 119l300 -12l-7 -58l214 37v-200z" />
    <glyph glyph-name="backslash" unicode="\" horiz-adv-x="740" 
d="M728 -50l-731 1484h190z" />
    <glyph glyph-name="bracketright" unicode="]" 
d="M327 1108v200l214 -37l-7 58l300 12l-10 -119l83 -14l-85 -15l-97 -1126l182 -31l-188 -33l-11 -126l-14 122l-367 -63v200l358 -62l-129 1073l-229 -39v0z" />
    <glyph glyph-name="asciicircum" unicode="^" 
d="M562 1119v0l-349 -359l204 -22l136 331l122 -316l264 -21z" />
    <glyph glyph-name="underscore" unicode="_" 
d="M108 -55l1024 -105h-1024v105z" />
    <glyph glyph-name="grave" unicode="`" 
d="M564 1259l217 -260h-69l-330 238q-15 11 -26 22h208z" />
    <glyph glyph-name="a" unicode="a" horiz-adv-x="996" 
d="M883 958v0q6 -3 9 -106t4.5 -256t2 -306.5t0 -259l-0.5 -105.5l-140 275l-257 -288q-330 254 -384 355t-23 257q35 143 134 206.5t216 76t205 1.5q48 33 99.5 66.5t89.5 57.5t45 26zM736 250l-184 490q-69 -33 -126.5 -72.5t-66.5 -75.5q-15 -107 87.5 -198.5
t289.5 -143.5z" />
    <glyph glyph-name="b" unicode="b" horiz-adv-x="1044" 
d="M941 460v0q12 -159 -53 -252.5t-170.5 -139t-213.5 -58.5t-184 -10l-76 3l-84 282q54 -7 112 -6q-37 172 -80 377.5t-72 356.5t-24 159q10 -1 66.5 -23.5t127 -52.5t124.5 -53l54 -23l-31 -212q89 -1 200.5 -28t199 -101.5t104.5 -218.5zM359 288v0q148 26 239.5 100.5
t89.5 171.5q-5 33 -49 74t-102 80t-105 65z" />
    <glyph glyph-name="c" unicode="c" horiz-adv-x="1060" 
d="M683 321v0l319 19q1 1 -8 -33t-35 -84.5t-74 -100.5t-123.5 -82t-184.5 -28q59 48 81.5 131t24.5 178zM502 842v0q-45 -66 -73.5 -208t-1.5 -311t148 -318q-210 34 -316.5 106t-141 162t-28.5 178t22 154q0 4 1 8zM733 920v0q33 -49 98 -107t143 -95q-46 1 -96 -21.5
t-95 -49.5q-46 -28 -78 -40q-12 17 -53.5 69.5t-85.5 101.5t-64 57z" />
    <glyph glyph-name="d" unicode="d" horiz-adv-x="981" 
d="M789 296v0q59 5 111 19l-49 -291l-75.5 -12t-185 -12t-220 32.5t-187 117.5t-83.5 244q0 145 78.5 229.5t186 125t196.5 52.5l-57 206l51 29.5t118 67.5t120.5 67.5t63.5 31.5q6 -7 -4.5 -160.5t-28.5 -362.5t-35 -384zM341 524v0q9 -97 109.5 -160t251.5 -70l-133 478
q-43 -32 -96.5 -77.5t-92.5 -91.5t-39 -79z" />
    <glyph glyph-name="e" unicode="e" horiz-adv-x="1301" 
d="M717 329v0l321 19q1 1 -10.5 -33t-40 -84.5t-79.5 -100.5t-128.5 -82t-186.5 -28q63 48 90 131t34 178zM1200 485v0l-743 -98q4 -97 35.5 -193t98.5 -181q-243 41 -344.5 132t-113.5 199l-164 -21l160 60q-3 65 8.5 124t23.5 106l2 8l403 229q-3 -4 -6 -9l230 83
q25 -42 77 -107t333 -332zM558 837v0q-33 -50 -61 -136.5t-38 -194.5l241 91q-5 9 -11 20q-20 39 -45 87t-48.5 86t-37.5 47z" />
    <glyph glyph-name="f" unicode="f" horiz-adv-x="692" 
d="M674 1427v0q31 -52 98 -131.5t145 -119.5q-51 1 -117 -24t-124 -52q-47 -22 -75 -32q-8 12 -28 52q-29 59 -67 127.5t-61 90.5l-38 -395l156 45l8 -214l-179 12l-79 -842l-138 857l-207 14l195 57l-54 340l336 136z" />
    <glyph glyph-name="g" unicode="g" horiz-adv-x="1340" 
d="M969 884v0q51 -26 134.5 -41.5t167.5 -4.5q-39 -26 -69.5 -77t-54.5 -103q-24 -53 -45 -84q-21 10 -89 37q29 -135 15.5 -288.5t-92 -311t-244.5 -302.5l20 -8l-297 -105q-85 161 -313 291q209 -21 364 28q38 -75 109 -131q47 -42 102 -68q41 162 46 327q-73 -15 -162 8
q0 -1 1 -1v-1q-207 37 -309.5 115t-132 175t-18.5 192.5t31 167.5l2 8l403 248q-1 0 -1 -1q-1 0 -1 -1l339 -204zM543 77v0q56 34 97 99t72 144q-24 208 -74 374.5t-102 258.5q-47 -71 -82.5 -218t-22.5 -323t112 -335z" />
    <glyph glyph-name="h" unicode="h" horiz-adv-x="1074" 
d="M621 872v0q169 -35 249 -107t99 -160.5t5.5 -175.5t-32.5 -153q-1 -4 -2 -7l-354 -233q44 66 81.5 205t33 305t-87.5 315q-66 -84 -113.5 -162t-77.5 -168l-19 -3q-14 -220 -25.5 -377l-11.5 -157l-125 512l-132 -18q-1 6 18.5 56.5t75.5 118.5l-110 450l51 34.5
t117 78.5t119.5 77.5t63.5 36.5q6 -6 -1 -156.5t-21 -366.5q79 34 185 53q0 1 -1 2t-2 3q9 -2 17 -3v0h1v0h-1zM109 488v0q-1 -1 -1 0h1z" />
    <glyph glyph-name="i" unicode="i" horiz-adv-x="570" 
d="M290 37v0l188 960l-372 -112zM517 1247v0l-196 232l-254 -214l196 -232z" />
    <glyph glyph-name="j" unicode="j" horiz-adv-x="592" 
d="M102 -364v0q-120 106 -340 133q168 59 270 158q55 -50 129 -72q66 -24 134 -20zM294 -154v0l208 1168l-372 -112zM519 1228v0l-196 232l-253 -214l196 -232z" />
    <glyph glyph-name="k" unicode="k" horiz-adv-x="1118" 
d="M1046 1100l-566 -552l587 -433l-398 -92l-305 497l-92 -732l-184 1318l372 174l-85 -679l1 -1q64 82 163 266l99 184z" />
    <glyph glyph-name="l" unicode="l" horiz-adv-x="492" 
d="M252 -29v0l188 1293l-372 -151z" />
    <glyph glyph-name="m" unicode="m" horiz-adv-x="1664" 
d="M62 417v0v0v0zM1108 784v0q197 6 298 -65t134 -182t28.5 -225.5t-17.5 -196.5q-4 -30 -6 -52l-320 -112q32 68 47 214.5t-15.5 312.5t-134.5 291q-82 -103 -137 -200q36 -113 31.5 -230t-17.5 -200q-4 -30 -6 -52l-320 -112q32 68 47 214.5t-15.5 312.5t-134.5 291
q-66 -83 -113.5 -160.5t-78.5 -166.5l-93 -475l-96 443l-127 -17q0 6 19 56t74 117l-54 249l372 112l-36 -182q58 18 127 30q-4 5 -8 9q123 5 206.5 -22t135.5 -77q89 43 218 66q-4 5 -8 9z" />
    <glyph glyph-name="n" unicode="n" horiz-adv-x="1084" 
d="M546 802v0q197 6 298 -65t134 -182t28.5 -225.5t-17.5 -196.5q-4 -30 -6 -52l-320 -112q32 68 47 214.5t-15.5 312.5t-134.5 291q-66 -83 -113.5 -160.5t-78.5 -166.5l-93 -475l-96 443l-127 -17q0 6 19 56t74 117l-54 249l372 112l-36 -182q58 18 127 30q-4 5 -8 9z
M52 411v0v0v0z" />
    <glyph glyph-name="o" unicode="o" horiz-adv-x="1101" 
d="M770 16v0q-2 -1 -17 -1.5t-35 -1t-35 -0.5q-11 -1 -15 -1q-203 -4 -325 51.5t-182 146t-74 191t0 185.5q39 29 78 59q145 118 266 258q-72 -154 -86 -305q-6 -28 10.5 -124.5t95 -218.5t257.5 -226q3 6 7.5 104t-12 242.5t-77 289t-189.5 243.5q214 -29 338 -110
t180 -186t64 -208q-110 -108 -206 -235q-16 -21 -37 -52t-39 -57q-19 -29 -23 -34q1 0 9 -1.5t19 -3.5t19 -3t9 -2z" />
    <glyph glyph-name="p" unicode="p" horiz-adv-x="964" 
d="M876 530v0q15 -144 -54 -236t-172 -143.5t-191 -72.5l79 -199l-48 -35t-110.5 -80t-112.5 -79.5t-60 -37.5q-7 7 -12 160.5t-9 363.5t-6 386q-57 -12 -108 -31l19 294l73.5 20t183 31t222.5 -9.5t198 -97.5t108 -234zM449 105v0q39 36 87.5 87t82.5 101t31 83
q-19 95 -125.5 147t-257.5 45z" />
    <glyph glyph-name="q" unicode="q" horiz-adv-x="939" 
d="M754 546v0q26 -174 55 -382t48 -360.5t13 -159.5q-10 1 -65 27.5t-123.5 61t-120.5 61.5l-52 27l45 208q-89 7 -198 42t-191.5 115t-90.5 225q-1 159 70.5 248t179.5 127t217 44t184.5 -2l75.5 -8l64 -287q-53 11 -111 13zM321 294v0q2 -33 43 -77t96.5 -86.5
t100.5 -72.5l106 485q-150 -16 -246 -84t-100 -165z" />
    <glyph glyph-name="r" unicode="r" horiz-adv-x="1094" 
d="M556 816v0q197 1 298.5 -33t135 -86.5t30 -106t-15.5 -92.5q-4 -14 -6 -24l-319 -51q31 32 45 100t-16.5 145.5t-133.5 137.5q-67 -87 -116 -167.5t-80 -172.5l-93 -485l-96 452l-127 -17q0 6 19 57t74 120l-54 253l372 115l-36 -186q61 20 135 32q-8 5 -16 9zM22 407v0
v0v0z" />
    <glyph glyph-name="s" unicode="s" horiz-adv-x="1001" 
d="M686 489v0q112 -70 189 -138t57 -134q-23 -60 -267 -189l4.5 -1.5l1.5 -0.5l19 -6l-14 -14q-3 -2 -12.5 -4.5t-21.5 -5t-21 -4t-10 -1.5q-49 -11 -127 -11q-10 0 -21 1q-86 0 -189.5 33.5t-192.5 126.5l-9 9l10 8q37 27 90 63q32 22 63.5 44t39.5 30l14 31l6 -35
q3 -25 29 -68t95.5 -92t202.5 -92v1q25 42 -8 93.5t-99.5 108t-143.5 113.5q-119 86 -200 166t-63 152q20 60 255 184l-16 5l14 14q1 1 2 1.5t3.5 1t7 1t12.5 1.5t20 1.5t30 1.5q59 3 156 0q239 -11 315 -83l10 -10l-11 -8q-28 -22 -59 -63t-54 -78t-27 -46l-15 -32l-6 35
q-3 25 -29 68t-95.5 92t-202.5 92v-2q-31 -41 -23 -85q17 -71 103.5 -141t187.5 -134z" />
    <glyph glyph-name="t" unicode="t" horiz-adv-x="723" 
d="M498 978v0l156 46l8 -214l-179 12l-79 -843l-138 858l-207 13l195 57l-54 340l336 136z" />
    <glyph glyph-name="u" unicode="u" horiz-adv-x="1051" 
d="M866 376v0q56 51 90.5 87.5l34.5 36.5q-1 -5 -37.5 -56t-98.5 -124l-75 -380l-52 243q-91 -89 -186.5 -141.5t-177.5 -27.5q-122 43 -183 125t-79.5 180t-13.5 191.5t15 160.5q3 28 5 49l320 112q-20 -42 -43.5 -127t-30 -185t25 -189t119.5 -139q40 -20 96 -0.5
t118 61.5l-117 535l372 112z" />
    <glyph glyph-name="v" unicode="v" horiz-adv-x="974" 
d="M446 147v0l120 684l400 12l-520 -844l-440 836l344 12z" />
    <glyph glyph-name="w" unicode="w" horiz-adv-x="1531" 
d="M1009 197v0l120 684l400 12l-520 -844l-292 436l-272 -436l-440 836l344 12l96 -700l124 680l300 20z" />
    <glyph glyph-name="x" unicode="x" horiz-adv-x="1087" 
d="M1095 917v0l-488 -467l464 -423l-424 -19l-92 391l-12 -11l-112 -370l-440 -13l487 431l-463 457l424 20l94 -429l7 7l115 412z" />
    <glyph glyph-name="y" unicode="y" horiz-adv-x="1029" 
d="M1009 912v0l-42.5 -119t-124 -293.5t-199 -352t-268 -304t-329.5 -147.5q4 12 12.5 63.5t18.5 113.5q7 45 13 82t10 55q23 -9 91.5 -19t148.5 0t135 60l-452 852l387 14l108 -782l135 764z" />
    <glyph glyph-name="z" unicode="z" horiz-adv-x="1060" 
d="M476 190v0l487 135l8 -352l-931 19l759 753l-31 -7l-669 -181l32 312l820 29z" />
    <glyph glyph-name="braceleft" unicode="{" 
d="M997 -192v-50h-168q-108 0 -184.5 67.5t-77.5 141.5v468q0 66 -51 132t-223 71v60q172 5 223 71t51 133v468q0 74 77 141.5t185 67.5h168v-50h-90q-61 0 -107 -33.5t-47 -91.5v-500q0 -83 -60.5 -158.5t-142.5 -76.5v-2q82 -1 143 -76t61 -158l-1 -500q1 -58 47 -91.5
t107 -33.5h90z" />
    <glyph glyph-name="bar" unicode="|" 
d="M700 1576v0h-200l100 -2134z" />
    <glyph glyph-name="braceright" unicode="}" 
d="M199 -192h90q61 0 107 33.5t47 91.5l-1 500q0 83 61 158t143 76v2q-82 1 -142.5 76.5t-60.5 158.5v500q-1 58 -47 91.5t-107 33.5h-90v50h168q108 0 185 -67.5t77 -141.5v-468q0 -67 51 -133t223 -71v-60q-172 -5 -223 -71t-51 -132v-468q-1 -74 -77.5 -141.5
t-184.5 -67.5h-168v50z" />
    <glyph glyph-name="asciitilde" unicode="~" 
d="M1060 929l-26 -249q-70 -66 -131.5 -85t-117.5 -13q-60 6 -172 66t-171 66q-50 6 -258 -195l24 236q71 66 132.5 85.5t116.5 14.5q64 -7 175.5 -68.5t166.5 -66.5q52 -5 261 209z" />
    <glyph glyph-name="exclamdown" unicode="&#xa1;" 
d="M619 589v0l-188 -1061l372 124zM469 843v0l152 -195l196 181l-152 195z" />
    <glyph glyph-name="cent" unicode="&#xa2;" 
d="M871 340v0l319 19q1 1 -8 -33t-35 -84.5t-74 -100.5t-123.5 -82t-184.5 -28q59 48 81.5 131t24.5 178zM690 861v0q-45 -66 -73.5 -208t-1.5 -311t148 -318q-210 34 -316.5 106t-141 162t-28.5 178t22 154q0 4 1 8zM921 939v0q33 -49 98 -107t143 -95q-46 1 -96 -21.5
t-95 -49.5q-46 -28 -78 -40q-12 17 -53.5 69.5t-85.5 101.5t-64 57zM334 -293l541 1484h190z" />
    <glyph glyph-name="sterling" unicode="&#xa3;" 
d="M991 388v0l266 -234l-243 -125q-98 -50 -207.5 -45.5t-201.5 61.5l-148 94q-154 -64 -313 -96t-209 -8q2 2 20 28q32 50 83.5 122.5t85.5 103.5q30 -66 83 -141l13 -3l1 1q1 0 1 1q60 35 75.5 116t5 188t-29.5 222l-4 24l-210 33l203 19q-23 138 -22 250.5t57 166.5
q29 25 104.5 50t164 39t156.5 4q101 -19 208 -88.5t174 -163.5q-113 8 -223 -7q-12 -1 -23 -4q-9 69 -34.5 111t-55 63t-51.5 28.5t-23 6.5q-101 -63 -118.5 -177t6.5 -249l333 31l8 -216l-316 49q2 -8 3 -16q31 -139 37.5 -250.5t-56.5 -164.5q-15 -11 -34 -22
q194 -24 332 99z" />
    <glyph glyph-name="currency" unicode="&#xa4;" 
d="M463 560q41 -40 99 -57q29 -8 58 -8t58 8q58 17 99 57q40 41 57 99q9 29 9 58t-9 58q-17 58 -57 99q-41 40 -100 57q-29 8 -58 8t-58 -9q-58 -17 -98 -56q-39 -40 -56 -98q-10 -30 -10 -60q0 -28 9 -56q16 -59 57 -100zM353 903l-118 118l80 81l118 -118q44 30 99 46
q44 14 89 14q41 0 83 -12q57 -17 102 -48l118 118l80 -81l-117 -117q31 -46 48 -102q12 -42 12 -85q0 -42 -12 -85q-17 -56 -48 -102l117 -117l-80 -81l-118 118q-45 -32 -101 -48q-42 -12 -85 -12q-42 0 -85 12q-57 16 -102 48l-118 -118l-80 81l118 117q-32 46 -48 103
q-12 42 -12 84q0 44 13 87q16 55 47 99z" />
    <glyph glyph-name="yen" unicode="&#xa5;" 
d="M1140.42 1135v0q-278.792 -171 -476.836 -510l135.146 -782h-0.424805t-1.27539 1q-78.1973 68 -179.345 126q-86.6973 49 -169.995 80l73.0977 551q-136.846 371 -403.738 585l324.691 58q27.1992 -45 69.6973 -132.5q42.499 -87.5 77.3477 -198.5
q10.2002 -34 16.1504 -78l6.7998 -23q31.4482 112 68.8477 185q70.5479 131 141.521 223q70.9736 92 99.0225 120zM137 512l1024 -105h-1024v105zM137 722l1024 -105h-1024v105z" />
    <glyph glyph-name="brokenbar" unicode="&#xa6;" 
d="M540 371h160l-160 -789v789zM540 1578h160l-160 -789v789z" />
    <glyph glyph-name="section" unicode="&#xa7;" 
d="M1038 568v0q-22 -80 -259 -250l4.5 -1.5l1.5 -0.5l19 -7l-14 -19q-3 -3 -13 -6.5t-23 -6.5l16 -14q109 -93 183.5 -182t55.5 -177q-23 -79 -260 -249q4 -1 5.5 -1.5l1.5 -0.5l18 -8l-13 -18q-3 -3 -12.5 -6.5t-21 -7t-20.5 -5.5t-10 -2q-47 -13 -123 -13h-21
q-83 1 -183.5 45t-187.5 166l-8 12l10 11q36 35 87 82q31 29 62 58.5t38 39.5l14 41l6 -46q3 -33 28 -89.5t92.5 -121t196.5 -120.5v0q24 56 -7.5 123.5t-96.5 141.5t-140 150q-106 105 -183 204t-76 187l-2 3l2 2q1 11 4 22q20 79 248 243l-16 6l14 19q0 1 1 1.5t3.5 1.5
t7.5 2q-107 106 -176.5 204.5t-51.5 186.5q19 79 247 243l-15 6l13 18l2 2t3.5 2t7 1.5t12 1.5t19.5 2t29 2q57 4 151 0q232 -14 306 -109l9 -13l-10 -11q-27 -29 -57 -83t-52.5 -102.5t-26.5 -61.5l-14 -41l-6 45q-3 33 -28.5 90t-93 121.5t-195.5 120.5l-1 -2
q-29 -55 -22 -112q17 -94 101 -186t181 -176q110 -93 184.5 -182t54.5 -176zM488 624v0q9 -61 51 -122t102 -120q43 -25 96 -48l1 1q23 53 -6 118t-90.5 136.5t-133.5 144.5q-28 -53 -20 -110z" />
    <glyph glyph-name="dieresis" unicode="&#xa8;" 
d="M414 1173l64 65q11 11 22 11q10 0 25 -13l62 -66q9 -12 9 -22q0 -12 -11 -25l-62 -68q-16 -15 -23 -15q-12 0 -22 11l-69 78q-8 11 -8 20q0 12 13 24zM671 1173l64 65q12 11 22 11t25 -12l62 -67q9 -12 9 -22q0 -12 -11 -24l-62 -69q-15 -15 -23 -15q-12 0 -22 11l-69 79
q-8 10 -8 19q0 12 13 24z" />
    <glyph glyph-name="copyright" unicode="&#xa9;" horiz-adv-x="1604" 
d="M808 1456q145 0 280 -56.5t239 -160.5q102 -101 158.5 -238t56.5 -283q0 -147 -56.5 -282t-162.5 -240q-105 -105 -239 -159.5t-283 -54.5q-146 0 -278 55.5t-238 160.5q-106 104 -161.5 237.5t-55.5 282.5q0 148 55.5 283t159.5 238q102 104 238.5 160.5t286.5 56.5z
M325 1197q-95 -96 -146 -219.5t-51 -259.5q0 -137 51 -259t148 -219q98 -96 219 -147t256 -51q137 0 259.5 50.5t219.5 145.5q97 98 149 221.5t52 258.5q0 134 -52 259.5t-145 219.5q-96 96 -220 147.5t-258 51.5q-137 0 -262 -51.5t-220 -147.5zM1002 426v0l228 9v0
q0 -5 -17 -43.5t-59.5 -88.5t-120 -90.5t-199.5 -50.5q56 66 97.5 128t70.5 136zM761 1139v0q-35 -66 -66 -176.5t-38 -246.5t30.5 -278.5t138.5 -271.5q-230 102 -347 227t-150.5 253.5t-14.5 241.5zM946 1255v0q35 -60 119 -138t161 -118q-51 -4 -106 -35t-101 -63
l-42 -28q-12 22 -54 84t-86.5 119t-63.5 65z" />
    <glyph glyph-name="ordfeminine" unicode="&#xaa;" 
d="M879.756 1433.78v0q3.95996 -1.7998 5.94043 -63.5967q1.97949 -61.7979 2.96973 -153.594q0.990234 -91.7969 1.32031 -183.893q0.329102 -92.0967 0 -155.395l-0.330078 -63.2969l-92.3965 164.993l-169.613 -172.793q-217.791 152.394 -253.43 212.991
t-15.1797 154.193q23.0996 85.7969 88.4365 123.896q65.3379 38.0986 142.555 45.5977q77.2168 7.5 135.294 0.900391q31.6787 19.7988 65.668 39.8984q33.9883 20.0986 59.0674 34.499q25.0791 14.3984 29.6982 15.5986zM782.74 1008.99l-121.436 293.988
q-45.5381 -19.7998 -83.4863 -43.499q-37.9482 -23.6982 -43.8877 -45.2979q-9.89941 -64.1973 57.7471 -119.095q67.6475 -54.8984 191.062 -86.0967zM375 704l512 -105h-512v105z" />
    <glyph glyph-name="guillemotleft" unicode="&#xab;" 
d="M322 479l342 303h14v-37l-205 -266l205 -266v-37h-14zM635 479l342 303h14v-37l-205 -266l205 -266v-37h-14z" />
    <glyph glyph-name="logicalnot" unicode="&#xac;" 
d="M1059 382v0h-200l68 220l-836 74l896 79v-140z" />
    <glyph glyph-name="registered" unicode="&#xae;" horiz-adv-x="1640" 
d="M825 1456q145 0 280 -56.5t239 -160.5q102 -101 158.5 -238t56.5 -283q0 -147 -56.5 -282t-162.5 -240q-105 -105 -239 -159.5t-283 -54.5q-146 0 -278 55.5t-238 160.5q-106 104 -161.5 237.5t-55.5 282.5q0 148 55.5 283t159.5 238q102 104 238.5 160.5t286.5 56.5z
M342 1197q-95 -96 -146 -219.5t-51 -259.5q0 -137 51 -259t148 -219q98 -96 219 -147t256 -51q137 0 259.5 50.5t219.5 145.5q97 98 149 221.5t52 258.5q0 134 -52 259.5t-145 219.5q-96 96 -220 147.5t-258 51.5q-137 0 -262 -51.5t-220 -147.5zM1205 332v0q41 -14 84 -20
l-238 -91q-51 35 -92 94.5t-58.5 146.5t1.5 205q-74 -18 -140 -24l50 -262l-40 -23t-92.5 -52t-95.5 -51.5t-49 -22.5q-5 0 11.5 139t40.5 321.5t44 329.5h-1v0q-20 -1 -35.5 -3.5t-34.5 -6.5l-51 216l66 7t162 3t191 -33.5t157.5 -99t61.5 -193.5q-6 -98 -66 -153.5
t-145 -81.5q41 -128 98.5 -202t106 -106.5t64.5 -36.5zM689 1028v0l67 -355q88 24 140.5 77t49.5 119q-8 73 -80 117.5t-177 41.5z" />
    <glyph glyph-name="macron" unicode="&#xaf;" horiz-adv-x="436" 
d="M371 1224v0v200l-417 -100z" />
    <glyph glyph-name="degree" unicode="&#xb0;" 
d="M622 1372q-86 0 -147.5 -61t-61.5 -148t61 -147t148 -60t147 60t60 147t-60.5 148t-146.5 61zM622 1442q115 0 196 -81.5t81 -196.5q0 -114 -82 -196t-197 -82q-117 0 -197 81t-80 197t81.5 197t197.5 81z" />
    <glyph glyph-name="plusminus" unicode="&#xb1;" 
d="M945 620v0v200l-326 -100zM275 820v0v-200l326 100zM710 1055v0h-200l100 -326zM510 385v0h200l-100 326zM305 193v140l686 -140h-686z" />
    <glyph glyph-name="uni00B2" unicode="&#xb2;" 
d="M938 1306v0q6 -32 -52 -94.5t-152 -141t-196 -159.5q-131 -103 -224 -185l587 110l-24 -292l-866 126l89 16q59 64 148 150q85 83 175 176t162.5 186t104 174.5t1.5 140.5l-4 8v1q-115 -47 -177 -101.5t-87 -104.5t-28 -85q-4 10 -23.5 51.5t-46.5 88t-52 72.5
q39 45 123 67t176 28.5t157.5 5.5t68.5 -2q-1 -1 -16.5 -3.5t-35.5 -5.5q-21 -4 -37 -6.5t-17 -2.5q1 -1 7 -5q23 -15 76 -52.5t102.5 -82t60.5 -78.5z" />
    <glyph glyph-name="uni00B3" unicode="&#xb3;" 
d="M903 949v0q87 -80 62.5 -195.5t-147.5 -230.5l-389 40q-80 18 -134 62q-22 19 -37 40l14 2q62 -3 118 27q33 16 59 39q-9 -84 44 -141q13 -13 29 -24q25 13 49 28q62 40 106.5 103t59.5 126t-13.5 103.5t-114.5 35.5q11 21 13 46q0 14 -2 26q22 0 42.5 -0.5t34.5 -1
t15 0.5q40 45 48.5 103t-25 114t-118.5 95q-25 11 -50 19q-6 -4 -29.5 -25.5t-50 -53t-41.5 -64.5q-27 17 -60 27q-57 21 -117 13h-13q13 19 32 37q7 6 16 15q22 24 62.5 51t112.5 38l369 25q53 -56 83.5 -118.5t26 -122t-56.5 -107.5q-51 -46 -135 -68q82 -18 137 -64z" />
    <glyph glyph-name="acute" unicode="&#xb4;" 
d="M703 1259h208q-11 -11 -26 -22l-330 -238h-69z" />
    <glyph glyph-name="mu" unicode="&#xb5;" 
d="M988 434v0q9 -133 16 -254.5t10 -199.5t0 -80q-8 1 -47.5 26.5t-89.5 58.5t-88 59l-38 26l16 65q-58 -25 -138 -40h1v-1q-1 0 -1 1v0q-8 -2 -17 -4l2 4q1 1 1 2q-106 19 -185 52q14 -216 21 -366t1 -156q-10 2 -63.5 36t-119.5 78t-117 78.5l-51 34.5l110 449
q-56 68 -75.5 118.5t-18.5 56.5l132 -18l125 513l11.5 -157.5t25.5 -377.5l19 -2q30 -90 77.5 -168.5t113.5 -161.5q83 148 87.5 314.5t-33 305t-81.5 204.5l354 -232q1 -4 2 -7q15 -52 27.5 -119t10.5 -138v0v0zM116 478v0q0 1 1 0h-1z" />
    <glyph glyph-name="paragraph" unicode="&#xb6;" 
d="M1037 1435v-70h-127v-1365h-82v1365h-166v-1365h-84v738q-174 8 -275.5 102.5t-101.5 245.5q0 157 107.5 253t285.5 96h443z" />
    <glyph glyph-name="periodcentered" unicode="&#xb7;" 
d="M511 740l82 84q15 14 29 14q13 0 31 -16l80 -86q12 -16 12 -29q0 -15 -14 -31l-80 -88q-20 -20 -29 -20q-16 0 -29 14l-88 101q-10 13 -10 26q0 15 16 31z" />
    <glyph glyph-name="periodcentered" unicode="&#x2219;" 
d="M511 740l82 84q15 14 29 14q13 0 31 -16l80 -86q12 -16 12 -29q0 -15 -14 -31l-80 -88q-20 -20 -29 -20q-16 0 -29 14l-88 101q-10 13 -10 26q0 15 16 31z" />
    <glyph glyph-name="cedilla" unicode="&#xb8;" 
d="M468 -290q85 -52 152 -52q66 0 94.5 21.5t28.5 66.5t-49 64q-40 16 -102 16q-16 0 -34 -2l48 176h63l-37 -104q32 4 62 5q86 0 134 -40.5t48 -113.5q0 -76 -58.5 -120.5t-160.5 -44.5q-109 0 -189 32v96z" />
    <glyph glyph-name="uni00B9" unicode="&#xb9;" horiz-adv-x="668" 
d="M566 22v0l-479 111l216 903q-84 -104 -188 -111q-50 48 -118 103q61 7 123 25q114 36 188 94.5t98 128.5z" />
    <glyph glyph-name="ordmasculine" unicode="&#xba;" 
d="M841.18 898.6v0q-1.32031 -0.599609 -11.2197 -0.900391q-9.89941 -0.299805 -23.0996 -0.599609q-13.1992 -0.299805 -23.0986 -0.299805q-7.25977 -0.600586 -9.89941 -0.600586q-133.975 -2.39941 -214.491 30.8994t-120.115 87.5967
q-39.5986 54.2969 -48.8379 114.595q-9.24023 60.2979 0 111.296q25.7383 17.3994 51.4775 35.3984q95.6963 70.7969 175.553 154.794q-47.5176 -92.3965 -56.7578 -182.993q-3.95996 -16.7988 6.92969 -74.6963q10.8896 -57.8984 62.6982 -131.095
q51.8076 -73.1973 169.942 -135.595q1.98047 3.59961 4.9502 62.3975t-7.91992 145.494t-50.8174 173.393q-39.9287 86.6963 -125.065 146.094q141.234 -17.3984 223.071 -65.9971q81.8359 -48.5977 118.795 -111.595q36.958 -62.998 42.2383 -124.795
q-72.5967 -64.7979 -135.954 -140.995q-10.5596 -12.5986 -24.4199 -31.1982q-13.8594 -18.5996 -25.7383 -34.1992q-12.54 -17.3984 -15.1797 -20.3984q0.660156 0 5.93945 -0.900391q5.28027 -0.899414 12.54 -2.09961t12.5391 -1.7998q5.28027 -0.600586 5.94043 -1.2002
zM332 791l512 -105h-512v105z" />
    <glyph glyph-name="guillemotright" unicode="&#xbb;" 
d="M263 176h-14v37l205 266l-205 266v37h14l342 -303zM576 176h-14v37l205 266l-205 266v37h14l342 -303z" />
    <glyph glyph-name="onequarter" unicode="&#xbc;" horiz-adv-x="1702" 
d="M490 679v0l-351 73l158 595q-61 -68 -137 -73q-37 31 -87 68q45 4 90 16q84 24 138.5 62.5t71.5 84.5zM184 -43l940 1461h154zM1589 580v0l-45 -217h-100l29 -205l-236 -94l54 299h-449l605 758l-331 -678l200 58l61 332l43 -302z" />
    <glyph glyph-name="onehalf" unicode="&#xbd;" horiz-adv-x="1711" 
d="M472 698v0l-351 73l158 595q-61 -68 -137 -73q-37 31 -87 68q45 4 90 16q84 24 138.5 62.5t71.5 84.5zM166 -24l940 1461h154zM1677 770v0q6 -32 -51 -94.5t-149.5 -141.5t-193.5 -161q-128 -103 -220 -185l578 110l-24 -293l-853 126l88 17q58 64 146 150
q84 83 172.5 177t159.5 187t102.5 174.5t1.5 141.5q-2 4 -3 8q-1 0 -1 1q-113 -47 -174 -101.5t-85.5 -105.5t-28.5 -85q-3 10 -22.5 51.5t-46 88t-51.5 72.5q39 46 121.5 68t173.5 28.5t155.5 5.5t67.5 -2q-1 -1 -16.5 -3.5t-35.5 -5.5q-20 -4 -36 -6.5t-17 -2.5q1 -1 7 -5
q23 -15 75 -53t100.5 -82.5t59.5 -78.5z" />
    <glyph glyph-name="threequarters" unicode="&#xbe;" horiz-adv-x="1759" 
d="M254 -44l940 1461h154zM1659 579v0l-44 -217h-100l29 -205l-237 -95l55 300h-449l605 758l-331 -679l200 59l61 332l43 -302zM687 1101v0q82 -69 59 -168.5t-138 -199.5l-364 35q-75 16 -125 54q-21 16 -35 34q6 1 13 1q58 -2 111 24q30 14 55 33q-9 -71 41 -121
q12 -11 27 -20q24 11 46 24q58 34 99.5 88.5t55.5 108.5t-12.5 89t-106.5 30q10 19 11 40q1 12 -1 23q21 -1 40 -1.5t32 -0.5t14 1q38 38 46 88t-23.5 98.5t-111.5 81.5q-23 9 -47 17q-5 -4 -27.5 -22.5t-47 -45.5t-38.5 -56q-26 15 -56 24q-53 18 -110 11h-12q12 17 30 31
q7 6 15 13q21 22 59 45t105 32l346 22q49 -49 77.5 -102.5t24 -105t-52.5 -92.5q-48 -39 -127 -58q78 -16 128 -55z" />
    <glyph glyph-name="questiondown" unicode="&#xbf;" 
d="M827 52v0q4 -12 23 -65.5t45.5 -114t50.5 -93.5q-38 -59 -108.5 -84.5t-146 -30t-128.5 0t-56 6.5q1 0 5 0.5t9 1.5q6 0 10 0.5t5 0.5q-1 1 -7 6q-22 19 -72.5 68t-98 106t-58.5 101q-10 69 43.5 149t130.5 166q51 58 96 116q8 12 8 43.5t-3 68.5t-3.5 67.5t7.5 41.5
q25 1 40 0.5t28 -0.5q138 -33 199 -107q4 -48 3.5 -91.5t-14.5 -63.5q-36 -46 -76 -94q-75 -86 -140.5 -178t-92 -188.5t13.5 -197.5q1 -5 3 -9v-2q112 60 172.5 130.5t84.5 136t27 109.5zM502 843v0l152 -195l196 181l-152 195z" />
    <glyph glyph-name="Agrave" unicode="&#xc0;" horiz-adv-x="1528" 
d="M1370 -187v0l-429 716l-318 -77l-17 -469l-545 73q3 8 43 89t102 207l-88 -21l-63 305l296 8q169 340 263 529l-81 181l75 -36t172.5 -81t174 -78.5t87.5 -31.5q6 -2 101 -462l212 -1l-182 -84zM630 652v0l212 6l-196 442zM633 1669l217 -260h-69l-330 238q-15 11 -26 22
h208z" />
    <glyph glyph-name="Aacute" unicode="&#xc1;" horiz-adv-x="1528" 
d="M1370 -187v0l-429 716l-318 -77l-17 -469l-545 73q3 8 43 89t102 207l-88 -21l-63 305l296 8q169 340 263 529l-81 181l75 -36t172.5 -81t174 -78.5t87.5 -31.5q6 -2 101 -462l212 -1l-182 -84zM630 652v0l212 6l-196 442zM723 1669h208q-11 -11 -26 -22l-330 -238h-69z
" />
    <glyph glyph-name="Acircumflex" unicode="&#xc2;" horiz-adv-x="1528" 
d="M1370 -187v0l-429 716l-318 -77l-17 -469l-545 73q3 8 43 89t102 207l-88 -21l-63 305l296 8q169 340 263 529l-81 181l75 -36t172.5 -81t174 -78.5t87.5 -31.5q6 -2 101 -462l212 -1l-182 -84zM630 652v0l212 6l-196 442zM517 1406l132 210h118l132 -210h-58l-133 128
l-133 -128h-58z" />
    <glyph glyph-name="Atilde" unicode="&#xc3;" horiz-adv-x="1528" 
d="M1370 -187v0l-429 716l-318 -77l-17 -469l-545 73q3 8 43 89t102 207l-88 -21l-63 305l296 8q169 340 263 529l-81 181l75 -36t172.5 -81t174 -78.5t87.5 -31.5q6 -2 101 -462l212 -1l-182 -84zM630 652v0l212 6l-196 442zM1015 1556q-37 -96 -89 -135.5t-120 -22.5l-4 1
q-43 11 -94 47q-52 37 -94 48q-34 8 -57 -7t-43 -63l-47 12q37 99 90 140t122 23q40 -11 94 -47q52 -37 93 -47l4 -1q31 -8 54 7t44 57z" />
    <glyph glyph-name="Adieresis" unicode="&#xc4;" horiz-adv-x="1528" 
d="M1370 -187v0l-429 716l-318 -77l-17 -469l-545 73q3 8 43 89t102 207l-88 -21l-63 305l296 8q169 340 263 529l-81 181l75 -36t172.5 -81t174 -78.5t87.5 -31.5q6 -2 101 -462l212 -1l-182 -84zM630 652v0l212 6l-196 442zM515 1583l64 65q11 11 22 11q10 0 25 -13
l62 -66q9 -12 9 -22q0 -12 -11 -25l-62 -68q-16 -15 -23 -15q-12 0 -22 11l-69 78q-8 11 -8 20q0 12 13 24zM772 1583l64 65q12 11 22 11t25 -12l62 -67q9 -12 9 -22q0 -12 -11 -24l-62 -69q-15 -15 -23 -15q-12 0 -22 11l-69 79q-8 10 -8 19q0 12 13 24z" />
    <glyph glyph-name="Aring" unicode="&#xc5;" horiz-adv-x="1528" 
d="M1370 -187v0l-429 716l-318 -77l-17 -469l-545 73q3 8 43 89t102 207l-88 -21l-63 305l296 8q169 340 263 529l-81 181l75 -36t172.5 -81t174 -78.5t87.5 -31.5q6 -2 101 -462l212 -1l-182 -84zM630 652v0l212 6l-196 442zM625 1534q0 -31 21.5 -52.5t51.5 -21.5
q31 0 52.5 21.5t21.5 52.5q0 29 -21.5 51t-52.5 22q-30 0 -51.5 -22t-21.5 -51zM569 1534q0 55 37.5 92.5t91.5 37.5q56 0 94 -38t38 -92q0 -55 -38 -93t-94 -38q-54 0 -91.5 38t-37.5 93z" />
    <glyph glyph-name="AE" unicode="&#xc6;" horiz-adv-x="1958" 
d="M1370 -187v0l-429 716l-318 -77l-17 -469l-545 73q3 8 43 89t102 207l-88 -21l-63 305l296 8q169 340 263 529l-81 181l75 -36t172.5 -81t174 -78.5t87.5 -31.5q6 -2 101 -462l212 -1l-182 -84zM630 652v0l212 6l-196 442zM2076 -2v0l-1191 96l292 82l49 399l-48 4l52 30
l41 331q-138 -41 -276 -107l-42 -11l20 14q36 28 119.5 87t192.5 130l36 296l35 -251q110 70 216.5 125.5t187.5 77.5q107 28 204 39q0 -2 -1 -4q0 -5 -1 -10q-10 -127 -19 -253q2 -41 6 -80q-270 45 -575 -25l36 -254l349 203l87 -389l-415 32l42 -302l533 149
q-16 -68 -8 -152q14 -132 78 -257z" />
    <glyph glyph-name="Ccedilla" unicode="&#xc7;" horiz-adv-x="1281" 
d="M1059 349v0l316 11v0q0 -7 -23.5 -54.5t-82.5 -110t-166.5 -113t-276.5 -63.5q77 83 135 160.5t98 169.5zM723 1240v0q-48 -82 -91 -220t-52.5 -308t42.5 -348t193 -341q-320 128 -482.5 284t-209.5 317t-20 302zM981 1385v0q48 -75 165 -172.5t223 -147.5
q-71 -6 -147 -44t-140 -79q-33 -20 -58 -34q-16 27 -75 104t-120.5 149t-87.5 82zM440 -290q85 -52 152 -52q66 0 94.5 21.5t28.5 66.5t-49 64q-40 16 -102 16q-16 0 -34 -2l48 176h63l-37 -104q32 4 62 5q86 0 134 -40.5t48 -113.5q0 -76 -58.5 -120.5t-160.5 -44.5
q-109 0 -189 32v96z" />
    <glyph glyph-name="Egrave" unicode="&#xc8;" horiz-adv-x="1144" 
d="M1262 -2v0l-1191 96l292 82l49 399l-48 4l52 30l41 331q-138 -41 -276 -107l-42 -11l20 14q36 28 119.5 87t192.5 130l36 296l35 -251q110 70 216.5 125.5t187.5 77.5q107 28 204 39q0 -2 -1 -4q0 -5 -1 -10q-10 -127 -19 -253q2 -41 6 -80q-270 45 -575 -25l36 -254
l349 203l87 -389l-415 32l42 -302l533 149q-16 -68 -8 -152q14 -132 78 -257zM481 1669l217 -260h-69l-330 238q-15 11 -26 22h208z" />
    <glyph glyph-name="Eacute" unicode="&#xc9;" horiz-adv-x="1144" 
d="M1262 -2v0l-1191 96l292 82l49 399l-48 4l52 30l41 331q-138 -41 -276 -107l-42 -11l20 14q36 28 119.5 87t192.5 130l36 296l35 -251q110 70 216.5 125.5t187.5 77.5q107 28 204 39q0 -2 -1 -4q0 -5 -1 -10q-10 -127 -19 -253q2 -41 6 -80q-270 45 -575 -25l36 -254
l349 203l87 -389l-415 32l42 -302l533 149q-16 -68 -8 -152q14 -132 78 -257zM572 1669h208q-11 -11 -26 -22l-330 -238h-69z" />
    <glyph glyph-name="Ecircumflex" unicode="&#xca;" horiz-adv-x="1144" 
d="M1262 -2v0l-1191 96l292 82l49 399l-48 4l52 30l41 331q-138 -41 -276 -107l-42 -11l20 14q36 28 119.5 87t192.5 130l36 296l35 -251q110 70 216.5 125.5t187.5 77.5q107 28 204 39q0 -2 -1 -4q0 -5 -1 -10q-10 -127 -19 -253q2 -41 6 -80q-270 45 -575 -25l36 -254
l349 203l87 -389l-415 32l42 -302l533 149q-16 -68 -8 -152q14 -132 78 -257zM366 1406l132 210h118l132 -210h-58l-133 128l-133 -128h-58z" />
    <glyph glyph-name="Edieresis" unicode="&#xcb;" horiz-adv-x="1144" 
d="M1262 -2v0l-1191 96l292 82l49 399l-48 4l52 30l41 331q-138 -41 -276 -107l-42 -11l20 14q36 28 119.5 87t192.5 130l36 296l35 -251q110 70 216.5 125.5t187.5 77.5q107 28 204 39q0 -2 -1 -4q0 -5 -1 -10q-10 -127 -19 -253q2 -41 6 -80q-270 45 -575 -25l36 -254
l349 203l87 -389l-415 32l42 -302l533 149q-16 -68 -8 -152q14 -132 78 -257zM363 1583l64 65q11 11 22 11q10 0 25 -13l62 -66q9 -12 9 -22q0 -12 -11 -25l-62 -68q-16 -15 -23 -15q-12 0 -22 11l-69 78q-8 11 -8 20q0 12 13 24zM620 1583l64 65q12 11 22 11t25 -12l62 -67
q9 -12 9 -22q0 -12 -11 -24l-62 -69q-15 -15 -23 -15q-12 0 -22 11l-69 79q-8 10 -8 19q0 12 13 24z" />
    <glyph glyph-name="Igrave" unicode="&#xcc;" horiz-adv-x="485" 
d="M77 1239v0l276 -1219l120 1363zM240 1669l217 -260h-69l-330 238q-15 11 -26 22h208z" />
    <glyph glyph-name="Iacute" unicode="&#xcd;" horiz-adv-x="519" 
d="M115 1239v0l276 -1219l120 1363zM249 1669h208q-11 -11 -26 -22l-330 -238h-69z" />
    <glyph glyph-name="Icircumflex" unicode="&#xce;" horiz-adv-x="456" 
d="M52 1239v0l276 -1219l120 1363zM39 1406l132 210h118l132 -210h-58l-133 128l-133 -128h-58z" />
    <glyph glyph-name="Idieresis" unicode="&#xcf;" horiz-adv-x="512" 
d="M60 1239v0l276 -1219l120 1363zM45 1583l64 65q11 11 22 11q10 0 25 -13l62 -66q9 -12 9 -22q0 -12 -11 -25l-62 -68q-16 -15 -23 -15q-12 0 -22 11l-69 78q-8 11 -8 20q0 12 13 24zM302 1583l64 65q12 11 22 11t25 -12l62 -67q9 -12 9 -22q0 -12 -11 -24l-62 -69
q-15 -15 -23 -15q-12 0 -22 11l-69 79q-8 10 -8 19q0 12 13 24z" />
    <glyph glyph-name="Eth" unicode="&#xd0;" horiz-adv-x="1130" 
d="M413 543l-8 -58q-38 -269 -60 -428q189 58 307 192t118 306q0 140 -80 256t-215 188q-23 -171 -48 -354l303 -61zM230 685l-55 398q-25 1 -49 1h-11q5 36 4 73q-9 66 -18 131q-20 73 -60 135l-1 6q82 14 168 14q237 0 432 -96t311 -257t116 -357q0 -177 -96 -326.5
t-259 -247.5t-370 -127l-11 -80l-11 78q-55 -6 -112 -6q-28 0 -56 1q86 4 166 24l-65 473l-165 -21v213z" />
    <glyph glyph-name="Ntilde" unicode="&#xd1;" horiz-adv-x="1153" 
d="M872 29l-473 731l140 -755q-68 0 -114.5 11t-108 25.5t-113 25t-65.5 9.5q-8 6 16.5 144.5t64 333t76.5 368.5q-63 99 -105 194.5t-44 98.5l425 -35l295 -1043l1 1078l41.5 3.5t122.5 11t144.5 13.5t74.5 7q3 0 -187.5 -610.5zM856 1556q-37 -96 -89 -135.5t-120 -22.5
l-4 1q-43 11 -94 47q-52 37 -94 48q-34 8 -57 -7t-43 -63l-47 12q37 99 90 140t122 23q40 -11 94 -47q52 -37 93 -47l4 -1q31 -8 54 7t44 57z" />
    <glyph glyph-name="Ograve" unicode="&#xd2;" horiz-adv-x="1297" 
d="M429 1258v0q2 1 22.5 2t48 2t47.5 1h22q277 6 444.5 -70t249 -200t101 -261.5t0.5 -253.5q-54 -40 -106 -82q-200 -160 -365 -352q99 210 118 417q4 27 -5 111t-54 200t-149 239.5t-290 228.5q-2 -5 -8 -94.5t0.5 -232t41.5 -305t115.5 -313.5t221.5 -258
q-292 40 -462 150.5t-246.5 254.5t-87.5 284q150 149 282 323q22 28 50.5 70.5t52.5 78.5q27 40 32 46q-1 1 -12.5 3t-25.5 4t-25.5 4t-12.5 3zM535 1669l217 -260h-69l-330 238q-15 11 -26 22h208z" />
    <glyph glyph-name="Oacute" unicode="&#xd3;" horiz-adv-x="1297" 
d="M429 1258v0q2 1 22.5 2t48 2t47.5 1h22q277 6 444.5 -70t249 -200t101 -261.5t0.5 -253.5q-54 -40 -106 -82q-200 -160 -365 -352q99 210 118 417q4 27 -5 111t-54 200t-149 239.5t-290 228.5q-2 -5 -8 -94.5t0.5 -232t41.5 -305t115.5 -313.5t221.5 -258
q-292 40 -462 150.5t-246.5 254.5t-87.5 284q150 149 282 323q22 28 50.5 70.5t52.5 78.5q27 40 32 46q-1 1 -12.5 3t-25.5 4t-25.5 4t-12.5 3zM626 1669h208q-11 -11 -26 -22l-330 -238h-69z" />
    <glyph glyph-name="Ocircumflex" unicode="&#xd4;" horiz-adv-x="1297" 
d="M429 1258v0q2 1 22.5 2t48 2t47.5 1h22q277 6 444.5 -70t249 -200t101 -261.5t0.5 -253.5q-54 -40 -106 -82q-200 -160 -365 -352q99 210 118 417q4 27 -5 111t-54 200t-149 239.5t-290 228.5q-2 -5 -8 -94.5t0.5 -232t41.5 -305t115.5 -313.5t221.5 -258
q-292 40 -462 150.5t-246.5 254.5t-87.5 284q150 149 282 323q22 28 50.5 70.5t52.5 78.5q27 40 32 46q-1 1 -12.5 3t-25.5 4t-25.5 4t-12.5 3zM420 1406l132 210h118l132 -210h-58l-133 128l-133 -128h-58z" />
    <glyph glyph-name="Otilde" unicode="&#xd5;" horiz-adv-x="1297" 
d="M429 1258v0q2 1 22.5 2t48 2t47.5 1h22q277 6 444.5 -70t249 -200t101 -261.5t0.5 -253.5q-54 -40 -106 -82q-200 -160 -365 -352q99 210 118 417q4 27 -5 111t-54 200t-149 239.5t-290 228.5q-2 -5 -8 -94.5t0.5 -232t41.5 -305t115.5 -313.5t221.5 -258
q-292 40 -462 150.5t-246.5 254.5t-87.5 284q150 149 282 323q22 28 50.5 70.5t52.5 78.5q27 40 32 46q-1 1 -12.5 3t-25.5 4t-25.5 4t-12.5 3zM917 1556q-37 -96 -89 -135.5t-120 -22.5l-4 1q-43 11 -94 47q-52 37 -94 48q-34 8 -57 -7t-43 -63l-47 12q37 99 90 140t122 23
q40 -11 94 -47q52 -37 93 -47l4 -1q31 -8 54 7t44 57z" />
    <glyph glyph-name="Odieresis" unicode="&#xd6;" horiz-adv-x="1297" 
d="M429 1258v0q2 1 22.5 2t48 2t47.5 1h22q277 6 444.5 -70t249 -200t101 -261.5t0.5 -253.5q-54 -40 -106 -82q-200 -160 -365 -352q99 210 118 417q4 27 -5 111t-54 200t-149 239.5t-290 228.5q-2 -5 -8 -94.5t0.5 -232t41.5 -305t115.5 -313.5t221.5 -258
q-292 40 -462 150.5t-246.5 254.5t-87.5 284q150 149 282 323q22 28 50.5 70.5t52.5 78.5q27 40 32 46q-1 1 -12.5 3t-25.5 4t-25.5 4t-12.5 3zM417 1583l64 65q11 11 22 11q10 0 25 -13l62 -66q9 -12 9 -22q0 -12 -11 -25l-62 -68q-16 -15 -23 -15q-12 0 -22 11l-69 78
q-8 11 -8 20q0 12 13 24zM674 1583l64 65q12 11 22 11t25 -12l62 -67q9 -12 9 -22q0 -12 -11 -24l-62 -69q-15 -15 -23 -15q-12 0 -22 11l-69 79q-8 10 -8 19q0 12 13 24z" />
    <glyph glyph-name="multiply" unicode="&#xd7;" 
d="M620 618l-247 -247l-99 99l247 247l-247 248l99 98l247 -247l248 247l98 -99l-247 -247l247 -247l-99 -99z" />
    <glyph glyph-name="Oslash" unicode="&#xd8;" horiz-adv-x="1454" 
d="M429 1258v0q2 1 22.5 2t48 2t47.5 1h22q277 6 444.5 -70t249 -200t101 -261.5t0.5 -253.5q-54 -40 -106 -82q-200 -160 -365 -352q99 210 118 417q4 27 -5 111t-54 200t-149 239.5t-290 228.5q-2 -5 -8 -94.5t0.5 -232t41.5 -305t115.5 -313.5t221.5 -258
q-292 40 -462 150.5t-246.5 254.5t-87.5 284q150 149 282 323q22 28 50.5 70.5t52.5 78.5q27 40 32 46q-1 1 -12.5 3t-25.5 4t-25.5 4t-12.5 3zM287 -50l541 1484h190z" />
    <glyph glyph-name="Ugrave" unicode="&#xd9;" horiz-adv-x="1200" 
d="M993 229v0q-30 -159 -37 -182l-31 163l-729 -209l3.5 51t8.5 117.5t10.5 121t9.5 66.5l158 -6l-287 891l449 -27l-11 -150t-26.5 -350.5t-29.5 -367.5l421 -17l-175 931l443 -86l-26.5 -142.5t-62.5 -337.5t-69 -369l281 -11zM551 1669l217 -260h-69l-330 238
q-15 11 -26 22h208z" />
    <glyph glyph-name="Uacute" unicode="&#xda;" horiz-adv-x="1200" 
d="M993 229v0q-30 -159 -37 -182l-31 163l-729 -209l3.5 51t8.5 117.5t10.5 121t9.5 66.5l158 -6l-287 891l449 -27l-11 -150t-26.5 -350.5t-29.5 -367.5l421 -17l-175 931l443 -86l-26.5 -142.5t-62.5 -337.5t-69 -369l281 -11zM642 1669h208q-11 -11 -26 -22l-330 -238
h-69z" />
    <glyph glyph-name="Ucircumflex" unicode="&#xdb;" horiz-adv-x="1200" 
d="M993 229v0q-30 -159 -37 -182l-31 163l-729 -209l3.5 51t8.5 117.5t10.5 121t9.5 66.5l158 -6l-287 891l449 -27l-11 -150t-26.5 -350.5t-29.5 -367.5l421 -17l-175 931l443 -86l-26.5 -142.5t-62.5 -337.5t-69 -369l281 -11zM435 1406l132 210h118l132 -210h-58
l-133 128l-133 -128h-58z" />
    <glyph glyph-name="Udieresis" unicode="&#xdc;" horiz-adv-x="1200" 
d="M993 229v0q-30 -159 -37 -182l-31 163l-729 -209l3.5 51t8.5 117.5t10.5 121t9.5 66.5l158 -6l-287 891l449 -27l-11 -150t-26.5 -350.5t-29.5 -367.5l421 -17l-175 931l443 -86l-26.5 -142.5t-62.5 -337.5t-69 -369l281 -11zM433 1583l64 65q11 11 22 11q10 0 25 -13
l62 -66q9 -12 9 -22q0 -12 -11 -25l-62 -68q-16 -15 -23 -15q-12 0 -22 11l-69 78q-8 11 -8 20q0 12 13 24zM690 1583l64 65q12 11 22 11t25 -12l62 -67q9 -12 9 -22q0 -12 -11 -24l-62 -69q-15 -15 -23 -15q-12 0 -22 11l-69 79q-8 10 -8 19q0 12 13 24z" />
    <glyph glyph-name="Yacute" unicode="&#xdd;" horiz-adv-x="1080" 
d="M1237 1135v0q-328 -171 -561 -510l159 -782h-0.5t-1.5 1q-92 68 -211 126q-102 49 -200 80l86 551q-161 371 -475 585l382 58q32 -45 82 -132.5t91 -198.5q12 -34 19 -78l8 -23q37 112 81 185q83 131 166.5 223t116.5 120zM515 1669h208q-11 -11 -26 -22l-330 -238h-69z
" />
    <glyph glyph-name="Thorn" unicode="&#xde;" horiz-adv-x="948" 
d="M448 1065v0q126 -14 240 -59t185 -134t69 -236q-10 -139 -106 -215t-227 -108.5t-245 -40.5l-46 -435l-100 950q-15 -1 -29 -4q-28 -1 -50.5 -4.5t-51.5 -8.5l-74 291l48 5.5t127 8.5l-29 271h318zM368 313v0q130 31 208 103t73 161q-8 73 -70.5 126t-160.5 76z" />
    <glyph glyph-name="germandbls" unicode="&#xdf;" horiz-adv-x="1049" 
d="M935 484v0q65 -72 61 -173q-10 -149 -122.5 -231.5t-258.5 -50.5l-138 35q-73 30 -120 90q-20 25 -32 53q6 -1 12 0q58 -10 111 20q31 17 57 41q-13 -100 32 -175q12 -18 25 -32q24 13 47 29q77 57 89.5 151.5t-35.5 171.5t-156 82q12 25 14 54q2 17 1 33q4 -1 21 -1h41
q53 63 49 136q-7 69 -64 120.5t-147 76.5l-191 -1028l-87 1035q-33 -3 -73 -12l-74 292l33 4t90 8l-6 65h375l-15 -79q119 -18 223 -64.5t167.5 -133.5t61.5 -226q-4 -74 -35 -129t-82 -94q78 -21 126 -68z" />
    <glyph glyph-name="agrave" unicode="&#xe0;" horiz-adv-x="918" 
d="M877 958v0q6 -3 9 -106t4.5 -256t2 -306.5t0 -259l-0.5 -105.5l-140 275l-257 -288q-330 254 -384 355t-23 257q35 143 134 206.5t216 76t205 1.5q48 33 99.5 66.5t89.5 57.5t45 26zM730 250l-184 490q-69 -33 -126.5 -72.5t-66.5 -75.5q-15 -107 87.5 -198.5
t289.5 -143.5zM349 1259l217 -260h-69l-330 238q-15 11 -26 22h208z" />
    <glyph glyph-name="aacute" unicode="&#xe1;" horiz-adv-x="933" 
d="M892 958v0q6 -3 9 -106t4.5 -256t2 -306.5t0 -259l-0.5 -105.5l-140 275l-257 -288q-330 254 -384 355t-23 257q35 143 134 206.5t216 76t205 1.5q48 33 99.5 66.5t89.5 57.5t45 26zM745 250l-184 490q-69 -33 -126.5 -72.5t-66.5 -75.5q-15 -107 87.5 -198.5
t289.5 -143.5zM455 1259h208q-11 -11 -26 -22l-330 -238h-69z" />
    <glyph glyph-name="acircumflex" unicode="&#xe2;" horiz-adv-x="933" 
d="M892 958v0q6 -3 9 -106t4.5 -256t2 -306.5t0 -259l-0.5 -105.5l-140 275l-257 -288q-330 254 -384 355t-23 257q35 143 134 206.5t216 76t205 1.5q48 33 99.5 66.5t89.5 57.5t45 26zM745 250l-184 490q-69 -33 -126.5 -72.5t-66.5 -75.5q-15 -107 87.5 -198.5
t289.5 -143.5zM249 996l132 210h118l132 -210h-58l-133 128l-133 -128h-58z" />
    <glyph glyph-name="atilde" unicode="&#xe3;" horiz-adv-x="924" 
d="M883 958v0q6 -3 9 -106t4.5 -256t2 -306.5t0 -259l-0.5 -105.5l-140 275l-257 -288q-330 254 -384 355t-23 257q35 143 134 206.5t216 76t205 1.5q48 33 99.5 66.5t89.5 57.5t45 26zM736 250l-184 490q-69 -33 -126.5 -72.5t-66.5 -75.5q-15 -107 87.5 -198.5
t289.5 -143.5zM737 1146q-37 -96 -89 -135.5t-120 -22.5l-4 1q-43 11 -94 47q-52 37 -94 48q-34 8 -57 -7t-43 -63l-47 12q37 99 90 140t122 23q40 -11 94 -47q52 -37 93 -47l4 -1q31 -8 54 7t44 57z" />
    <glyph glyph-name="adieresis" unicode="&#xe4;" horiz-adv-x="917" 
d="M876 958v0q6 -3 9 -106t4.5 -256t2 -306.5t0 -259l-0.5 -105.5l-140 275l-257 -288q-330 254 -384 355t-23 257q35 143 134 206.5t216 76t205 1.5q48 33 99.5 66.5t89.5 57.5t45 26zM729 250l-184 490q-69 -33 -126.5 -72.5t-66.5 -75.5q-15 -107 87.5 -198.5
t289.5 -143.5zM230 1173l64 65q11 11 22 11q10 0 25 -13l62 -66q9 -12 9 -22q0 -12 -11 -25l-62 -68q-16 -15 -23 -15q-12 0 -22 11l-69 78q-8 11 -8 20q0 12 13 24zM487 1173l64 65q12 11 22 11t25 -12l62 -67q9 -12 9 -22q0 -12 -11 -24l-62 -69q-15 -15 -23 -15
q-12 0 -22 11l-69 79q-8 10 -8 19q0 12 13 24z" />
    <glyph glyph-name="aring" unicode="&#xe5;" horiz-adv-x="933" 
d="M892 958v0q6 -3 9 -106t4.5 -256t2 -306.5t0 -259l-0.5 -105.5l-140 275l-257 -288q-330 254 -384 355t-23 257q35 143 134 206.5t216 76t205 1.5q48 33 99.5 66.5t89.5 57.5t45 26zM745 250l-184 490q-69 -33 -126.5 -72.5t-66.5 -75.5q-15 -107 87.5 -198.5
t289.5 -143.5zM356 1124q0 -31 21.5 -52.5t51.5 -21.5q31 0 52.5 21.5t21.5 52.5q0 29 -21.5 51t-52.5 22q-30 0 -51.5 -22t-21.5 -51zM300 1124q0 55 37.5 92.5t91.5 37.5q56 0 94 -38t38 -92q0 -55 -38 -93t-94 -38q-54 0 -91.5 38t-37.5 93z" />
    <glyph glyph-name="ae" unicode="&#xe6;" horiz-adv-x="1901" 
d="M883 958v0q6 -3 9 -106t4.5 -256t2 -306.5t0 -259l-0.5 -105.5l-140 275l-257 -288q-330 254 -384 355t-23 257q35 143 134 206.5t216 76t205 1.5q48 33 99.5 66.5t89.5 57.5t45 26zM736 250l-184 490q-69 -33 -126.5 -72.5t-66.5 -75.5q-15 -107 87.5 -198.5
t289.5 -143.5zM1445 334v0l321 19q1 1 -10.5 -33t-40 -84.5t-79.5 -100.5t-128.5 -82t-186.5 -28q63 48 90 131t34 178zM1928 490v0l-743 -98q4 -97 35.5 -193t98.5 -181q-243 41 -344.5 132t-113.5 199l-164 -21l160 60q-3 65 8.5 124t23.5 106l2 8l403 229q-3 -4 -6 -9
l230 83q25 -42 77 -107t333 -332zM1286 842v0q-33 -50 -61 -136.5t-38 -194.5l241 91q-5 9 -11 20q-20 39 -45 87t-48.5 86t-37.5 47z" />
    <glyph glyph-name="ccedilla" unicode="&#xe7;" horiz-adv-x="946" 
d="M683 321v0l319 19q1 1 -8 -33t-35 -84.5t-74 -100.5t-123.5 -82t-184.5 -28q59 48 81.5 131t24.5 178zM502 842v0q-45 -66 -73.5 -208t-1.5 -311t148 -318q-210 34 -316.5 106t-141 162t-28.5 178t22 154q0 4 1 8zM733 920v0q33 -49 98 -107t143 -95q-46 1 -96 -21.5
t-95 -49.5q-46 -28 -78 -40q-12 17 -53.5 69.5t-85.5 101.5t-64 57zM221 -290q85 -52 152 -52q66 0 94.5 21.5t28.5 66.5t-49 64q-40 16 -102 16q-16 0 -34 -2l48 176h63l-37 -104q32 4 62 5q86 0 134 -40.5t48 -113.5q0 -76 -58.5 -120.5t-160.5 -44.5q-109 0 -189 32v96z
" />
    <glyph glyph-name="egrave" unicode="&#xe8;" horiz-adv-x="1151" 
d="M694 329v0l321 19q1 1 -10.5 -33t-40 -84.5t-79.5 -100.5t-128.5 -82t-186.5 -28q63 48 90 131t34 178zM1177 485v0l-743 -98q4 -97 35.5 -193t98.5 -181q-243 41 -344.5 132t-113.5 199l-164 -21l160 60q-3 65 8.5 124t23.5 106l2 8l403 229q-3 -4 -6 -9l230 83
q25 -42 77 -107t333 -332zM535 837v0q-33 -50 -61 -136.5t-38 -194.5l241 91q-5 9 -11 20q-20 39 -45 87t-48.5 86t-37.5 47zM486 1259l217 -260h-69l-330 238q-15 11 -26 22h208z" />
    <glyph glyph-name="eacute" unicode="&#xe9;" horiz-adv-x="1174" 
d="M717 329v0l321 19q1 1 -10.5 -33t-40 -84.5t-79.5 -100.5t-128.5 -82t-186.5 -28q63 48 90 131t34 178zM1200 485v0l-743 -98q4 -97 35.5 -193t98.5 -181q-243 41 -344.5 132t-113.5 199l-164 -21l160 60q-3 65 8.5 124t23.5 106l2 8l403 229q-3 -4 -6 -9l230 83
q25 -42 77 -107t333 -332zM558 837v0q-33 -50 -61 -136.5t-38 -194.5l241 91q-5 9 -11 20q-20 39 -45 87t-48.5 86t-37.5 47zM600 1259h208q-11 -11 -26 -22l-330 -238h-69z" />
    <glyph glyph-name="ecircumflex" unicode="&#xea;" horiz-adv-x="1174" 
d="M717 329v0l321 19q1 1 -10.5 -33t-40 -84.5t-79.5 -100.5t-128.5 -82t-186.5 -28q63 48 90 131t34 178zM1200 485v0l-743 -98q4 -97 35.5 -193t98.5 -181q-243 41 -344.5 132t-113.5 199l-164 -21l160 60q-3 65 8.5 124t23.5 106l2 8l403 229q-3 -4 -6 -9l230 83
q25 -42 77 -107t333 -332zM558 837v0q-33 -50 -61 -136.5t-38 -194.5l241 91q-5 9 -11 20q-20 39 -45 87t-48.5 86t-37.5 47zM393 996l132 210h118l132 -210h-58l-133 128l-133 -128h-58z" />
    <glyph glyph-name="edieresis" unicode="&#xeb;" horiz-adv-x="1163" 
d="M706 329v0l321 19q1 1 -10.5 -33t-40 -84.5t-79.5 -100.5t-128.5 -82t-186.5 -28q63 48 90 131t34 178zM1189 485v0l-743 -98q4 -97 35.5 -193t98.5 -181q-243 41 -344.5 132t-113.5 199l-164 -21l160 60q-3 65 8.5 124t23.5 106l2 8l403 229q-3 -4 -6 -9l230 83
q25 -42 77 -107t333 -332zM547 837v0q-33 -50 -61 -136.5t-38 -194.5l241 91q-5 9 -11 20q-20 39 -45 87t-48.5 86t-37.5 47zM380 1173l64 65q11 11 22 11q10 0 25 -13l62 -66q9 -12 9 -22q0 -12 -11 -25l-62 -68q-16 -15 -23 -15q-12 0 -22 11l-69 78q-8 11 -8 20
q0 12 13 24zM637 1173l64 65q12 11 22 11t25 -12l62 -67q9 -12 9 -22q0 -12 -11 -24l-62 -69q-15 -15 -23 -15q-12 0 -22 11l-69 79q-8 10 -8 19q0 12 13 24z" />
    <glyph glyph-name="igrave" unicode="&#xec;" horiz-adv-x="512" 
d="M276 -37v0l188 960l-372 -112zM203 1259l217 -260h-69l-330 238q-15 11 -26 22h208z" />
    <glyph glyph-name="iacute" unicode="&#xed;" horiz-adv-x="475" 
d="M253 -37v0l188 960l-372 -112zM271 1259h208q-11 -11 -26 -22l-330 -238h-69z" />
    <glyph glyph-name="icircumflex" unicode="&#xee;" horiz-adv-x="465" 
d="M243 -37v0l188 960l-372 -112zM54 996l132 210h118l132 -210h-58l-133 128l-133 -128h-58z" />
    <glyph glyph-name="idieresis" unicode="&#xef;" horiz-adv-x="482" 
d="M238 -37v0l188 960l-372 -112zM47 1173l64 65q11 11 22 11q10 0 25 -13l62 -66q9 -12 9 -22q0 -12 -11 -25l-62 -68q-16 -15 -23 -15q-12 0 -22 11l-69 78q-8 11 -8 20q0 12 13 24zM304 1173l64 65q12 11 22 11t25 -12l62 -67q9 -12 9 -22q0 -12 -11 -24l-62 -69
q-15 -15 -23 -15q-12 0 -22 11l-69 79q-8 10 -8 19q0 12 13 24z" />
    <glyph glyph-name="eth" unicode="&#xf0;" horiz-adv-x="1072" 
d="M989 585v0q57 -201 0.5 -354t-217.5 -208q-139 -42 -298 6v0v0l-189 54q-112 34 -177 119t-72.5 191.5t55.5 204.5q63 97 184 135q98 29 208 12l140 -40q-35 125 -107 215l-294 -94l230 160q-50 43 -109 68q8 24 16 49q6 17 12 35q4 11 9 22q117 -8 241 -57l177 123
l120 -176l-140 -45q75 -64 130.5 -167t80.5 -253zM504 79v0q92 39 142 127.5t48.5 201t-63.5 224.5q-18 31 -39 60q-27 -6 -53 -16q-91 -38 -142 -126t-50.5 -200.5t62.5 -224.5q19 -33 41 -63q28 6 54 17z" />
    <glyph glyph-name="ntilde" unicode="&#xf1;" horiz-adv-x="1014" 
d="M545 802v0q197 6 298 -65t134 -182t28.5 -225.5t-17.5 -196.5q-4 -30 -6 -52l-320 -112q32 68 47 214.5t-15.5 312.5t-134.5 291q-66 -83 -113.5 -160.5t-78.5 -166.5l-93 -475l-96 443l-127 -17q0 6 19 56t74 117l-54 249l372 112l-36 -182q58 18 127 30q-4 5 -8 9z
M51 411v0v0v0zM806 1146q-37 -96 -89 -135.5t-120 -22.5l-4 1q-43 11 -94 47q-52 37 -94 48q-34 8 -57 -7t-43 -63l-47 12q37 99 90 140t122 23q40 -11 94 -47q52 -37 93 -47l4 -1q31 -8 54 7t44 57z" />
    <glyph glyph-name="ograve" unicode="&#xf2;" horiz-adv-x="965" 
d="M760 16v0q-2 -1 -17 -1.5t-35 -1t-35 -0.5q-11 -1 -15 -1q-203 -4 -325 51.5t-182 146t-74 191t0 185.5q39 29 78 59q145 118 266 258q-72 -154 -86 -305q-6 -28 10.5 -124.5t95 -218.5t257.5 -226q3 6 7.5 104t-12 242.5t-77 289t-189.5 243.5q214 -29 338 -110
t180 -186t64 -208q-110 -108 -206 -235q-16 -21 -37 -52t-39 -57q-19 -29 -23 -34q1 0 9 -1.5t19 -3.5t19 -3t9 -2zM394 1259l217 -260h-69l-330 238q-15 11 -26 22h208z" />
    <glyph glyph-name="oacute" unicode="&#xf3;" horiz-adv-x="972" 
d="M795 16v0q-2 -1 -17 -1.5t-35 -1t-35 -0.5q-11 -1 -15 -1q-203 -4 -325 51.5t-182 146t-74 191t0 185.5q39 29 78 59q145 118 266 258q-72 -154 -86 -305q-6 -28 10.5 -124.5t95 -218.5t257.5 -226q3 6 7.5 104t-12 242.5t-77 289t-189.5 243.5q214 -29 338 -110
t180 -186t64 -208q-110 -108 -206 -235q-16 -21 -37 -52t-39 -57q-19 -29 -23 -34q1 0 9 -1.5t19 -3.5t19 -3t9 -2zM520 1259h208q-11 -11 -26 -22l-330 -238h-69z" />
    <glyph glyph-name="ocircumflex" unicode="&#xf4;" horiz-adv-x="1000" 
d="M795 16v0q-2 -1 -17 -1.5t-35 -1t-35 -0.5q-11 -1 -15 -1q-203 -4 -325 51.5t-182 146t-74 191t0 185.5q39 29 78 59q145 118 266 258q-72 -154 -86 -305q-6 -28 10.5 -124.5t95 -218.5t257.5 -226q3 6 7.5 104t-12 242.5t-77 289t-189.5 243.5q214 -29 338 -110
t180 -186t64 -208q-110 -108 -206 -235q-16 -21 -37 -52t-39 -57q-19 -29 -23 -34q1 0 9 -1.5t19 -3.5t19 -3t9 -2zM313 996l132 210h118l132 -210h-58l-133 128l-133 -128h-58z" />
    <glyph glyph-name="otilde" unicode="&#xf5;" horiz-adv-x="947" 
d="M770 16v0q-2 -1 -17 -1.5t-35 -1t-35 -0.5q-11 -1 -15 -1q-203 -4 -325 51.5t-182 146t-74 191t0 185.5q39 29 78 59q145 118 266 258q-72 -154 -86 -305q-6 -28 10.5 -124.5t95 -218.5t257.5 -226q3 6 7.5 104t-12 242.5t-77 289t-189.5 243.5q214 -29 338 -110
t180 -186t64 -208q-110 -108 -206 -235q-16 -21 -37 -52t-39 -57q-19 -29 -23 -34q1 0 9 -1.5t19 -3.5t19 -3t9 -2zM786 1146q-37 -96 -89 -135.5t-120 -22.5l-4 1q-43 11 -94 47q-52 37 -94 48q-34 8 -57 -7t-43 -63l-47 12q37 99 90 140t122 23q40 -11 94 -47
q52 -37 93 -47l4 -1q31 -8 54 7t44 57z" />
    <glyph glyph-name="odieresis" unicode="&#xf6;" horiz-adv-x="960" 
d="M763 16v0q-2 -1 -17 -1.5t-35 -1t-35 -0.5q-11 -1 -15 -1q-203 -4 -325 51.5t-182 146t-74 191t0 185.5q39 29 78 59q145 118 266 258q-72 -154 -86 -305q-6 -28 10.5 -124.5t95 -218.5t257.5 -226q3 6 7.5 104t-12 242.5t-77 289t-189.5 243.5q214 -29 338 -110
t180 -186t64 -208q-110 -108 -206 -235q-16 -21 -37 -52t-39 -57q-19 -29 -23 -34q1 0 9 -1.5t19 -3.5t19 -3t9 -2zM279 1173l64 65q11 11 22 11q10 0 25 -13l62 -66q9 -12 9 -22q0 -12 -11 -25l-62 -68q-16 -15 -23 -15q-12 0 -22 11l-69 78q-8 11 -8 20q0 12 13 24z
M536 1173l64 65q12 11 22 11t25 -12l62 -67q9 -12 9 -22q0 -12 -11 -24l-62 -69q-15 -15 -23 -15q-12 0 -22 11l-69 79q-8 10 -8 19q0 12 13 24z" />
    <glyph glyph-name="divide" unicode="&#xf7;" 
d="M200 647v140l840 -140h-840zM511 408l82 84q15 14 29 14q13 0 31 -16l80 -86q12 -16 12 -29q0 -15 -14 -31l-80 -88q-20 -20 -29 -20q-16 0 -29 14l-88 101q-10 13 -10 26q0 15 16 31zM511 1101l82 84q15 14 29 14q13 0 31 -16l80 -86q12 -16 12 -29q0 -15 -14 -31
l-80 -88q-20 -20 -29 -20q-16 0 -29 14l-88 101q-10 13 -10 26q0 15 16 31z" />
    <glyph glyph-name="oslash" unicode="&#xf8;" horiz-adv-x="983" 
d="M770 16v0q-2 -1 -17 -1.5t-35 -1t-35 -0.5q-11 -1 -15 -1q-203 -4 -325 51.5t-182 146t-74 191t0 185.5q39 29 78 59q145 118 266 258q-72 -154 -86 -305q-6 -28 10.5 -124.5t95 -218.5t257.5 -226q3 6 7.5 104t-12 242.5t-77 289t-189.5 243.5q214 -29 338 -110
t180 -186t64 -208q-110 -108 -206 -235q-16 -21 -37 -52t-39 -57q-19 -29 -23 -34q1 0 9 -1.5t19 -3.5t19 -3t9 -2zM180 -331l541 1484h190z" />
    <glyph glyph-name="ugrave" unicode="&#xf9;" horiz-adv-x="1000" 
d="M867 376v0q56 51 90.5 87.5l34.5 36.5q-1 -5 -37.5 -56t-98.5 -124l-75 -380l-52 243q-91 -89 -186.5 -141.5t-177.5 -27.5q-122 43 -183 125t-79.5 180t-13.5 191.5t15 160.5q3 28 5 49l320 112q-20 -42 -43.5 -127t-30 -185t25 -189t119.5 -139q40 -20 96 -0.5
t118 61.5l-117 535l372 112zM425 1259l217 -260h-69l-330 238q-15 11 -26 22h208z" />
    <glyph glyph-name="uacute" unicode="&#xfa;" horiz-adv-x="999" 
d="M866 376v0q56 51 90.5 87.5l34.5 36.5q-1 -5 -37.5 -56t-98.5 -124l-75 -380l-52 243q-91 -89 -186.5 -141.5t-177.5 -27.5q-122 43 -183 125t-79.5 180t-13.5 191.5t15 160.5q3 28 5 49l320 112q-20 -42 -43.5 -127t-30 -185t25 -189t119.5 -139q40 -20 96 -0.5
t118 61.5l-117 535l372 112zM515 1259h208q-11 -11 -26 -22l-330 -238h-69z" />
    <glyph glyph-name="ucircumflex" unicode="&#xfb;" horiz-adv-x="1011" 
d="M878 376v0q56 51 90.5 87.5l34.5 36.5q-1 -5 -37.5 -56t-98.5 -124l-75 -380l-52 243q-91 -89 -186.5 -141.5t-177.5 -27.5q-122 43 -183 125t-79.5 180t-13.5 191.5t15 160.5q3 28 5 49l320 112q-20 -42 -43.5 -127t-30 -185t25 -189t119.5 -139q40 -20 96 -0.5
t118 61.5l-117 535l372 112zM320 996l132 210h118l132 -210h-58l-133 128l-133 -128h-58z" />
    <glyph glyph-name="udieresis" unicode="&#xfc;" horiz-adv-x="1005" 
d="M872 376v0q56 51 90.5 87.5l34.5 36.5q-1 -5 -37.5 -56t-98.5 -124l-75 -380l-52 243q-91 -89 -186.5 -141.5t-177.5 -27.5q-122 43 -183 125t-79.5 180t-13.5 191.5t15 160.5q3 28 5 49l320 112q-20 -42 -43.5 -127t-30 -185t25 -189t119.5 -139q40 -20 96 -0.5
t118 61.5l-117 535l372 112zM312 1173l64 65q11 11 22 11q10 0 25 -13l62 -66q9 -12 9 -22q0 -12 -11 -25l-62 -68q-16 -15 -23 -15q-12 0 -22 11l-69 78q-8 11 -8 20q0 12 13 24zM569 1173l64 65q12 11 22 11t25 -12l62 -67q9 -12 9 -22q0 -12 -11 -24l-62 -69
q-15 -15 -23 -15q-12 0 -22 11l-69 79q-8 10 -8 19q0 12 13 24z" />
    <glyph glyph-name="yacute" unicode="&#xfd;" horiz-adv-x="980" 
d="M1006 912v0l-42.5 -119t-124 -293.5t-199 -352t-268 -304t-329.5 -147.5q4 12 12.5 63.5t18.5 113.5q7 45 13 82t10 55q23 -9 91.5 -19t148.5 0t135 60l-452 852l387 14l108 -782l135 764zM442 1259h208q-11 -11 -26 -22l-330 -238h-69z" />
    <glyph glyph-name="thorn" unicode="&#xfe;" horiz-adv-x="926" 
d="M897 429v0q11 -143 -41.5 -232.5t-142 -138t-188.5 -68t-182 -21.5l-30 -376l-17 104.5t-44 270.5l-53 4l-83 282q44 -6 91 -6q-40 246 -77.5 485.5t-60 399.5t-17.5 166q10 -1 67 -37t128.5 -83t126.5 -84l55 -37l-22 -282q90 -2 198 -30.5t191.5 -103t100.5 -213.5z
M367 267v0q127 34 203 104t73 157q-9 49 -87 108.5t-152 101.5z" />
    <glyph glyph-name="ydieresis" unicode="&#xff;" horiz-adv-x="983" 
d="M1009 912v0l-42.5 -119t-124 -293.5t-199 -352t-268 -304t-329.5 -147.5q4 12 12.5 63.5t18.5 113.5q7 45 13 82t10 55q23 -9 91.5 -19t148.5 0t135 60l-452 852l387 14l108 -782l135 764zM236 1173l64 65q11 11 22 11q10 0 25 -13l62 -66q9 -12 9 -22q0 -12 -11 -25
l-62 -68q-16 -15 -23 -15q-12 0 -22 11l-69 78q-8 11 -8 20q0 12 13 24zM493 1173l64 65q12 11 22 11t25 -12l62 -67q9 -12 9 -22q0 -12 -11 -24l-62 -69q-15 -15 -23 -15q-12 0 -22 11l-69 79q-8 10 -8 19q0 12 13 24z" />
    <glyph glyph-name="dotlessi" unicode="&#x131;" horiz-adv-x="447" 
d="M211 -37v0l188 960l-372 -112z" />
    <glyph glyph-name="circumflex" unicode="&#x2c6;" 
d="M429 996l132 210h118l132 -210h-58l-133 128l-133 -128h-58z" />
    <glyph glyph-name="caron" unicode="&#x2c7;" 
d="M429 1206h58l133 -128l133 128h58l-132 -210h-118z" />
    <glyph glyph-name="uni02C9" unicode="&#x2c9;" 
d="M362 1115v125l516 -125h-516z" />
    <glyph glyph-name="breve" unicode="&#x2d8;" 
d="M327 1278h51q17 -77 75 -113t167 -36t166 35.5t74 113.5h51q-20 -140 -94 -212.5t-197 -72.5q-122 0 -197 73t-96 212z" />
    <glyph glyph-name="dotaccent" unicode="&#x2d9;" 
d="M506 1131l69 72q6 6 13 9t14 3q6 0 12.5 -3t12.5 -9l71 -76q5 -4 7 -10t2 -14q-1 -9 -3 -15t-8 -12l-71 -76q-12 -11 -16 -13.5t-7 -2.5q-10 0 -16.5 2.5t-10.5 8.5l-75 87q-4 4 -6 9.5t-2 13.5q0 6 3 12.5t11 13.5z" />
    <glyph glyph-name="ring" unicode="&#x2da;" 
d="M537 1124q0 -31 21.5 -52.5t51.5 -21.5q31 0 52.5 21.5t21.5 52.5q0 29 -21.5 51t-52.5 22q-30 0 -51.5 -22t-21.5 -51zM481 1124q0 55 37.5 92.5t91.5 37.5q56 0 94 -38t38 -92q0 -55 -38 -93t-94 -38q-54 0 -91.5 38t-37.5 93z" />
    <glyph glyph-name="ogonek" unicode="&#x2db;" 
d="M748 0q-71 -62 -110.5 -119.5t-39.5 -112.5q0 -47 27 -75t73 -28q40 0 69.5 15.5t49.5 48.5l28 -16q-36 -63 -90.5 -97t-119.5 -34q-70 0 -114 35.5t-44 90.5q0 76 60.5 156.5t161.5 135.5h49z" />
    <glyph glyph-name="tilde" unicode="&#x2dc;" 
d="M914 1146q-37 -96 -89 -135.5t-120 -22.5l-4 1q-43 11 -94 47q-52 37 -94 48q-34 8 -57 -7t-43 -63l-47 12q37 99 90 140t122 23q40 -11 94 -47q52 -37 93 -47l4 -1q31 -8 54 7t44 57z" />
    <glyph glyph-name="hungarumlaut" unicode="&#x2dd;" 
d="M491 1259h208q-11 -11 -26 -22l-330 -238h-69zM916 1259h208q-11 -11 -26 -22l-330 -238h-69z" />
    <glyph glyph-name="endash" unicode="&#x2013;" 
d="M122 419v120l996 -120h-996z" />
    <glyph glyph-name="emdash" unicode="&#x2014;" horiz-adv-x="2085" 
d="M25 419v120l2048 -120h-2048z" />
    <glyph glyph-name="quoteleft" unicode="&#x2018;" 
d="M661 1016q-44 0 -88.5 65.5t-44.5 151.5q0 109 71 226.5t139 117.5v-43q-73 -43 -87 -190q0 -119 129 -161v-42z" />
    <glyph glyph-name="quoteright" unicode="&#x2019;" 
d="M580 1577q44 0 88.5 -65.5t44.5 -151.5q0 -109 -71 -226.5t-139 -117.5v43q73 43 87 190q0 119 -129 161v42z" />
    <glyph glyph-name="quotesinglbase" unicode="&#x201a;" 
d="M580 281q44 0 88.5 -65.5t44.5 -151.5q0 -109 -71 -226.5t-139 -117.5v43q73 43 87 190q0 119 -129 161v42z" />
    <glyph glyph-name="quotedblleft" unicode="&#x201c;" 
d="M484 1016q-44 0 -88.5 65.5t-44.5 151.5q0 109 71 226.5t139 117.5v-43q-73 -43 -87 -190q0 -119 129 -161v-42zM837 1016q-44 0 -88.5 65.5t-44.5 151.5q0 109 71 226.5t139 117.5v-43q-73 -43 -87 -190q0 -119 129 -161v-42z" />
    <glyph glyph-name="quotedblright" unicode="&#x201d;" 
d="M403 1577q44 0 88.5 -65.5t44.5 -151.5q0 -109 -71 -226.5t-139 -117.5v43q73 43 87 190q0 119 -129 161v42zM756 1577q44 0 88.5 -65.5t44.5 -151.5q0 -109 -71 -226.5t-139 -117.5v43q73 43 87 190q0 119 -129 161v42z" />
    <glyph glyph-name="quotedblbase" unicode="&#x201e;" 
d="M403 281q44 0 88.5 -65.5t44.5 -151.5q0 -109 -71 -226.5t-139 -117.5v43q73 43 87 190q0 119 -129 161v42zM756 281q44 0 88.5 -65.5t44.5 -151.5q0 -109 -71 -226.5t-139 -117.5v43q73 43 87 190q0 119 -129 161v42z" />
    <glyph glyph-name="dagger" unicode="&#x2020;" 
d="M942 1049v0v-200l-267 82l-68 -852l-67 852l-268 -82v200l265 -82l-30 378h200l-30 -378z" />
    <glyph glyph-name="daggerdbl" unicode="&#x2021;" 
d="M950 819v0l-267 82l-40 -505l307 95v-200l-308 94l-27 -336l-26 336l-309 -94v200l308 -95l-40 505l-268 -82v200l265 -82l-30 378h200l-30 -378l265 82v-200z" />
    <glyph glyph-name="bullet" unicode="&#x2022;" 
d="M324 718q0 123 87 209t210 86q122 0 208.5 -86.5t86.5 -208.5t-87.5 -209.5t-209.5 -87.5q-123 0 -209 87t-86 210z" />
    <glyph glyph-name="ellipsis" unicode="&#x2026;" 
d="M-259 167l82 84q15 14 29 14q13 0 31 -16l80 -86q12 -16 12 -29q0 -15 -14 -31l-80 -88q-20 -20 -29 -20q-16 0 -29 14l-88 101q-10 13 -10 26q0 15 16 31zM424 167l82 84q15 14 29 14q13 0 31 -16l80 -86q12 -16 12 -29q0 -15 -14 -31l-80 -88q-20 -20 -29 -20
q-16 0 -29 14l-88 101q-10 13 -10 26q0 15 16 31zM1107 167l82 84q15 14 29 14q13 0 31 -16l80 -86q12 -16 12 -29q0 -15 -14 -31l-80 -88q-20 -20 -29 -20q-16 0 -29 14l-88 101q-10 13 -10 26q0 15 16 31z" />
    <glyph glyph-name="guilsinglleft" unicode="&#x2039;" 
d="M479 479l342 303h14v-37l-205 -266l205 -266v-37h-14z" />
    <glyph glyph-name="guilsinglright" unicode="&#x203a;" 
d="M420 176h-14v37l205 266l-205 266v37h14l342 -303z" />
    <glyph glyph-name="fraction" unicode="&#x2044;" 
d="M107 -29l940 1461h154z" />
    <glyph glyph-name="fraction" unicode="&#x2215;" 
d="M107 -29l940 1461h154z" />
    <glyph glyph-name="franc" unicode="&#x20a3;" 
d="M1201 1409v0q0 -1 -1 -3l-2 -10q-10 -120 -20 -239q2 -39 6 -76q-295 43 -629 -24l42 -254l362 117l113 -278l-452 19l78 -483l-401 -168l94 660l-182 8l192 62l41 291q-150 -39 -302 -101l-45 -10l21 13q40 26 131.5 82t209.5 123l40 280l38 -237q121 65 237.5 118
t205.5 74q117 26 223 36zM95 411l1024 -105h-1024v105z" />
    <glyph glyph-name="lira" unicode="&#x20a4;" 
d="M640 456q5 -41 8 -79q6 -112 -57 -165q-16 -11 -34 -22q194 -24 332 99l102 99l265 -234l-242 -125q-98 -50 -207.5 -45.5t-201.5 61.5l-149 94q-154 -64 -313 -96t-208 -8q2 2 19 28q33 50 84 122.5t85 103.5q30 -66 84 -141l12 -3q1 0 2 1l1 1q59 35 75 116t6 188
q-3 26 -6 53l-222 30l218 1q-8 68 -20 138l-4 24l-210 33l202 19q-23 138 -21.5 250.5t57.5 166.5q28 25 103.5 50t164.5 39t157 4q101 -19 208 -88.5t174 -163.5q-113 8 -224 -7q-11 -1 -22 -4q-9 69 -34.5 111t-55 63t-51.5 28.5t-24 6.5q-100 -63 -118 -177t7 -249
l332 31l9 -216l-316 49q1 -8 3 -16q10 -46 18 -90l285 2v-120z" />
    <glyph glyph-name="peseta" unicode="&#x20a7;" 
d="M-293.697 1325v0l86.8525 9t212.405 3.5q125.554 -5.5 250.207 -45t206.556 -133t80.1025 -260.5q-8.10059 -134 -89.5527 -209.5t-194.855 -109q-113.402 -33.5 -216.006 -42.5l61.2021 -330l-52.6514 -30.5t-121.054 -70q-68.4014 -39.5 -124.653 -70t-63.4512 -30.5
q-7.20117 0 13.5 180.5q20.7002 180.5 51.3008 420q30.6016 239.5 57.6016 438.5q-25.2002 -1 -45.4512 -4q-20.25 -3 -45.4512 -9zM34.8115 579v0q113.403 32 180.905 103t63.002 159q-10.8008 98 -103.503 157.5q-92.7031 59.5 -228.606 57.5zM888 978v0l156 46l8 -214
l-179 12l-79 -843l-138 858l-207 13l195 57l-54 340l336 136zM1409 489v0q112 -70 189 -138t57 -134q-23 -60 -267 -189l4.5 -1.5l1.5 -0.5l19 -6l-14 -14q-3 -2 -12.5 -4.5t-21.5 -5t-21 -4t-10 -1.5q-49 -11 -127 -11q-10 0 -21 1q-86 0 -189.5 33.5t-192.5 126.5l-9 9
l10 8q37 27 90 63q32 22 63.5 44t39.5 30l14 31l6 -35q3 -25 29 -68t95.5 -92t202.5 -92v1q25 42 -8 93.5t-99.5 108t-143.5 113.5q-119 86 -200 166t-63 152q20 60 255 184l-16 5l14 14q1 1 2 1.5t3.5 1t7 1t12.5 1.5t20 1.5t30 1.5q59 3 156 0q239 -11 315 -83l10 -10
l-11 -8q-28 -22 -59 -63t-54 -78t-27 -46l-15 -32l-6 35q-3 25 -29 68t-95.5 92t-202.5 92v-2q-31 -41 -23 -85q17 -71 103.5 -141t187.5 -134z" />
    <glyph glyph-name="Euro" unicode="&#x20ac;" horiz-adv-x="1548" 
d="M1429 322v0v0v0zM853 39v0q84 73 148 143t112 156l316 -16q-1 -6 -28 -50.5t-91 -100t-175.5 -95.5t-281.5 -37zM1120 1344v0q42 -76 150.5 -180t210.5 -161q-71 0 -150.5 -30.5t-146.5 -63.5q-34 -17 -61 -29q-14 27 -66 107t-107.5 154.5t-80.5 85.5zM1141 462v0
l-447 26q8 -112 43.5 -224.5t104.5 -219.5q-194 107 -311 225.5t-172 238.5l-292 17l277 17q-34 85 -45 167l-232 13l229 14q-10 124 17 231l552 258q-45 -71 -91 -192t-70 -273l437 26v-127l-446 26q-5 -60 -5 -123l451 27v-127z" />
    <glyph glyph-name="uni2116" unicode="&#x2116;" 
d="M551 29l-473 731l140 -755q-68 0 -114.5 11t-108 25.5t-113 25t-65.5 9.5q-8 6 16.5 144.5t64 333t76.5 368.5q-63 99 -105 194.5t-44 98.5l425 -35l295 -1043l1 1078l41.5 3.5t122.5 11t144.5 13.5t74.5 7q3 0 -187.5 -610.5zM1360.18 898.6v0
q-1.32031 -0.599609 -11.2197 -0.900391q-9.89941 -0.299805 -23.0996 -0.599609q-13.1992 -0.299805 -23.0986 -0.299805q-7.25977 -0.600586 -9.89941 -0.600586q-133.975 -2.39941 -214.491 30.8994t-120.115 87.5967q-39.5986 54.2969 -48.8379 114.595
q-9.24023 60.2979 0 111.296q25.7383 17.3994 51.4775 35.3984q95.6963 70.7969 175.553 154.794q-47.5176 -92.3965 -56.7578 -182.993q-3.95996 -16.7988 6.92969 -74.6963q10.8896 -57.8984 62.6982 -131.095q51.8076 -73.1973 169.942 -135.595
q1.98047 3.59961 4.9502 62.3975t-7.91992 145.494t-50.8174 173.393q-39.9287 86.6963 -125.065 146.094q141.234 -17.3984 223.071 -65.9971q81.8359 -48.5977 118.795 -111.595q36.958 -62.998 42.2383 -124.795q-72.5967 -64.7979 -135.954 -140.995
q-10.5596 -12.5986 -24.4199 -31.1982q-13.8594 -18.5996 -25.7383 -34.1992q-12.54 -17.3984 -15.1797 -20.3984q0.660156 0 5.93945 -0.900391q5.28027 -0.899414 12.54 -2.09961t12.5391 -1.7998q5.28027 -0.600586 5.94043 -1.2002zM851 791l512 -105h-512v105z" />
    <glyph glyph-name="trademark" unicode="&#x2122;" 
d="M590.865 1332.03v0l-265.507 -46.002l92.7021 -370.023l-223.206 32.002l9.67578 52.0039q9.6748 52.0029 23.625 126.407q13.9502 74.4053 27.9014 147.609l-183.605 -31.6025v172.811l204.756 -32.8018q9 44.8027 11.25 52.0029l13.9502 -56.4033zM1134.67 1241.42v0
q27.4502 -56.8037 55.5762 -115.808q28.126 -59.0029 47.4766 -100.605l19.3506 -41.6025l-18.6758 -9.40039q-18.6758 -9.40137 -42.9766 -22.002t-43.4258 -23.001q-19.126 -10.4014 -22.7256 -13.2012q-1.7998 0 -7.42578 39.8027q-5.625 39.8018 -13.2754 101.006
q-7.64941 61.2041 -15.2998 125.208q-43.2012 -61.6035 -82.8027 -118.207q-39.6006 -56.6035 -65.7012 -93.4062l-26.1006 -36.8018l-27.2266 46.8027q-27.2256 46.8027 -66.8262 115.007q-39.6016 68.2041 -79.6523 136.208l1.34961 -303.218l-20.25 6.2002
q-20.251 6.2002 -47.252 14.001q-27 7.7998 -49.7256 14q-22.7256 6.20117 -29.0264 6.60059q-3.59961 2.40039 13.0508 56.6035t42.5264 130.208q25.875 76.0049 49.7256 144.009q-24.2998 41.6025 -39.1504 81.2051t-15.751 41.2021l216.006 -29.6016l54.002 -416.025
l127.804 419.226h27.6758h64.3516h65.252h33.5254q1.7998 0 -28.5762 -44.6025q-30.375 -44.6025 -75.8262 -109.807z" />
    <glyph glyph-name="partialdiff" unicode="&#x2202;" 
d="M1057 586v0q57 -201 0.5 -354t-217.5 -208q-139 -42 -298 6v0l-189 54q-112 34 -177 119t-72.5 191.5t55.5 204.5q63 97 184 135q98 29 208 12l140 -40q-76 258 -280 349q8 24 16 49q6 17 12 35q4 11 9 22q119 -8 244.5 -58.5t225 -172.5t139.5 -344zM572 80v0
q92 39 142 127.5t48.5 201t-63.5 224.5q-18 31 -39 60q-27 -6 -53 -16q-91 -38 -142 -126t-50.5 -200.5t62.5 -224.5q19 -33 41 -63q28 6 54 17z" />
    <glyph glyph-name="Delta" unicode="&#x2206;" 
d="M594 1195l-406 -1072h801zM627 1434l526 -1434h-1067z" />
    <glyph glyph-name="product" unicode="&#x220f;" 
d="M374 1384q-102 0 -102 -235v-1281q0 -235 102 -235h97v-51h-560v51h96q103 0 103 235v1281q0 235 -103 235h-96v50h1419v-50h-97q-102 0 -102 -235v-1281q0 -235 102 -235h97v-50h-560v50h96q103 0 103 235v1281q0 235 -103 235h-492z" />
    <glyph glyph-name="summation" unicode="&#x2211;" 
d="M1076 548l-788 -914h635q130 0 189 182h49l-103 -232h-921v50q62 0 106 53l663 781l-663 859q-44 57 -106 57v50h921l103 -232h-49q-59 182 -189 182h-485z" />
    <glyph glyph-name="minus" unicode="&#x2212;" 
d="M200 647v140l840 -140h-840z" />
    <glyph glyph-name="radical" unicode="&#x221a;" 
d="M294 0l-164 359l74 35l85 -185l728 1470h150v-60h-72z" />
    <glyph glyph-name="infinity" unicode="&#x221e;" 
d="M552 755q-15 103 -74 133q-46 22 -84 22q-12 0 -23 -2q-49 -10 -92.5 -44.5t-65.5 -84.5q-20 -46 -20 -90v-8q2 -48 27.5 -89t71.5 -58q29 -11 61 -11q16 0 33 3q47 10 90.5 43.5t75.5 185.5zM579 687q12 -96 94 -153q69 -48 123 -48q11 0 21 2q62 12 117.5 52t84.5 101
q26 54 26 108v11q-2 60 -35.5 108.5t-91.5 68.5q-37 13 -76 13q-22 0 -44 -4q-67 -9 -127 -62t-92 -197zM563 827q9 35 21 69q34 88 95 137t128 49t128 -48t95 -135t34 -182t-34 -182t-95 -135t-128 -48t-128 49t-95 136q-12 35 -21 70q-5 -21 -12 -41q-27 -73 -74 -113
t-99 -40t-100 41t-73.5 113.5t-25.5 149.5q0 76 25.5 149t73.5 114t100 41t99 -40t74 -112q7 -21 12 -42z" />
    <glyph glyph-name="integral" unicode="&#x222b;" 
d="M276 -281q-60 0 -60 29v159h36q1 -43 34.5 -64.5t63.5 -21.5h1q82 0 115 162q32 162 40 316l70 734l8 62q27 238 135 429.5t234 191.5q60 0 60 -29v-159h-36q-1 43 -35 64.5t-63 21.5q-71 0 -116 -155.5t-49 -363.5l-73 -767q-20 -231 -130.5 -420t-234.5 -189z" />
    <glyph glyph-name="approxequal" unicode="&#x2248;" 
d="M947 922l-26 -249q-70 -66 -131.5 -85t-117.5 -13q-60 6 -172 66t-171 66q-50 6 -258 -195l24 236q71 66 132.5 85.5t116.5 14.5q64 -7 175.5 -68.5t166.5 -66.5q52 -5 261 209zM947 512l-26 -249q-70 -66 -131.5 -85t-117.5 -13q-60 6 -172 66t-171 66q-50 6 -258 -195
l24 236q71 66 132.5 85.5t116.5 14.5q64 -7 175.5 -68.5t166.5 -66.5q52 -5 261 209z" />
    <glyph glyph-name="lessequal" unicode="&#x2264;" horiz-adv-x="956" 
d="M-51 702v0l864 -492l52 288l-796 192l760 172l52 372zM87 0v140l840 -140h-840z" />
    <glyph glyph-name="greaterequal" unicode="&#x2265;" horiz-adv-x="987" 
d="M1006 702l-932 532l52 -372l760 -172l-796 -192l52 -288l864 492v0zM87 0v140l840 -140h-840z" />
    <glyph glyph-name="uniF001" unicode="&#xf001;" 
d="M628 1427v0q31 -52 98 -131.5t145 -119.5q-51 1 -117 -24t-124 -52q-47 -22 -75 -32q-8 12 -28 52q-29 59 -67 127.5t-61 90.5l-38 -395l156 45l8 -214l-179 12l-79 -842l-138 857l-207 14l195 57l-54 340l336 136zM1082 37v0l188 960l-372 -112zM1309 1247v0l-196 232
l-254 -214l196 -232z" />
    <glyph glyph-name="uniF001" unicode="&#xfb01;" 
d="M628 1427v0q31 -52 98 -131.5t145 -119.5q-51 1 -117 -24t-124 -52q-47 -22 -75 -32q-8 12 -28 52q-29 59 -67 127.5t-61 90.5l-38 -395l156 45l8 -214l-179 12l-79 -842l-138 857l-207 14l195 57l-54 340l336 136zM1082 37v0l188 960l-372 -112zM1309 1247v0l-196 232
l-254 -214l196 -232z" />
    <glyph glyph-name="uniF002" unicode="&#xf002;" 
d="M728 1427v0q31 -52 98 -131.5t145 -119.5q-51 1 -117 -24t-124 -52q-47 -22 -75 -32q-8 12 -28 52q-29 59 -67 127.5t-61 90.5l-38 -395l156 45l8 -214l-179 12l-79 -842l-138 857l-207 14l195 57l-54 340l336 136zM981 -29v0l188 1293l-372 -151z" />
    <glyph glyph-name="uniF002" unicode="&#xfb02;" 
d="M728 1427v0q31 -52 98 -131.5t145 -119.5q-51 1 -117 -24t-124 -52q-47 -22 -75 -32q-8 12 -28 52q-29 59 -67 127.5t-61 90.5l-38 -395l156 45l8 -214l-179 12l-79 -842l-138 857l-207 14l195 57l-54 340l336 136zM981 -29v0l188 1293l-372 -151z" />
    </font>
</defs>
</svg>
