<svg xmlns="http://www.w3.org/2000/svg" style="border: 0 !important; clip: rect(0 0 0 0) !important; height: 1px !important; margin: -1px !important; overflow: hidden !important; padding: 0 !important; position: absolute !important; width: 1px !important;" class="root-svg-symbols-element">
  <defs>
      <clipPath id="a"><path fill-opacity=".67" d="M-85.333 0h682.67v512h-682.67z"/></clipPath>
  </defs>
    <symbol id="arrow" viewBox="0 0 768 768">
      <title/><path d="M128.403 177.606L9.61 296.399 384.012 670.8l374.401-374.402-118.789-118.789-255.599 255.597z"/>
    </symbol>
    <symbol id="burger" viewBox="0 0 512 512">
      <path d="M32 96h448v96H32zm0 128h448v96H32zm0 128h448v96H32z"/>
    </symbol>
    <symbol id="cart" viewBox="0 0 512 512">
      <path d="M245.914 425.453c0 16.547-13.414 29.953-29.961 29.953C199.414 455.406 186 442 186 425.453s13.414-29.953 29.953-29.953c16.547 0 29.961 13.406 29.961 29.953zm168.055 0c0 16.547-13.422 29.953-29.969 29.953-16.531 0-29.953-13.406-29.953-29.953S367.469 395.5 384 395.5c16.547 0 29.969 13.406 29.969 29.953z" fill="#434a54"/><path fill="#B5B5B5" d="M448 384H181.336c-5.883 0-10.672-4.781-10.672-10.656 0-5.891 4.789-10.688 10.672-10.688H448L512 128H128.844l-18.18-66.812-.008.016a10.69 10.69 0 0 0-9.023-7.797L11.93 42.75h-.008a8.35 8.35 0 0 0-1.258-.094C4.773 42.656 0 47.438 0 53.344c0 5.453 4.109 9.953 9.406 10.578l82.562 9.828 73.953 271.531c-9.883 5.438-16.586 15.969-16.586 28.062 0 16.062 11.828 29.344 27.258 31.641a42.392 42.392 0 0 0-5.93 21.672c0 23.562 19.102 42.688 42.672 42.688 23.562 0 42.664-19.125 42.664-42.688a42.439 42.439 0 0 0-5.719-21.312h96.781c-3.641 6.266-5.719 13.547-5.719 21.312 0 23.562 19.094 42.688 42.656 42.688s42.656-19.125 42.656-42.688c0-7.766-2.078-15.047-5.719-21.312H448c5.891 0 10.656-4.781 10.656-10.688 0-5.875-4.765-10.656-10.656-10.656zm-149.344-42.656h-49.469l-8-53.344h57.469v53.344zm0-74.688h-60.672l-8-53.312h68.672v53.312zm123.391-117.312h62.016L472.438 192h-56.797l6.406-42.656zm-9.609 64h54.188l-14.562 53.312h-47.625l7.999-53.312zM446.25 288l-14.547 53.344H393.25l8-53.344h45zM320 149.344h80.469L394.062 192H320v-42.656zm0 64h70.875l-8 53.312H320v-53.312zM320 288h59.672l-8 53.344H320V288zm-21.344-138.656V192h-71.867l-6.406-42.656h78.273zm-71.039 192h-40.656L172.414 288h47.203l8 53.344zm-28.805-192L205.211 192h-58.977l-11.641-42.656h64.219zm-46.757 64h56.359l8 53.312h-49.82l-14.539-53.312zM213.336 448C201.57 448 192 438.438 192 426.656c0-11.75 9.57-21.312 21.336-21.312 11.758 0 21.328 9.562 21.328 21.312 0 11.782-9.57 21.344-21.328 21.344zM384 448c-11.766 0-21.344-9.562-21.344-21.344 0-11.75 9.578-21.312 21.344-21.312s21.344 9.562 21.344 21.312c0 11.782-9.578 21.344-21.344 21.344z"/><path fill="#fff" d="M384 437.344c5.891 0 10.656-4.781 10.656-10.688 0-5.875-4.766-10.656-10.656-10.656s-10.656 4.781-10.656 10.656c0 5.906 4.765 10.688 10.656 10.688zm-170.664 0c5.891 0 10.664-4.781 10.664-10.688 0-5.875-4.773-10.656-10.664-10.656s-10.672 4.781-10.672 10.656c0 5.906 4.781 10.688 10.672 10.688z"/><path fill="#e1e1e1" d="M120 138l60 213h257l61-213z"/>
    </symbol>
    <symbol id="en" viewBox="0 0 640 480">
      <g clip-path="url(#a)" transform="translate(80) scale(.94)"><g stroke-width="1pt"><path fill="#006" d="M-256 0H768.02v512.01H-256z"/><path d="M-256 0v57.244l909.535 454.768H768.02V454.77L-141.515 0H-256zM768.02 0v57.243L-141.515 512.01H-256v-57.243L653.535 0H768.02z" fill="#fff"/><path d="M170.675 0v512.01h170.67V0h-170.67zM-256 170.67v170.67H768.02V170.67H-256z" fill="#fff"/><path d="M-256 204.804v102.402H768.02V204.804H-256zM204.81 0v512.01h102.4V0h-102.4zM-256 512.01L85.34 341.34h76.324l-341.34 170.67H-256zM-256 0L85.34 170.67H9.016L-256 38.164V0zm606.356 170.67L691.696 0h76.324L426.68 170.67h-76.324zM768.02 512.01L426.68 341.34h76.324L768.02 473.848v38.162z" fill="#c00"/></g></g>
    </symbol>
    <symbol id="letter" viewBox="0 0 39.474 39.474">
      <path d="M38.347 4.825c.619 0 1.127.508 1.127 1.127v27.571c0 .619-.508 1.127-1.127 1.127H1.111A1.12 1.12 0 0 1 0 33.522V5.952c0-.619.492-1.127 1.111-1.127h37.236zM19.729 20.348l8.444-7.301 6.904-5.984H4.381l6.904 5.984 8.444 7.301zm9.904-5.619l-9.158 7.936a1.132 1.132 0 0 1-1.476.016l-9.174-7.952-7.587-6.571v23.158l7.587-6.587 4.254-3.667a1.095 1.095 0 0 1 1.571.111c.413.46.349 1.175-.111 1.571l-4.254 3.682-6.904 5.968h30.697l-6.904-5.968-4.254-3.682a1.123 1.123 0 0 1-.111-1.571 1.096 1.096 0 0 1 1.571-.111l4.254 3.667 7.603 6.587V8.158l-7.604 6.571z"/>
    </symbol>
    <symbol id="lv" viewBox="0 0 640 480">
      <g fill-rule="evenodd"><path fill="#fff" d="M0 0h640v480.003H0z"/><path fill="#ab231d" d="M0 0h640v192.001H0zm0 288.002h640v192.001H0z"/></g>
    </symbol>
    <symbol id="ru" viewBox="0 0 640 480">
      <g fill-rule="evenodd" stroke-width="1pt"><path fill="#fff" d="M0 0h640v480H0z"/><path fill="#0039a6" d="M0 160.003h640V480H0z"/><path fill="#d52b1e" d="M0 319.997h640V480H0z"/></g>
    </symbol>
    <symbol id="search" viewBox="0 0 768 768">
      <title/><path d="M248.615 329.847c0-104.5 85.038-189.538 189.539-189.538s189.538 85.038 189.538 189.538-85.038 189.538-189.538 189.538-189.538-85.038-189.538-189.538zM32 681.847c0 29.615 24.539 54.154 54.154 54.154 14.385 0 28.346-5.923 38.077-16.077l145.115-144.693c49.5 34.269 108.731 52.462 168.807 52.462C602.731 627.693 736 494.424 736 329.846S602.731 31.999 438.153 31.999 140.306 165.268 140.306 329.846c0 60.077 18.191 119.307 52.462 168.807L47.653 643.768C37.923 653.499 32 667.46 32 681.845z"/>
    </symbol></svg>