<?xml version="1.0" encoding="utf-8"?><svg xmlns="http://www.w3.org/2000/svg" xmlns:xlink="http://www.w3.org/1999/xlink"><symbol viewBox="0 0 255.7384 255.37164" id="ic-chevron" xmlns="http://www.w3.org/2000/svg"><path d="M109.347 254.463c-41.299-6-76.958-31.814-95.896-69.42C-2.264 153.839-4.324 116.154 7.877 83.1 27.137 30.922 79.525-3.154 135.28.23c46.586 2.828 86.278 29.141 107.324 71.149 17.518 34.964 17.514 77.828-.012 112.915-17.9 35.836-50.036 60.703-89.244 69.057-9.953 2.12-33.038 2.704-44 1.111zm-36.745-83.626c.875 0 13.663-12.019 28.418-26.708l26.827-26.709 26.75 26.574c28.332 28.145 29.543 29.038 35.75 26.373 1.65-.708 7.613-6.002 13.25-11.764 9.847-10.063 10.25-10.648 10.25-14.857v-4.381L173.084 98.6 132.32 57.837h-8.945L82.61 98.601l-40.764 40.764v4.38c0 4.21.404 4.795 10.25 14.857 9.92 10.137 14.805 13.665 17.582 12.699.733-.255 2.048-.464 2.923-.464z"/></symbol><symbol viewBox="0 0 206 256" id="ic-copy" xmlns="http://www.w3.org/2000/svg"><path d="M13.566 255.08c-4.374-1.314-9.504-5.709-11.71-10.032-1.97-3.864-2.001-5.542-1.74-95.85L.38 57.281l3.058-3.843c1.682-2.113 5.057-4.864 7.5-6.112l4.442-2.27 65.073.27 65.074.27 4.054 2.683c2.64 1.748 4.967 4.517 6.676 7.946l2.623 5.264v88.835c0 97.157.262 92.68-5.803 99.148-1.484 1.582-4.497 3.71-6.697 4.728-3.765 1.743-7.709 1.848-67 1.788-34.65-.035-64.267-.444-65.815-.909zm128.86-15.439l2.455-2.454V150.14c0-85.712-.03-87.076-2-89.045-1.957-1.957-3.334-2-63.672-2-55.982 0-61.84.153-63.5 1.655-1.745 1.58-1.828 5.68-1.828 89.943v88.289l2.222 1.556c1.953 1.368 9.615 1.557 63.046 1.557h60.823l2.454-2.455zm36.47-31.252c-3.508-4.46-.216-11.293 5.44-11.293 1.23 0 2.98-.823 3.89-1.829 1.513-1.672 1.655-9.355 1.655-89.943V17.209l-2.223-1.556c-1.952-1.368-9.64-1.557-63.325-1.557H63.229l-2.174 2.314c-1.196 1.273-2.174 3.298-2.174 4.5 0 3.085-3.473 6.186-6.928 6.186-3.514 0-7.083-3.991-7.05-7.885.058-6.947 7.397-15.989 14.711-18.125C62.23.322 82.837.079 127.045.291l63.665.305 4.327 3.042c2.38 1.672 5.34 4.822 6.577 7l2.251 3.958-.242 92.157-.242 92.158-3.058 3.842c-3.722 4.677-10.568 8.343-15.582 8.343-2.847 0-4.212-.632-5.844-2.707z"/></symbol><symbol viewBox="0 0 60 128" id="ic-facebook" xmlns="http://www.w3.org/2000/svg"><path d="M13 96V64H0V42h13l.02-6.25C13.108 7.829 20.792 0 48.105 0H60v22h-8c-10.902 0-12 1.098-12 12v8h10.067c9.117 0 10.02.165 9.556 1.75-.282.962-.82 5.912-1.197 11L57.742 64H40v64H13V96z"/></symbol><symbol viewBox="0 0 45 30" id="ic-gb" xmlns="http://www.w3.org/2000/svg"><clipPath id="da"><path d="M22.5 15H45v15zv15H0zH0V0zV0H45z"/></clipPath><path d="M0 0v30h45V0z" fill="#00247d"/><path d="M0 0l45 30m0-30L0 30" stroke="#fff" stroke-width="6"/><path d="M0 0l45 30m0-30L0 30" clip-path="url(#da)" stroke="#cf142b" stroke-width="4"/><path d="M22.5 0v30M0 15h45" stroke="#fff" stroke-width="10"/><path d="M22.5 0v30M0 15h45" stroke="#cf142b" stroke-width="6"/></symbol><symbol viewBox="0 0 123.021 127.70194" id="ic-google" xmlns="http://www.w3.org/2000/svg"><path d="M22.916 126.424c-10.928-2.461-17.532-6.797-21.15-13.888-1.612-3.16-1.975-5.397-1.665-10.257.875-13.75 11.738-22.159 33.534-25.96 4.747-.827 8.849-1.723 9.116-1.99.268-.268-.362-1.425-1.4-2.571-1.99-2.2-2.584-8.653-1.155-12.56.735-2.007.415-2.156-5.5-2.555-7.331-.495-12.242-2.618-17.207-7.44-5.864-5.695-7.056-8.8-7.05-18.373.005-7.27.392-9.237 2.677-13.59C17.816 8.286 25.883 2.752 37.02.843 40.542.24 51.253-.122 60.857.038l17.44.292-3.294 3.75c-2.775 3.16-3.924 3.75-7.294 3.75h-4l3.085 3.513c5.277 6.01 6.57 9.353 6.57 16.987 0 9.026-1.613 12.104-11.028 21.05-6.715 6.38-7.42 7.414-7.42 10.891 0 3.163.634 4.39 3.585 6.95C70.503 77.63 73.852 81.253 75.924 86.068c4.23 9.833 1.163 22.761-7.189 30.307-10.415 9.41-29.788 13.658-45.819 10.049zm35.216-9.875c5.83-3.416 8.913-7.676 9.532-13.169.72-6.398-1.757-10.498-10.568-17.485l-7.659-6.072-6.51.604c-14.82 1.375-23.387 5.3-26.99 12.364-2.625 5.144-2.538 10.576.246 15.445 4.69 8.202 13.474 11.79 27.764 11.34 8.262-.26 10.15-.662 14.185-3.027zm-6.2-66.543c2.14-1.12 4.382-3.532 5.81-6.25 1.968-3.746 2.241-5.402 1.778-10.774C57.87 13.826 42.363.385 30.814 8.1c-4.726 3.157-6.894 7.967-6.896 15.298-.003 11.233 5.006 22.027 12.279 26.461 4.088 2.493 11.128 2.559 15.735.147zM95.916 72.87v-7.96l-8.25-.29-8.25-.29-.302-5.25-.302-5.25h17.104v-16h10v16h17.105l-.302 5.25-.303 5.25-8.25.29-8.25.29v15.92h-10v-7.96z"/></symbol><symbol viewBox="0 0 255.3118 246.07669" id="ic-house" xmlns="http://www.w3.org/2000/svg"><path d="M35.656 245.306c-3.976-1.42-4-1.777-4-58.306 0-42.2.284-54.97 1.25-56.17 2.284-2.834 4.715-2.956 7.305-.365l2.445 2.444V235h53v-35.309c0-28.916.257-35.66 1.42-37.25 1.348-1.845 2.868-1.941 30.58-1.941s29.232.097 30.58 1.941c1.163 1.59 1.42 8.334 1.42 37.25V235h53v-48.277c0-52.467.026-52.723 5.485-52.723 5.66 0 5.515-1.464 5.515 55.38 0 43.52-.237 52.562-1.419 54.179-1.347 1.844-3.091 1.955-35.007 2.23l-33.588.288-2.493-2.493-2.493-2.493V171h-42v70.091l-2.455 2.454-2.454 2.455-32.296-.079c-17.762-.043-32.97-.32-33.795-.615zm-32.72-112.38c-1.221-.462-2.52-2.037-2.888-3.501-.62-2.467 3.981-7.31 62.736-66.044C97.657 28.521 126.85 0 127.656 0c.807 0 30 28.522 64.872 63.381 58.755 58.734 63.355 63.577 62.736 66.044-.787 3.134-4.244 4.765-7.108 3.353-1.1-.542-28.663-27.6-61.25-60.129l-59.25-59.143-59.25 59.143c-32.588 32.529-60.15 59.587-61.25 60.129-1.16.572-2.932.634-4.22.147zm201.291-75.497c-1.304-1.305-1.571-4.444-1.571-18.5V22H186.11c-16.214 0-16.594-.049-18.99-2.444-1.598-1.6-2.226-3.07-1.814-4.25 1.4-4.017 3.01-4.306 23.97-4.306 17.064 0 20.483.246 21.808 1.571 1.329 1.329 1.572 4.801 1.572 22.429 0 22.172-.38 24-5 24-1.022 0-2.564-.707-3.429-1.571z"/></symbol><symbol viewBox="0 0 128 128" id="ic-instagram" xmlns="http://www.w3.org/2000/svg"><path d="M26.303 126.374c-11.863-3.192-21.52-13-24.656-25.043-2.196-8.432-2.196-66.35 0-74.782C4.84 14.293 14.487 4.646 26.743 1.454c8.431-2.196 66.35-2.196 74.781 0 8 2.083 15.74 7.47 20.037 13.944 6.043 9.102 6.573 13.017 6.573 48.542 0 35.525-.53 39.44-6.573 48.543-4.297 6.473-12.037 11.86-20.037 13.944-8.165 2.127-67.275 2.085-75.221-.053zm76.234-11.87c4.977-2.47 9.69-7.183 12.16-12.16 1.803-3.634 1.937-6.29 1.937-38.404 0-38.331-.02-38.452-7.034-45.466-7.014-7.015-7.135-7.034-45.466-7.034-38.332 0-38.453.019-45.467 7.034-6.876 6.875-7 7.589-7.348 42.3-.196 19.467.085 33.2.74 36.258 1.971 9.189 9.097 16.725 17.828 18.855 2.06.503 18.372.833 36.247.734 29.923-.167 32.809-.334 36.403-2.118zM56.063 95.631c-15.07-4.259-24.336-16.32-24.381-31.74-.02-6.523.42-8.445 3.235-14.164C40.74 37.9 50.987 31.51 64.134 31.51c13.146 0 23.393 6.39 29.216 18.217 7.963 16.175 1.513 35.32-14.552 43.192-7.31 3.583-15.99 4.618-22.735 2.712zm17.57-12.427c7.508-3.75 11.817-10.776 11.817-19.265 0-12.202-9.118-21.323-21.316-21.323-12.197 0-21.313 9.118-21.32 21.323-.01 16.022 16.569 26.384 30.82 19.265zm19.424-48.188c-1.608-1.608-2.923-3.603-2.923-4.435 0-8.851 12.128-12.323 15.45-4.423 1.647 3.918.866 7.387-2.206 9.804-3.534 2.78-6.905 2.47-10.321-.946z"/></symbol><symbol viewBox="0 0 900 600" id="ic-lv" xmlns="http://www.w3.org/2000/svg"><path fill="#9E3039" d="M0 0h900v600H0"/><path fill="#FFF" d="M0 240h900v120H0"/></symbol><symbol viewBox="0 0 172 256" id="ic-mouse" xmlns="http://www.w3.org/2000/svg"><path d="M67.5 254.206c-26.69-5.692-47.757-22.125-59.456-46.376C-.25 190.634.001 193.13.001 128.16s-.252-62.474 8.043-79.67C19.988 23.73 42.03 6.927 69.361 1.745c10.598-2.01 19.682-2.01 30.28 0 27.33 5.182 49.373 21.985 61.317 46.745 8.295 17.196 8.043 14.7 8.043 79.67 0 52.425-.16 58.074-1.81 64-4.27 15.335-15.982 34.098-26.953 43.176-21.007 17.386-47.488 24.255-72.737 18.87zm35.5-10.098c4.4-1.052 11.826-3.816 16.5-6.144 6.927-3.449 10.26-5.997 18-13.768 10.75-10.79 16.249-19.926 20.186-33.536 2.293-7.926 2.315-8.503 2.315-62.5s-.021-54.574-2.315-62.5c-3.937-13.61-9.437-22.747-20.185-33.536-7.747-7.777-11.069-10.316-18-13.764-22.626-11.254-47.374-11.254-70 0-6.932 3.448-10.253 5.987-18 13.764C20.752 42.914 15.253 52.05 11.315 65.66c-2.293 7.926-2.314 8.503-2.314 62.5s.021 54.574 2.314 62.5c3.856 13.329 9.473 22.773 19.686 33.103 10.046 10.161 18.034 15.19 30.333 19.098 13.482 4.283 27.236 4.695 41.667 1.247zM81.059 78.938C79.764 77.09 79.5 73.022 79.5 54.871c0-13.145.412-22.614 1.035-23.778 1.396-2.61 6.533-2.61 7.93 0 .623 1.164 1.035 10.633 1.035 23.778 0 18.151-.263 22.219-1.557 24.065-.856 1.223-2.406 2.223-3.443 2.223-1.038 0-2.587-1-3.443-2.223z"/></symbol><symbol viewBox="0 0 85 85" id="ic-play" xmlns="http://www.w3.org/2000/svg"><circle class="jcircle" r="38" cx="42.5" cy="42.5" fill="none"/><path d="M42.725 15.926a26.472 26.998 82.874 0 0-27.121 26.48 26.472 26.998 82.874 0 0 26.859 26.48 26.472 26.998 82.874 0 0 27.121-26.48 26.472 26.998 82.874 0 0-26.86-26.48zm-7.479 11.67L46.4 35.244l11.157 7.65-11.383 7.202-11.383 7.203.227-14.852.228-14.851z"/></symbol><symbol viewBox="0 0 9 6" id="ic-ru" xmlns="http://www.w3.org/2000/svg"><path fill="#fff" d="M0 0h9v3H0z"/><path fill="#d52b1e" d="M0 3h9v3H0z"/><path fill="#0039a6" d="M0 2h9v2H0z"/></symbol><symbol viewBox="0 0 78.006279 127.71116" id="ic-tumblr" xmlns="http://www.w3.org/2000/svg"><path d="M38 126.713c-3.025-.731-6.625-1.804-8-2.384-4.996-2.108-10.997-7.323-13.223-11.49-2.173-4.069-2.3-5.544-2.777-32.264l-.5-28-6.75-.296L0 51.984v-17.51l4.463-2.169c9.826-4.774 16.747-13.656 19.66-25.23l1.634-6.5L34.88.288 44 0v32.075h30v20H43.869l.316 23.921c.312 23.664.34 23.95 2.712 26.471 1.318 1.403 3.972 3.07 5.896 3.705 4.943 1.631 14.464.525 20.288-2.357L78 101.381v9.812c0 11.144.603 10.31-10 13.843-8.184 2.726-22.373 3.52-30 1.677z"/></symbol><symbol viewBox="0 0 125.84149 103.47957" id="ic-twitter" xmlns="http://www.w3.org/2000/svg"><path d="M28.5 102.68c-2.75-.413-7.025-1.3-9.5-1.971-4.56-1.236-19-7.551-19-8.31 0-.227 3.316-.476 7.369-.553 8.457-.161 19.482-3.468 25.985-7.794l4.146-2.76-3.766-.792c-7.458-1.571-13.38-5.76-18.08-12.79-2.293-3.429-2.085-5.14.596-4.91 1.237.106 3.6.113 5.25.015l3-.177-4.065-1.847C11.95 56.938 6.267 49.634 4.592 40.431c-.749-4.114-.74-4.124 2.593-2.896 1.273.47 3.622 1.17 5.22 1.558l2.904.704-3.299-3.757c-4.59-5.227-7.167-11.57-7.223-17.78C4.74 12.95 6.533 5.682 7.89 5.682c.405 0 2.058 1.397 3.673 3.104 11.17 11.806 33.828 22.816 47.087 22.88l3.15.016v-5.88c0-21.212 23.195-33.04 41.099-20.956 4.241 2.863 4.724 2.966 8.548 1.824 2.23-.666 5.74-2.07 7.803-3.12C121.313 2.5 123 2.012 123 2.466c0 1.648-5.85 9.998-8.118 11.586-2.984 2.09-.929 2.15 5.662.166 2.675-.804 5.052-1.274 5.283-1.043.23.231-2.267 3.106-5.55 6.39l-5.97 5.969-.622 7.824c-1.984 24.927-16.023 48.205-36.222 60.064-14.174 8.321-32.347 11.757-48.963 9.258z"/></symbol><symbol viewBox="0 0 127.34376 89.667381" id="ic-youtube" xmlns="http://www.w3.org/2000/svg"><path d="M20 88.46c-7.41-1.938-9.665-3.057-13.19-6.545C.757 75.922 0 71.535 0 42.377c0-25.734.026-26.052 2.5-31 1.932-3.863 3.525-5.51 7.007-7.24C17.555.14 23.311-.261 67.298.109c46.04.388 47.906.626 54.192 6.913 4.577 4.577 5.255 8.436 5.75 32.765.707 34.659-1.969 42.847-15.74 48.166-5.057 1.954-84.288 2.393-91.5.507zm49.053-33.881C82.249 47.733 83 47.183 83 44.36c0-2.792-.768-3.39-12-9.339-17.389-9.21-17.764-9.349-20.349-7.538-2.038 1.428-2.151 2.29-2.151 16.45 0 13.553.184 15.128 1.977 16.92 2.352 2.352 1.19 2.744 18.576-6.274z"/></symbol></svg>