<svg id="OBJECTS" xmlns="http://www.w3.org/2000/svg" viewBox="0 0 358.98 259.9"><defs><style>.cls-1{fill:#dd8dff;}.cls-2{fill:#fff;}.cls-3{fill:#b89dff;}.cls-4{fill:#8dafff;}</style>
<symbol viewBox="0 0 255.3118 246.07669" id="ic-house" xmlns="http://www.w3.org/2000/svg"><path d="M35.656 245.306c-3.976-1.42-4-1.777-4-58.306 0-42.2.284-54.97 1.25-56.17 2.284-2.834 4.715-2.956 7.305-.365l2.445 2.444V235h53v-35.309c0-28.916.257-35.66 1.42-37.25 1.348-1.845 2.868-1.941 30.58-1.941s29.232.097 30.58 1.941c1.163 1.59 1.42 8.334 1.42 37.25V235h53v-48.277c0-52.467.026-52.723 5.485-52.723 5.66 0 5.515-1.464 5.515 55.38 0 43.52-.237 52.562-1.419 54.179-1.347 1.844-3.091 1.955-35.007 2.23l-33.588.288-2.493-2.493-2.493-2.493V171h-42v70.091l-2.455 2.454-2.454 2.455-32.296-.079c-17.762-.043-32.97-.32-33.795-.615zm-32.72-112.38c-1.221-.462-2.52-2.037-2.888-3.501-.62-2.467 3.981-7.31 62.736-66.044C97.657 28.521 126.85 0 127.656 0c.807 0 30 28.522 64.872 63.381 58.755 58.734 63.355 63.577 62.736 66.044-.787 3.134-4.244 4.765-7.108 3.353-1.1-.542-28.663-27.6-61.25-60.129l-59.25-59.143-59.25 59.143c-32.588 32.529-60.15 59.587-61.25 60.129-1.16.572-2.932.634-4.22.147zm201.291-75.497c-1.304-1.305-1.571-4.444-1.571-18.5V22H186.11c-16.214 0-16.594-.049-18.99-2.444-1.598-1.6-2.226-3.07-1.814-4.25 1.4-4.017 3.01-4.306 23.97-4.306 17.064 0 20.483.246 21.808 1.571 1.329 1.329 1.572 4.801 1.572 22.429 0 22.172-.38 24-5 24-1.022 0-2.564-.707-3.429-1.571z"/></symbol>
</defs>
    <title>buy-road</title>
    <path class="cls-1" d="M228.51,124a44,44,0,0,0-.29-88v5.38a38.63,38.63,0,0,1,.29,77.24h-0.3V124h0.3Z" transform="translate(-48.59 -29.38)" ></path>
    <path class="cls-1" d="M136.35,41.37h92.1c-0.09-2.42-.14-5.09.09-5.4H136.35v5.4Z" transform="translate(-48.59 -29.38)" ></path>
    <rect class="cls-1" width="99.83" height="19.04" ></rect>
    <circle class="cls-1" cx="178.66" cy="43.26" r="25.47" ></circle>
    <circle class="cls-2" cx="178.66" cy="43.26" r="15.97" ></circle>
    <use width="21" height="23" x="168.5" fill="#1f6bff" y="30" xmlns:xlink="http://www.w3.org/1999/xlink" xlink:href="#ic-house"></use>
    <path class="cls-2" d="M227.25,94.71a22.07,22.07,0,1,1,22.07-22.07A22.1,22.1,0,0,1,227.25,94.71Zm0-43.16a21.09,21.09,0,1,0,21.09,21.09A21.11,21.11,0,0,0,227.25,51.54Z" transform="translate(-48.59 -29.38)" ></path>
    <polygon class="cls-1" points="147.44 43.04 124.05 43.04 124.05 37.55 118.01 41.03 111.98 44.52 118.01 48 124.05 51.48 124.05 45.99 147.44 45.99 147.44 43.04" ></polygon>
    <rect class="cls-3" x="179.62" y="89.23" width="91.33" height="5.44" ></rect>
    <path class="cls-3" d="M227.54,201.25h-0.29v0a38.63,38.63,0,0,1-.68-77.25l0.68,0h0.29l0.66,0v-5.4l-0.66,0h-0.29l-0.68,0a44,44,0,0,0,.68,88v0h0.29l0.66,0v-5.39h-0.66Z" transform="translate(-48.59 -29.38)" ></path>
    <circle class="cls-3" cx="178.66" cy="125.87" r="25.47" ></circle>
    <circle class="cls-2" cx="178.66" cy="125.87" r="15.97" ></circle>
    <use width="21" height="23" x="168.5" fill="#1f6bff" y="113" xmlns:xlink="http://www.w3.org/1999/xlink" xlink:href="#ic-house"></use>
    <path class="cls-2" d="M227.25,177.32a22.07,22.07,0,1,1,22.07-22.07A22.1,22.1,0,0,1,227.25,177.32Zm0-43.16a21.09,21.09,0,1,0,21.09,21.09A21.11,21.11,0,0,0,227.25,134.16Z" transform="translate(-48.59 -29.38)" ></path>
    <rect class="cls-3" x="307.74" y="111.8" width="99.83" height="19.04" transform="translate(666.73 213.27) rotate(180)" ></rect>
    <polygon class="cls-3" points="211.54 125.79 234.94 125.79 234.94 120.3 240.97 123.78 247 127.27 240.97 130.75 234.94 134.24 234.94 128.75 211.54 128.75 211.54 125.79" ></polygon>
    <path class="cls-4" d="M242.73,286.6a44,44,0,0,0-14.53-85.34v5.39a38.63,38.63,0,0,1,0,77.25v5.39A43.92,43.92,0,0,0,242.73,286.6Z" transform="translate(-48.59 -29.38)" ></path>
    <circle class="cls-4" cx="178.66" cy="208.49" r="25.47" ></circle>
    <circle class="cls-2" cx="178.66" cy="208.49" r="15.97" ></circle>
    <use width="21" height="23" x="168.5" fill="#1f6bff" y="196" xmlns:xlink="http://www.w3.org/1999/xlink" xlink:href="#ic-house"></use>
    <path class="cls-2" d="M227.25,259.94a22.07,22.07,0,1,1,22.07-22.07A22.1,22.1,0,0,1,227.25,259.94Zm0-43.16a21.09,21.09,0,1,0,21.09,21.09A21.11,21.11,0,0,0,227.25,216.78Z" transform="translate(-48.59 -29.38)" ></path>
    <polygon class="cls-4" points="147.44 210.51 124.05 210.51 124.05 205.02 118.01 208.51 111.98 211.99 118.01 215.47 124.05 218.96 124.05 213.47 147.44 213.47 147.44 210.51" ></polygon>
    <path class="cls-4" d="M136.35,206.59h92.1c-0.09-2.42-.14-5.09.09-5.4H136.35v5.4Z" transform="translate(-48.59 -29.38)" ></path>
    <rect class="cls-4" y="165.22" width="99.83" height="19.04" ></rect></svg>