<svg id="OBJECTS" xmlns="http://www.w3.org/2000/svg" viewBox="0 0 358.98 259.9"><title>buy-road</title><path d="M228.51,124a44,44,0,0,0-.29-88v5.38a38.63,38.63,0,0,1,.29,77.24h-0.3V124h0.3Z" transform="translate(-48.59 -29.38)" style="fill:#dd8dff"/><path d="M136.35,41.37h92.1c-0.09-2.42-.14-5.09.09-5.4H136.35v5.4Z" transform="translate(-48.59 -29.38)" style="fill:#dd8dff"/><rect width="99.83" height="19.04" style="fill:#dd8dff"/><circle cx="178.66" cy="43.26" r="25.47" style="fill:#dd8dff"/><circle cx="178.66" cy="43.26" r="15.97" style="fill:#fff"/><path d="M227.25,94.71a22.07,22.07,0,1,1,22.07-22.07A22.1,22.1,0,0,1,227.25,94.71Zm0-43.16a21.09,21.09,0,1,0,21.09,21.09A21.11,21.11,0,0,0,227.25,51.54Z" transform="translate(-48.59 -29.38)" style="fill:#fff"/><polygon points="147.44 43.04 124.05 43.04 124.05 37.55 118.01 41.03 111.98 44.52 118.01 48 124.05 51.48 124.05 45.99 147.44 45.99 147.44 43.04" style="fill:#dd8dff"/><rect x="179.62" y="89.23" width="91.33" height="5.44" style="fill:#b89dff"/><path d="M227.54,201.25h-0.29v0a38.63,38.63,0,0,1-.68-77.25l0.68,0h0.29l0.66,0v-5.4l-0.66,0h-0.29l-0.68,0a44,44,0,0,0,.68,88v0h0.29l0.66,0v-5.39h-0.66Z" transform="translate(-48.59 -29.38)" style="fill:#b89dff"/><circle cx="178.66" cy="125.87" r="25.47" style="fill:#b89dff"/><circle cx="178.66" cy="125.87" r="15.97" style="fill:#fff"/><path d="M227.25,177.32a22.07,22.07,0,1,1,22.07-22.07A22.1,22.1,0,0,1,227.25,177.32Zm0-43.16a21.09,21.09,0,1,0,21.09,21.09A21.11,21.11,0,0,0,227.25,134.16Z" transform="translate(-48.59 -29.38)" style="fill:#fff"/><rect x="307.74" y="111.8" width="99.83" height="19.04" transform="translate(666.73 213.27) rotate(180)" style="fill:#b89dff"/><polygon points="211.54 125.79 234.94 125.79 234.94 120.3 240.97 123.78 247 127.27 240.97 130.75 234.94 134.24 234.94 128.75 211.54 128.75 211.54 125.79" style="fill:#b89dff"/><path d="M242.73,286.6a44,44,0,0,0-14.53-85.34v5.39a38.63,38.63,0,0,1,0,77.25v5.39A43.92,43.92,0,0,0,242.73,286.6Z" transform="translate(-48.59 -29.38)" style="fill:#8dafff"/><circle cx="178.66" cy="208.49" r="25.47" style="fill:#8dafff"/><circle cx="178.66" cy="208.49" r="15.97" style="fill:#fff"/><path d="M227.25,259.94a22.07,22.07,0,1,1,22.07-22.07A22.1,22.1,0,0,1,227.25,259.94Zm0-43.16a21.09,21.09,0,1,0,21.09,21.09A21.11,21.11,0,0,0,227.25,216.78Z" transform="translate(-48.59 -29.38)" style="fill:#fff"/><polygon points="147.44 210.51 124.05 210.51 124.05 205.02 118.01 208.51 111.98 211.99 118.01 215.47 124.05 218.96 124.05 213.47 147.44 213.47 147.44 210.51" style="fill:#8dafff"/><path d="M136.35,206.59h92.1c-0.09-2.42-.14-5.09.09-5.4H136.35v5.4Z" transform="translate(-48.59 -29.38)" style="fill:#8dafff"/><rect y="165.22" width="99.83" height="19.04" style="fill:#8dafff"/></svg>