<svg id="Layer_1" data-name="Layer 1" xmlns="http://www.w3.org/2000/svg" xmlns:xlink="http://www.w3.org/1999/xlink" viewBox="0 0 161.46 116.87"><defs><style>.cls-1{fill:none;}.cls-2{fill:#010302;}.cls-3{fill:#252323;}.cls-11,.cls-4{fill:#fff;}.cls-5{fill:#59595b;}.cls-6{fill:#c5c2e0;stroke:#252323;stroke-miterlimit:2.41;stroke-width:0.22px;}.cls-7{fill:#efefee;}.cls-8{fill:#252324;}.cls-9{clip-path:url(#clip-path);}.cls-10{clip-path:url(#clip-path-2);}.cls-11{stroke:#010302;stroke-miterlimit:10;stroke-width:0.25px;}.cls-12{fill:#242424;}</style><clipPath id="clip-path" transform="translate(-0.04 0)"><path class="cls-1" d="M137.14,64a6.32,6.32,0,0,0-3.3-1.3c-1.73,0-5.38.65-7.33,2.34s-1,7.88-.78,8.45,2.5,1.1,2.5,1.1-0.76-4.76.33-7.39C129.88,64.2,137.14,64,137.14,64Z"/></clipPath><clipPath id="clip-path-2" transform="translate(-0.04 0)"><path class="cls-1" d="M132.87,61.65a6.32,6.32,0,0,0-3.3-1.3c-1.73,0-5.38.65-7.33,2.34s-1,7.88-.78,8.45,2.5,1.1,2.5,1.1-0.76-4.76.33-7.39C125.6,61.9,132.87,61.65,132.87,61.65Z"/></clipPath></defs><title>japan-wink1</title><path id="_Контур_" data-name=" Контур " class="cls-2" d="M76.44,93.93A4.37,4.37,0,1,1,71,96.8a4.37,4.37,0,0,1,5.48-2.87h0Z" transform="translate(-0.04 0)"/><path id="_Контур_2" data-name=" Контур 2" class="cls-2" d="M77.75,99.45a3.64,3.64,0,1,1-4.56,2.39,3.64,3.64,0,0,1,4.56-2.39h0Z" transform="translate(-0.04 0)"/><path id="_Контур_3" data-name=" Контур 3" class="cls-2" d="M80.12,104.59a2.91,2.91,0,1,1-3.65,1.91,2.91,2.91,0,0,1,3.65-1.91h0Z" transform="translate(-0.04 0)"/><path id="_Контур_4" data-name=" Контур 4" class="cls-2" d="M83.46,107.77a2.55,2.55,0,1,1-3.19,1.68h0a2.56,2.56,0,0,1,3.19-1.67h0Z" transform="translate(-0.04 0)"/><path id="_Контур_5" data-name=" Контур 5" class="cls-2" d="M86.26,109.79a2.19,2.19,0,1,1-2.74,1.44h0a2.19,2.19,0,0,1,2.74-1.43h0Z" transform="translate(-0.04 0)"/><path id="_Контур_6" data-name=" Контур 6" class="cls-2" d="M97.3,112.35c-2.7,3.74-8.22,4.3-9,1.78a2.76,2.76,0,0,1,3-3.63c1.39,0.43,3.39,2.59,5.91,1.85H97.3Z" transform="translate(-0.04 0)"/><path class="cls-3" d="M50.86,99.5l-0.53-.17L39.55,96h0L36,94.85h0l-0.32-.1h0l-9.4,12.8-1.31,1.79h0l-1.38,1.87-0.94,1.28-3.2,4.36H43.22l6.46-12.11,0.72-1.36,1.85-3.47Z" transform="translate(-0.04 0)"/><polygon class="cls-4" points="50.1 100.8 49.1 102.68 49.1 102.69 48.37 104.04 41.53 116.87 21.16 116.87 23.67 113.46 24.62 112.18 25.85 110.5 27 108.94 36.19 96.46 36.19 96.45 38.59 97.2 42.7 98.49 42.71 98.49 50.1 100.8"/><path id="_Контур_10" data-name=" Контур 10" class="cls-5" d="M73.4,95.41c-2.44,1.2-1.31,6.19,2.5,4.24-2.17-.1-3.11-1.53-2.5-4.24h0Z" transform="translate(-0.04 0)"/><path class="cls-2" d="M107.3,98.13h0c-2.3.17-5.49,0.52-8.84,0.89L97,99.17h0l-1.79.21c-5.83.63-11.45,1.16-13,.75-0.84-.22-1.8-0.52-2.81-0.86-1.85-.62-3.88-1.37-5.66-2l-0.08,0-0.37-.13-1-.33H72.19l-1.1-.34-0.59-.16c-1.42,2.92-2,4-3.84,8.26l-0.58,1.34L66,106c-0.38.88-.76,1.81-1.16,2.77l-0.61,1.42a50.67,50.67,0,0,1-3.46,6.7H28.13q-2.3-1.61-4.42-3.41c-0.37-.31-0.74-0.62-1.1-1a74.76,74.76,0,0,1-10.4-11.27,79.65,79.65,0,0,0,20-10.42c0.43-.31.85-0.63,1.27-1,0.88-.67,1.75-1.37,2.58-2.08l0.47-.4h0A51,51,0,0,0,41.08,83c0-.09-0.11-0.17-0.17-0.26a0.13,0.13,0,0,0,0,0c-3.31-5.21-7-10.79-10.51-16.1q-2.18-3.27-4.17-6.63-3-5.09-5.69-10.37l1.68-.91,1.34-.75C27,46,30.34,43.91,33.81,42L35,41.34l0.35,0.56h0l0.49,0.77,0.44,0.7,3.36,5.36c0.53,0.83,1,1.66,1.58,2.48h0q1.38,2.19,2.82,4.35c0.13,0.21.26,0.41,0.4,0.61l0.13,0.2c0.26,0.39.55,0.86,0.86,1.38l0.82,1.3s0,0,0,0a0.05,0.05,0,0,1,0,0c0.5,0.81,1,1.67,1.61,2.54h0c1.68,2.53,3.6,5.1,5.41,6.33a2.35,2.35,0,0,0,.32.2l0.13,0.08h0l0.38,0.19,0.09,0,0.84,0.26,1.48,0.47,6.72,2.1,1.3,0.41L66,72.19l1.56,0.48h0l3.54,1.11h0l1.38,0.43,1.18,0.37a18.93,18.93,0,0,1,5.53,3.56l1.42,1.2,0.17,0.14,0.94,0.79,0,0c1.77,1.5,4.23,3.53,4.84,3.67a32.7,32.7,0,0,0,5.76-.58l0.71-.14,1.08-.2h0l1.08-.2c2-.38,4.05-0.75,6.09-1.07l1.54-.23,1.32-.18,0,0.15,0.32,1.74L104.66,84l0.2,1,1.75,9.4,0.28,1.52,0.4,2.14v0Z" transform="translate(-0.04 0)"/><path class="cls-4" d="M105.6,96.79c-0.11,0-.22,0-0.33,0h0c-0.68,0-1.39.1-2.12,0.17-2.25.2-4.7,0.47-7.12,0.73l-1.65.19c-5.51.61-10.56,1.13-12.24,0.7-0.65-.16-1.58-0.47-2.64-0.85-1.68-.59-3.68-1.34-5.43-1.94l-0.09,0-0.6-.21-0.16-.06h0l-0.61-.2h0l-0.62-.18a4.2,4.2,0,0,0-2-.32c-0.83.44-2.1,3.22-4.48,8.84a0.11,0.11,0,0,0,0,0c-0.08.17-.15,0.34-0.23,0.52q-0.22.55-.48,1.14c0,0.06,0,.11-0.07.17-0.43,1-.86,2-1.3,3-0.21.47-.42,0.94-0.64,1.41s-0.38.82-.58,1.23a49.63,49.63,0,0,1-3.18,5.7h-28a61,61,0,0,1-6.28-4.69c-0.38-.31-0.75-0.63-1.11-0.95a75.93,75.93,0,0,1-8.89-9.3A68.1,68.1,0,0,0,33.19,92c0.44-.32.86-0.64,1.27-1,1-.73,1.84-1.46,2.65-2.14l1-.87c2.75-2.43,4.39-4.29,4.55-4.79a2.85,2.85,0,0,0-.53-1.37l0-.06c-2-3.59-8.78-13-14.32-22-0.28-.45-0.55-0.9-0.82-1.35-1.72-2.87-3.29-5.67-4.5-8.2l0.15-.08,1.29-.7c2.56-1.45,6.53-3.82,9-5.2h0c0.73-.42,1.32-0.75,1.69-0.93,0.05,0.07.09,0.15,0.14,0.23,1.07,1.71,2.82,4.53,4.85,7.71l0.34,0.55c0.18,0.27.35,0.52,0.52,0.79h0c1,1.59,2.09,3.24,3.18,4.85h0c0.4,0.6.8,1.21,1.21,1.79h0c1.28,1.89,2.55,3.69,3.73,5.26a0,0,0,0,0,0,0l0.07,0.09h0c0.75,1,1.46,1.89,2.11,2.65l0,0q0.61,0.7,1.14,1.23c0.2,0.19.38,0.37,0.55,0.52l0,0,0,0,0.23,0.19a3.39,3.39,0,0,0,.92.57h0l0.05,0,0.57,0.18,5,1.56L64,73.11h0l1.42,0.45,0.36,0.11L67,74l1.38,0.43,0.6,0.2h0l1.85,0.57s0,0,0,0L73.18,76a15.21,15.21,0,0,1,4.09,2.55c0.56,0.44,1.14.91,1.71,1.39,0.15,0.12.3,0.24,0.44,0.37s0,0,0,0l1.2,1,0.06,0c2.32,2,4.45,3.77,5.56,4s3.24,0,5.88-.48l1.49-.27c3.11-.57,6.59-1.29,9.41-1.64l0,0.22,0.27,1.46,1.94,10.45,0.28,1.51h0Z" transform="translate(-0.04 0)"/><path id="_Контур_13" data-name=" Контур 13" class="cls-2" d="M65.48,103.65c-1.21,9-8,11.33-12.43,10.57,4.49-1,8.61-2.56,12.43-10.57h0Z" transform="translate(-0.04 0)"/><path id="_Контур_14" data-name=" Контур 14" class="cls-6" d="M66,108.79c-6.91.13-24.13-8.3-32.86-19.43a65.58,65.58,0,0,0,9.56-6.17c5.69-3.56,9.52-8.48,11-13.34l5.56,1.74,13.91,4.35c3.59,0.74,5.56,1.74,7.32,3.43-3,2.13-6.85,9.69-7.67,14.78a30.75,30.75,0,0,1-6.87,14.65H66Z" transform="translate(-0.04 0)"/><path id="_Контур_15" data-name=" Контур 15" class="cls-2" d="M66.63,110.26c-9.92.54-29.47-11.64-35.78-21.36a68.47,68.47,0,0,0,11-6.9c5.29-3.38,9.2-7.81,11-14l20.78,6.49a17,17,0,0,1,9.2,5c-4,2.64-7.62,9.87-8.48,14.92a33.34,33.34,0,0,1-7.64,15.87h0Z" transform="translate(-0.04 0)"/><path id="_Контур_16" data-name=" Контур 16" class="cls-4" d="M66,108.79c-6.91.13-24.13-8.3-32.86-19.43a65.58,65.58,0,0,0,9.56-6.17c5.69-3.56,9.52-8.48,11-13.34l5.56,1.74,13.91,4.35c3.59,0.74,5.56,1.74,7.32,3.43-3,2.13-6.85,9.69-7.67,14.78a30.75,30.75,0,0,1-6.87,14.65H66Z" transform="translate(-0.04 0)"/><path id="_Составной_контур_" data-name=" Составной контур " class="cls-2" d="M62.87,78.38l-0.1.12a8.16,8.16,0,0,0-.54.63,1.72,1.72,0,0,0-.11.14c-0.1.12-.19,0.25-0.28,0.38-0.24.33-.46,0.66-0.67,1-0.08.14-.16,0.28-0.23,0.42a11.54,11.54,0,0,0-.52,1.06c-0.14.34-.27,0.68-0.39,1-0.07.2-.13,0.4-0.19,0.6s-0.17.65-.24,1-0.08.41-.11,0.62,0,0.34-.07.51a5.91,5.91,0,0,0-.06.59c1.45-2.56,2.8-5.18,4-7.89Zm0,0-0.1.12a8.16,8.16,0,0,0-.54.63,1.72,1.72,0,0,0-.11.14c-0.1.12-.19,0.25-0.28,0.38-0.24.33-.46,0.66-0.67,1-0.08.14-.16,0.28-0.23,0.42a11.54,11.54,0,0,0-.52,1.06c-0.14.34-.27,0.68-0.39,1-0.07.2-.13,0.4-0.19,0.6s-0.17.65-.24,1-0.08.41-.11,0.62,0,0.34-.07.51a5.91,5.91,0,0,0-.06.59c1.45-2.56,2.8-5.18,4-7.89Zm0,0-0.1.12a8.16,8.16,0,0,0-.54.63,1.72,1.72,0,0,0-.11.14c-0.1.12-.19,0.25-0.28,0.38-0.24.33-.46,0.66-0.67,1-0.08.14-.16,0.28-0.23,0.42a11.54,11.54,0,0,0-.52,1.06c-0.14.34-.27,0.68-0.39,1-0.07.2-.13,0.4-0.19,0.6s-0.17.65-.24,1-0.08.41-.11,0.62,0,0.34-.07.51a5.91,5.91,0,0,0-.06.59c1.45-2.56,2.8-5.18,4-7.89Zm0,0-0.1.12a8.16,8.16,0,0,0-.54.63,1.72,1.72,0,0,0-.11.14c-0.1.12-.19,0.25-0.28,0.38-0.24.33-.46,0.66-0.67,1-0.08.14-.16,0.28-0.23,0.42a11.54,11.54,0,0,0-.52,1.06c-0.14.34-.27,0.68-0.39,1-0.07.2-.13,0.4-0.19,0.6s-0.17.65-.24,1-0.08.41-.11,0.62,0,0.34-.07.51a5.91,5.91,0,0,0-.06.59c1.45-2.56,2.8-5.18,4-7.89Zm0,0-0.1.12a8.16,8.16,0,0,0-.54.63,1.72,1.72,0,0,0-.11.14c-0.1.12-.19,0.25-0.28,0.38-0.24.33-.46,0.66-0.67,1-0.08.14-.16,0.28-0.23,0.42a11.54,11.54,0,0,0-.52,1.06c-0.14.34-.27,0.68-0.39,1-0.07.2-.13,0.4-0.19,0.6s-0.17.65-.24,1-0.08.41-.11,0.62,0,0.34-.07.51a5.91,5.91,0,0,0-.06.59c1.45-2.56,2.8-5.18,4-7.89ZM82.3,79a17.19,17.19,0,0,0-1.52-1.31,13.85,13.85,0,0,0-1.37-.94s0,0,0,0a17,17,0,0,0-4.31-1.93l-0.77-.2h0l-0.75-.15-1-.32-1.38-.43-3.66-1.14,0.05,0.08h0c-0.16.45-.32,0.91-0.49,1.36h0l-0.11.29-0.36,1c-0.29.77-.59,1.53-0.91,2.28a0.86,0.86,0,0,1-.07.17c-0.19.48-.39,1-0.6,1.42q-0.9,2.11-1.91,4.17a0,0,0,0,1,0,0c-1.19,2.46-2.47,4.86-3.86,7.2-0.32.56-.65,1.11-1,1.65-0.67,1.09-1.35,2.16-2.06,3.22-0.35.53-.7,1.06-1.07,1.58-0.86,1.25-1.75,2.47-2.66,3.68a56.86,56.86,0,0,0,12.1,4.81l0.14,0,0.42,0.11,1,0.25c0.58,0.14,1.16.27,1.75,0.39h0l1.6,0.31a32,32,0,0,0,2.75-5.25c0.26-.58.48-1.17,0.69-1.77s0.36-1,.51-1.56q0.12-.36.21-0.75c0.14-.48.26-1,0.37-1.47s0.21-.92.29-1.39q0-.3.12-0.6a28.68,28.68,0,0,1,6.26-12.49,12.79,12.79,0,0,1,1.06-1,7.32,7.32,0,0,1,.92-0.71,0.94,0.94,0,0,1,.12-0.09Zm-19.43-.65-0.1.12a8.16,8.16,0,0,0-.54.63,1.72,1.72,0,0,0-.11.14c-0.1.12-.19,0.25-0.28,0.38-0.24.33-.46,0.66-0.67,1-0.08.14-.16,0.28-0.23,0.42a11.54,11.54,0,0,0-.52,1.06c-0.14.34-.27,0.68-0.39,1-0.07.2-.13,0.4-0.19,0.6s-0.17.65-.24,1-0.08.41-.11,0.62,0,0.34-.07.51a5.91,5.91,0,0,0-.06.59c1.45-2.56,2.8-5.18,4-7.89Zm0,0-0.1.12a8.16,8.16,0,0,0-.54.63,1.72,1.72,0,0,0-.11.14c-0.1.12-.19,0.25-0.28,0.38-0.24.33-.46,0.66-0.67,1-0.08.14-.16,0.28-0.23,0.42a11.54,11.54,0,0,0-.52,1.06c-0.14.34-.27,0.68-0.39,1-0.07.2-.13,0.4-0.19,0.6s-0.17.65-.24,1-0.08.41-.11,0.62,0,0.34-.07.51a5.91,5.91,0,0,0-.06.59c1.45-2.56,2.8-5.18,4-7.89Zm0,0-0.1.12a8.16,8.16,0,0,0-.54.63,1.72,1.72,0,0,0-.11.14c-0.1.12-.19,0.25-0.28,0.38-0.24.33-.46,0.66-0.67,1-0.08.14-.16,0.28-0.23,0.42a11.54,11.54,0,0,0-.52,1.06c-0.14.34-.27,0.68-0.39,1-0.07.2-.13,0.4-0.19,0.6s-0.17.65-.24,1-0.08.41-.11,0.62,0,0.34-.07.51a5.91,5.91,0,0,0-.06.59c1.45-2.56,2.8-5.18,4-7.89Zm0,0-0.1.12a8.16,8.16,0,0,0-.54.63,1.72,1.72,0,0,0-.11.14c-0.1.12-.19,0.25-0.28,0.38-0.24.33-.46,0.66-0.67,1-0.08.14-.16,0.28-0.23,0.42a11.54,11.54,0,0,0-.52,1.06c-0.14.34-.27,0.68-0.39,1-0.07.2-.13,0.4-0.19,0.6s-0.17.65-.24,1-0.08.41-.11,0.62,0,0.34-.07.51a5.91,5.91,0,0,0-.06.59c1.45-2.56,2.8-5.18,4-7.89Zm0,0-0.1.12a8.16,8.16,0,0,0-.54.63,1.72,1.72,0,0,0-.11.14c-0.1.12-.19,0.25-0.28,0.38-0.24.33-.46,0.66-0.67,1-0.08.14-.16,0.28-0.23,0.42a11.54,11.54,0,0,0-.52,1.06c-0.14.34-.27,0.68-0.39,1-0.07.2-.13,0.4-0.19,0.6s-0.17.65-.24,1-0.08.41-.11,0.62,0,0.34-.07.51a5.91,5.91,0,0,0-.06.59c1.45-2.56,2.8-5.18,4-7.89Zm0,0-0.1.12a8.16,8.16,0,0,0-.54.63,1.72,1.72,0,0,0-.11.14c-0.1.12-.19,0.25-0.28,0.38-0.24.33-.46,0.66-0.67,1-0.08.14-.16,0.28-0.23,0.42a11.54,11.54,0,0,0-.52,1.06c-0.14.34-.27,0.68-0.39,1-0.07.2-.13,0.4-0.19,0.6s-0.17.65-.24,1-0.08.41-.11,0.62,0,0.34-.07.51a5.91,5.91,0,0,0-.06.59c1.45-2.56,2.8-5.18,4-7.89Zm1.73-6.75-1.28-.4h0l-6.56-2.05-1.46-.45-0.83-.26-0.77-.25-0.45-.14s0,0,0,0l-0.42-.13a3.58,3.58,0,0,1-.11.35c-0.07.25-.15,0.49-0.23,0.73a0,0,0,0,0,0,0l-0.09.24a1.07,1.07,0,0,1-.07.19,0,0,0,0,1,0,0h0L52.11,70c-0.14.36-.29,0.71-0.45,1.06a25,25,0,0,1-9.57,10.69l-0.28.19c-0.31.24-.62,0.48-0.93,0.7a53.15,53.15,0,0,1-5.94,3.94l0,0,0,0c0.33,0.36.66,0.72,1,1.08a0.18,0.18,0,0,0,.07.08c0.33,0.36.67,0.72,1,1.06A69,69,0,0,0,50.33,99.33l0.45,0.28,0.08-.11c0.87-1.18,1.71-2.37,2.54-3.57,0.37-.53.74-1.07,1.09-1.61,0.72-1,1.41-2.11,2.08-3.18,0.35-.55.69-1.1,1-1.66s0.77-1.28,1.15-1.93c0,0,0,0,0,0l0.58-1,0-.07c1.45-2.56,2.8-5.18,4-7.89,0.22-.47.43-0.94,0.63-1.42,0-.1.09-0.2,0.13-0.3,0.35-.81.68-1.63,1-2.46,0.11-.27.21-0.55,0.32-0.84a0,0,0,0,1,0,0c0-.05,0-0.1.05-0.15L66,72.19l0-.08s0,0,0,0Z" transform="translate(-0.04 0)"/><path id="_Составной_контур_2" data-name=" Составной контур 2" class="cls-4" d="M79,78.17h0a15.31,15.31,0,0,0-5.87-2.24l-2.23-.7-1.79-.56-0.72-.22a0,0,0,0,1,0,0h0c0,0.07,0,.14-0.07.21-0.1.31-.22,0.64-0.34,1-0.26.7-.56,1.47-0.91,2.3,0,0.07-.06.14-0.08,0.22-0.19.45-.39,0.91-0.61,1.39h0c0,0.13-.11.25-0.17,0.38h0c-0.57,1.3-1.23,2.69-2,4.16h0l-0.65,1.28c-1,1.88-2,3.84-3.21,5.82-0.31.54-.63,1.09-1,1.63-0.66,1.08-1.34,2.17-2.06,3.24-0.34.52-.69,1-1,1.56-0.56.83-1.14,1.64-1.73,2.44a47.44,47.44,0,0,0,10.59,4.08h0a0.76,0.76,0,0,0,.16,0c0.42,0.11.84,0.21,1.27,0.3,0.67,0.16,1.35.29,2,.41h0.06a30.08,30.08,0,0,0,2.45-5,27.9,27.9,0,0,0,1-2.93,2.68,2.68,0,0,0,.07-0.27h0a0.74,0.74,0,0,1,0-.14c0.11-.44.21-0.89,0.3-1.34a8.76,8.76,0,0,0,.17-0.89c0-.1,0-0.19.06-0.29,0.73-4.51,3.83-11,6.62-13.85a6.44,6.44,0,0,1,.67-0.63h0a4.69,4.69,0,0,1,.37-0.29A12.46,12.46,0,0,0,79,78.17ZM64,73.08l-4.8-1.5L54.34,70l-0.68-.21v0h0a2.59,2.59,0,0,1-.08.26,5.16,5.16,0,0,1-.18.51c0,0.16-.11.32-0.17,0.48l-0.15.39-0.3.66c-0.12.26-.24,0.51-0.37,0.76s-0.26.51-.4,0.76c-0.28.51-.59,1-0.92,1.5q-0.2.3-.42,0.6c-0.22.32-.45,0.64-0.7,1l-0.42.52-0.12.14L48.85,78c-0.13.15-.27,0.29-0.4,0.43s-0.35.36-.54,0.54c-0.35.36-.71,0.7-1.09,1a6.28,6.28,0,0,1-.48.42c-0.23.2-.46,0.4-0.7,0.59s-0.62.49-.94,0.72-0.61.46-.93,0.67-0.73.49-1.11,0.73L41.53,84c-0.38.29-.77,0.57-1.16,0.84s-0.78.56-1.17,0.81-0.55.38-.83,0.55l-0.16.1c-0.3.2-.59,0.39-0.9,0.57l-0.1.07H37.16a0.05,0.05,0,0,1,0,0c0.31,0.33.61,0.65,0.93,1A58.24,58.24,0,0,0,50.3,97.73c0.63-.85,1.27-1.74,1.91-2.65,0.36-.53.73-1.07,1.11-1.61,0.69-1,1.38-2.1,2.06-3.19,0.36-.55.71-1.11,1-1.68,0.66-1.08,1.31-2.17,1.92-3.28,0.24-.41.47-0.82,0.69-1.24h0c1-1.88,2-3.78,2.84-5.67A2.92,2.92,0,0,0,62,78c0.22-.48.43-1,0.62-1.43,0.09-.2.17-0.39,0.24-0.58,0.41-1,.78-2,1.12-2.92h0s0,0,0,0h0Z" transform="translate(-0.04 0)"/><path id="_Контур_17" data-name=" Контур 17" class="cls-2" d="M53.75,86.28a31.94,31.94,0,0,0,9.57,6.43l-0.54,1.74a31.16,31.16,0,0,1-9.68-6.08l0.65-2.09h0Z" transform="translate(-0.04 0)"/><path id="_Контур_18" data-name=" Контур 18" class="cls-2" d="M21.59,42.73A2.1,2.1,0,0,1,22,43.78a26.94,26.94,0,0,1,0,3.48,10.33,10.33,0,0,0,1.41,4.62l10-5.29c0.94-2.69,2.24-5.3,3.39-7.9,0.91-2.08,2.24-4.29,2.65-6.53,0.55-3-1.81-9.53-4.47-12.28-1.94-2-5.86-5.64-9-5a2.73,2.73,0,0,0-2.28,2.86c-1.8,0-3.64.49-3.89,2.56A2.8,2.8,0,0,0,21.14,23c-1.73,1-4.38,2.79-3.47,5.11a2.83,2.83,0,0,0,1.69,1.53c-0.22,1.34,0,2.49,1.32,3.13a3.68,3.68,0,0,0,1,.26c-0.08.33-.17,0.66-0.27,1-0.56,1.88-1.25,3.65-1.07,5.61a5.84,5.84,0,0,0,1.29,3.09h0Z" transform="translate(-0.04 0)"/><path id="_Контур_19" data-name=" Контур 19" class="cls-4" d="M32.27,45.59c0.33-1,5.09-11.39,5.74-13.48s-2.11-8.88-3.54-10.65-6.32-5.41-7.93-5.15-1.7,1.76-.52,2.89c-2.3,0-4.85-.37-4.69,1.59s4.42,1.8,6.59,2.06a11.74,11.74,0,0,0-5.74,1.26c-1.83,1-3.87,2.61-3,3.63s1.74,0.54,2.54.41c-0.57.59-1.67,2.91-.28,3.35s1.61-.26,2.74-1.43c-1,2-.65,2.09-1.52,4.87s-1.52,4.87.13,6.91-0.13,5.3,1.3,8l8.22-4.3h0Z" transform="translate(-0.04 0)"/><path id="_Контур_20" data-name=" Контур 20" class="cls-2" d="M132.13,88.59a3.33,3.33,0,0,0,.34-3.75c0.78-2.48-1.72-3.81-3.74-4.13-2.91-.46-5.85.48-8.7,1A16.47,16.47,0,0,0,118,80.8c-0.82-.3-1.67-0.53-2.5-0.83a7.36,7.36,0,0,1-2.28-1.26,0.55,0.55,0,0,1,0-.3,6.89,6.89,0,0,0,3.15-3.87c0.64-2,.73-4.71-1.71-5.5-2-.67-3,0.62-4.17,2-0.94,1-2.08,1-3.19,1.69a4,4,0,0,0-1.49,2,9.85,9.85,0,0,0-.72,2.84,8,8,0,0,1-.16,1.38,29.2,29.2,0,0,1-1,3.57c-0.24.73-2.68,1.51-3.21,1.78l2.63,13.57c1.82-1,3.64-1.93,5.44-2.92a37.42,37.42,0,0,1,4-2.11,39.93,39.93,0,0,0,5.8,1.91c2.55,0.52,9.54,1.2,11-2.53a3.24,3.24,0,0,0,2.52-3.59h0Z" transform="translate(-0.04 0)"/><path id="_Контур_21" data-name=" Контур 21" class="cls-4" d="M104.43,95.59c3.65-1.91,7.41-4.17,8.22-4.3s2.67,1.22,6.26,2,9.35,0.63,9.52-2.37c2-.15,2.74-1.43,2-2.8,1.37-.72,1.22-2.67.17-3,1.13-1.17.41-2.54-2.13-3s-5.52.57-8.74,1.09a20.77,20.77,0,0,0-4.41-1.76,9.15,9.15,0,0,1-3.26-1.78,1.76,1.76,0,0,1,.31-2.47l0.1-.07a5.57,5.57,0,0,0,2.48-3c0.43-1.39.63-3.24-.76-3.67s-1.72.61-2.85,1.78-2.28,1.19-3.19,1.67-1.57,2.57-1.65,4.07a24,24,0,0,1-1.17,5c-0.43,1.39-2,1.65-3,2.13l2,10.56h0Z" transform="translate(-0.04 0)"/><path id="_Составной_контур_3" data-name=" Составной контур 3" class="cls-2" d="M105.47,84.52v0a5,5,0,0,1-.47-0.86,6.12,6.12,0,0,1-.34-0.92,3,3,0,0,0-.12.56,2.67,2.67,0,0,0,0,.8,2.74,2.74,0,0,0,.32,1,3.69,3.69,0,0,0,.91,1.08,2.46,2.46,0,0,0,2.18.7A14.61,14.61,0,0,1,105.47,84.52Zm10.28,0.82a11.28,11.28,0,0,0-2.49-4.81,8.06,8.06,0,0,0-.94-0.91h0a3.45,3.45,0,0,0-.46-0.32,3.68,3.68,0,0,0-2.61-.62h0l-0.27,0c2.42,1.32,4.1,3.67,5.48,5.64h0c0.47,0.68.91,1.3,1.34,1.83A1.94,1.94,0,0,0,115.75,85.34Zm-3.37-8.14h0c-0.41-.24-0.84-0.39-1.27-0.59a3.65,3.65,0,0,1-1.3-.93,3.07,3.07,0,0,1-.46-0.66,2.06,2.06,0,0,0-.1.63,1.61,1.61,0,0,0,.35,1,3.56,3.56,0,0,0,2.33,1.12,4.07,4.07,0,0,0,1.16,0A3.73,3.73,0,0,0,112.38,77.2Zm19,9.9a0.79,0.79,0,0,1-.32.5h0a0.77,0.77,0,0,1-.61.14,34,34,0,0,0-8.55-.48c-0.46,0-.91.07-1.37,0.12a8.34,8.34,0,0,0,0-1.58l0.12,0c3-.6,9.09-1.06,10-0.65l0.09,0h0a0.64,0.64,0,0,0,.38-0.76l0,0.06h0v0h0a0.53,0.53,0,0,1-.58.24c-1-.38-6.44-0.19-10.11.09h-0.09a3.51,3.51,0,0,0-2.15-2.42,9.91,9.91,0,0,0-.94-0.35,6.74,6.74,0,0,1,2,5.64h0a6,6,0,0,1-.11.84,6.35,6.35,0,0,1-.22,1h0a12.05,12.05,0,0,1-1.07,2.61c0.35,0.11,1.65-1,2-1.48l0.94,0.09s0,0,0,0c0.72,0.07,1.39.1,2,.11h0c0.54,0,1,0,1.49,0h0c2.55-.1,3.93-0.46,4.21.24,0,0,0,0,0,0,0.13,0.38,1.63-.26,1.8-0.82l-0.08,0a3.44,3.44,0,0,1-2.08,0c-1.28-.18-3.29-0.16-5.1-0.24-0.59,0-1.15-.06-1.67-0.12h0A7.91,7.91,0,0,1,120,89.8c0-.06.07-0.26,0.12-0.5h0c0.06-.26.13-0.55,0.18-0.78h0l0.08-.28a22.52,22.52,0,0,1,2.31-.33c3-.29,7.22-0.4,7.76.21C130.81,88.5,131.52,87.59,131.37,87.1ZM117.08,82h0l0,0,0.09,0Zm-4.87,9.42a7.14,7.14,0,0,1-2.39-3.29,3.33,3.33,0,0,0,1.63,3.64,2.46,2.46,0,0,0,1.67.45C112.84,92,112.53,91.71,112.21,91.44Z" transform="translate(-0.04 0)"/><path id="_Контур_22" data-name=" Контур 22" class="cls-2" d="M105.2,99.44c-1.06.08-2.09-.26-3.16-0.15a10.61,10.61,0,0,0-3.47,1.32,2.16,2.16,0,0,1-2.37-.2c-2.14-1.55-2.87-5.66-3.37-8.23a25,25,0,0,1-.57-8.33A3.3,3.3,0,0,1,93,82.18a2.16,2.16,0,0,1,2-.81,11.94,11.94,0,0,0,3.36.06,27.88,27.88,0,0,0,3.24-1.38,2.81,2.81,0,0,1,3.52,2.36L107.62,96a2.81,2.81,0,0,1-2,3.41l-0.39.07h0Z" transform="translate(-0.04 0)"/><path id="_Контур_23" data-name=" Контур 23" class="cls-4" d="M103.65,82.73l2.53,13.46C106.34,97,105.8,98.07,105,98a9.12,9.12,0,0,0-7,1.32c-0.75.39-1.42-.46-1.79-1.22a32.55,32.55,0,0,1-2.54-13.49c0.06-.84.39-1.88,1.22-1.79a9.1,9.1,0,0,0,7-1.32c0.75-.39,1.63.39,1.79,1.22h0v0Z" transform="translate(-0.04 0)"/><path id="_Контур_24" data-name=" Контур 24" class="cls-2" d="M19.9,28.36c2.24-.45,4.15-2.9,7.15-2.73-1.66,1.34-4.35,1.7-6.1,3.63l-1.05-.9h0Z" transform="translate(-0.04 0)"/><path id="_Контур_25" data-name=" Контур 25" class="cls-2" d="M8.88,0.51l34,32.18a1.52,1.52,0,0,1,.48,1.37,3.08,3.08,0,0,1-.92,1.79,3.42,3.42,0,0,1-2,1.19,1.51,1.51,0,0,1-1.38-.45L6.08,3.37A1.87,1.87,0,0,1,6.2.73l0.19-.15A1.7,1.7,0,0,1,8.79.42L8.88,0.51h0Z" transform="translate(-0.04 0)"/><path id="_Контур_26" data-name=" Контур 26" class="cls-4" d="M7.94,1.59l33.81,32.1a0.44,0.44,0,0,1,0,.55,2.87,2.87,0,0,1-1.22,1.25,0.43,0.43,0,0,1-.55,0L7.17,2.4a0.39,0.39,0,0,1,0-.55l0.2-.21a0.39,0.39,0,0,1,.55,0h0Z" transform="translate(-0.04 0)"/><path id="_Контур_27" data-name=" Контур 27" class="cls-4" d="M41.75,34.23a2.87,2.87,0,0,1-1.22,1.25,0.43,0.43,0,0,1-.55,0L7.17,2.4,41.75,34.23h0Z" transform="translate(-0.04 0)"/><path id="_Контур_28" data-name=" Контур 28" class="cls-2" d="M3.08,6.79l37.67,27.8a1.51,1.51,0,0,1,.64,1.3A3.41,3.41,0,0,1,40.5,38a3.08,3.08,0,0,1-1.64,1.17,1.51,1.51,0,0,1-1.43-.28L0.68,9.93A1.87,1.87,0,0,1,.51,7.29l0.17-.17A1.7,1.7,0,0,1,3,6.68l0.1,0.07h0Z" transform="translate(-0.04 0)"/><path id="_Контур_29" data-name=" Контур 29" class="cls-4" d="M2.28,8L39.75,35.72a0.43,0.43,0,0,1,.05.54,2.87,2.87,0,0,1-1.05,1.39,0.44,0.44,0,0,1-.54.09L1.61,8.88a0.39,0.39,0,0,1-.05-0.54l0.18-.23A0.39,0.39,0,0,1,2.28,8h0Z" transform="translate(-0.04 0)"/><path id="_Контур_30" data-name=" Контур 30" class="cls-4" d="M39.83,36.26a2.87,2.87,0,0,1-1.08,1.39,0.44,0.44,0,0,1-.54.09L1.61,8.88,39.83,36.26h0Z" transform="translate(-0.04 0)"/><path id="_Контур_31" data-name=" Контур 31" class="cls-4" d="M24.14,30.07c2.26-2.35,2.48-9.15,5.13-9.08s1.57,3.54,1.48,5-0.65,2.09-.35,6c-1.78,3.26-6.22.35-6.26-2h0v0.08Z" transform="translate(-0.04 0)"/><path id="_Контур_32" data-name=" Контур 32" class="cls-2" d="M37.6,42.59c0.42,1,.44,2.06.89,3a10.62,10.62,0,0,0,2.38,2.85,2.16,2.16,0,0,1,.58,2.31c-0.77,2.53-4.42,4.56-6.68,5.87s-5,2.84-7.69,3.25a3.29,3.29,0,0,1-1.82-.16,2.16,2.16,0,0,1-1.4-1.58,11.94,11.94,0,0,0-1-3.2c-0.62-1-1.65-1.66-2.36-2.62a2.81,2.81,0,0,1,1.09-4.1l12-6.82a2.81,2.81,0,0,1,4,1.2h0Z" transform="translate(-0.04 0)"/><path id="_Контур_33" data-name=" Контур 33" class="cls-4" d="M22.29,49.45L34.2,42.67c0.73-.42,1.9-0.25,2.09.57a12.11,12.11,0,0,0,1.13,3.46,12.12,12.12,0,0,0,2.4,2.74c0.61,0.58,0,1.5-.57,2.09a32.54,32.54,0,0,1-11.91,6.78c-0.81.21-1.9,0.25-2.09-.57a9.11,9.11,0,0,0-3.53-6.21c-0.61-.58-0.16-1.67.57-2.09h0Z" transform="translate(-0.04 0)"/><path id="_Контур_34" data-name=" Контур 34" class="cls-3" d="M21.7,40.33c1.64,2.05,3.09,1.92,4.61,2.52-0.66.79-4.36,0.38-4.61-2.52h0Z" transform="translate(-0.04 0)"/><path id="_Контур_35" data-name=" Контур 35" class="cls-2" d="M50.41,91A31.93,31.93,0,0,0,60,97.39l-0.54,1.74A31.15,31.15,0,0,1,49.76,93L50.41,91h0Z" transform="translate(-0.04 0)"/><path id="_Контур_36" data-name=" Контур 36" class="cls-2" d="M50.83,90a2.09,2.09,0,1,1-2.62,1.37A2.09,2.09,0,0,1,50.83,90h0Z" transform="translate(-0.04 0)"/><path id="_Контур_37" data-name=" Контур 37" class="cls-2" d="M50.66,90.59a1.55,1.55,0,1,1-1.94,1h0a1.55,1.55,0,0,1,1.94-1h0Z" transform="translate(-0.04 0)"/><path id="_Контур_38" data-name=" Контур 38" class="cls-3" d="M50.38,91.46a0.61,0.61,0,1,1-.76.41h0a0.61,0.61,0,0,1,.76-0.4h0Z" transform="translate(-0.04 0)"/><path id="_Контур_39" data-name=" Контур 39" class="cls-2" d="M54.19,85.36a2.09,2.09,0,1,1-2.62,1.37,2.09,2.09,0,0,1,2.62-1.37h0Z" transform="translate(-0.04 0)"/><path id="_Контур_40" data-name=" Контур 40" class="cls-2" d="M63.75,91.4a2.1,2.1,0,1,1-2.62,1.39h0a2.1,2.1,0,0,1,2.62-1.38h0Z" transform="translate(-0.04 0)"/><path id="_Контур_41" data-name=" Контур 41" class="cls-2" d="M60.39,96.08a2.09,2.09,0,1,1-2.62,1.37,2.09,2.09,0,0,1,2.62-1.37h0Z" transform="translate(-0.04 0)"/><path id="_Контур_42" data-name=" Контур 42" class="cls-2" d="M54,85.88a1.55,1.55,0,1,1-1.94,1h0a1.55,1.55,0,0,1,1.94-1h0Z" transform="translate(-0.04 0)"/><path id="_Контур_43" data-name=" Контур 43" class="cls-2" d="M63.59,91.93a1.55,1.55,0,1,1-1.94,1h0a1.55,1.55,0,0,1,1.94-1h0Z" transform="translate(-0.04 0)"/><path id="_Контур_44" data-name=" Контур 44" class="cls-2" d="M60.23,96.59a1.55,1.55,0,1,1-1.94,1h0a1.55,1.55,0,0,1,1.94-1h0Z" transform="translate(-0.04 0)"/><path id="_Контур_45" data-name=" Контур 45" class="cls-2" d="M53.75,86.78a0.61,0.61,0,1,1-.76.41h0a0.61,0.61,0,0,1,.76-0.4h0Z" transform="translate(-0.04 0)"/><path id="_Контур_46" data-name=" Контур 46" class="cls-2" d="M60,97.5a0.61,0.61,0,1,1-.76.41h0A0.61,0.61,0,0,1,60,97.5h0Z" transform="translate(-0.04 0)"/><path id="_Контур_47" data-name=" Контур 47" class="cls-2" d="M63.31,92.83a0.61,0.61,0,1,1-.76.41h0a0.61,0.61,0,0,1,.76-0.4h0Z" transform="translate(-0.04 0)"/><path id="_Контур_48" data-name=" Контур 48" class="cls-5" d="M75.83,100.64c-2.18,1.08-1.17,5.55,2.24,3.8-2-.09-2.79-1.37-2.24-3.8h0Z" transform="translate(-0.04 0)"/><path id="_Контур_50" data-name=" Контур 50" class="cls-3" d="M26.65,100.1c-10.26,6.65,5.82,17.31,12.5,16.69-3.26-.77-17.86-7-12.5-16.69h0Z" transform="translate(-0.04 0)"/><path id="_Контур_51" data-name=" Контур 51" class="cls-5" d="M78.69,105.59c-1.84.91-1,4.67,1.89,3.2-1.64-.07-2.35-1.15-1.89-3.2h0Z" transform="translate(-0.04 0)"/><path id="_Контур_52" data-name=" Контур 52" class="cls-5" d="M89.08,113c0,2.3,5.44,2.71,5.46-.35-0.85,1.64-3.77.88-5.46,0.35h0Z" transform="translate(-0.04 0)"/><path id="_Контур_53" data-name=" Контур 53" class="cls-5" d="M81.34,109.46c-0.91,1.29,1.06,3.53,2.46,1.47-1.14.56-2,.09-2.46-1.47h0Z" transform="translate(-0.04 0)"/><path id="_Контур_54" data-name=" Контур 54" class="cls-5" d="M84.81,111.25a1.21,1.21,0,0,0,2.08,1.24c-1,.47-1.7.07-2.08-1.24h0Z" transform="translate(-0.04 0)"/><path id="_Контур_56" data-name=" Контур 56" class="cls-2" d="M31.42,31.94a1,1,0,1,1-2,.16h0a16.41,16.41,0,0,1,.19-5c0.2-1,1.11-5-.32-5.05-0.75,0-1.42,2-2.08,4.08S25.95,30,24.84,30.9a4,4,0,0,0-1.41,1.44,1,1,0,1,1-2-.61c0.31-1,.9-1.47,2.08-2.43,0.64-.52,1.17-2.16,1.71-3.81,0.9-2.76,1.81-5.56,4.09-5.5,3.82,0.09,2.74,5.08,2.29,7.49a14.62,14.62,0,0,0-.16,4.5h0Z" transform="translate(-0.04 0)"/><path id="_Контур_57" data-name=" Контур 57" class="cls-2" d="M98.29,56.06c4.1,2.12,2.83,8,1.15,11.26S94.2,74.82,89.92,73s-3.2-8.1-1.48-11.42,5.75-7.69,9.85-5.57h0Z" transform="translate(-0.04 0)"/><path id="_Контур_58" data-name=" Контур 58" class="cls-4" d="M97.62,57.36c2.32,1.2,2.55,5.37.52,9.3s-5.57,6.14-7.89,4.94-2.55-5.37-.52-9.3,5.57-6.14,7.89-4.94h0Z" transform="translate(-0.04 0)"/><path id="_Контур_59" data-name=" Контур 59" class="cls-2" d="M61.4,74.54A9.93,9.93,0,0,0,71.83,77.8c-0.35,6-6.35,5.65-6.26,10.26-1.17-1.13-2.83-3.17-2.17-5.26-1.78,3.26-3.43,1.22-4,6.76-1.93-4.8-1.59-10.8,2-15h0v0Z" transform="translate(-0.04 0)"/><path id="_Контур_60" data-name=" Контур 60" class="cls-2" d="M47.13,38.93c-4.46-.58-6.71,4.49-7.29,8.15s0.2,10,4.87,10.64,6.87-4.87,7.36-8.6-0.48-9.61-4.93-10.19h0Z" transform="translate(-0.04 0)"/><path id="_Контур_61" data-name=" Контур 61" class="cls-4" d="M46.95,40.38c-2.59-.33-5.16,3-5.72,7.34s1.08,8.22,3.67,8.56,5.16-3,5.72-7.34-1.08-8.22-3.67-8.56h0Z" transform="translate(-0.04 0)"/><path id="_Контур_62" data-name=" Контур 62" class="cls-2" d="M78.46,16c2.13,0.43,4.36,2,4,4.44-0.53,2.41-3.17,3.09-5.32,2.73s-4.36-2-4-4.44c0.54-2.41,3.17-3.09,5.32-2.73h0Z" transform="translate(-0.04 0)"/><path id="_Контур_63" data-name=" Контур 63" class="cls-4" d="M78.2,17.42C80,17.74,81.2,19,81,20.16S79.19,22,77.41,21.72s-3-1.55-2.83-2.74,1.84-1.89,3.62-1.56h0Z" transform="translate(-0.04 0)"/><path id="_Контур_64" data-name=" Контур 64" class="cls-2" d="M78.48,19.59C92.34,23,101.75,32.28,102,47.08a30.64,30.64,0,0,1-2.23,12c-1.88,4.68-6,8.13-5.91,9.42a5.73,5.73,0,0,1-1.59,3.88C86.63,79.7,74.49,82,66,79.48c-7.27-2.2-13.55-6.25-17.77-12.64-4.44-6.72-5.16-13.93-3.56-21.72C48,28.67,60.75,15.26,78.48,19.59h0Z" transform="translate(-0.04 0)"/><path id="_Контур_65" data-name=" Контур 65" class="cls-4" d="M78.13,21c12.74,3.22,22.34,11.56,22.39,26.08s-7.74,17.43-8.13,21.13c-0.77,7.28-15.89,13-26,9.82S42.07,65.45,46.07,45.32s19.3-27.56,32-24.34h0.06Z" transform="translate(-0.04 0)"/><path id="_Контур_66" data-name=" Контур 66" class="cls-4" d="M78.13,21c12.74,3.22,22.34,11.56,22.39,26.08s-7.74,17.43-8.13,21.13c-0.8-6.19,7.72-7.78-1.79-18.41S55.38,37.49,49.92,46.29,47.3,63,52.43,69.67c-5.17-5.33-8.55-13.19-6.34-24.34,4-20.13,19.3-27.56,32-24.34h0Z" transform="translate(-0.04 0)"/><path id="_Контур_67" data-name=" Контур 67" class="cls-2" d="M63.09,63.59c1.61-.26,1,1.83,2.35,2.26s2.3,0,4.39.61,2.56,1.56,4,2,2-1.65,3.22-.52-2.61,2.24-3.26,4.33A5.48,5.48,0,0,1,63.36,69c0.65-2.09-1.83-5.15-.22-5.41H63.09Z" transform="translate(-0.04 0)"/><path id="_Контур_68" data-name=" Контур 68" class="cls-5" d="M73.24,70.22c-0.66,2.11-2.43,5.35-5.91,4.26s-3.09-4.76-2.43-6.87a9.29,9.29,0,0,1,8.35,2.61h0Z" transform="translate(-0.04 0)"/><path id="_Контур_69" data-name=" Контур 69" class="cls-4" d="M73.24,70.22q-0.11.33-.24,0.69a34.76,34.76,0,0,1-8.3-2.59c0.06-.25.12-0.48,0.19-0.7a9.29,9.29,0,0,1,8.35,2.61h0Z" transform="translate(-0.04 0)"/><path id="_Контур_70" data-name=" Контур 70" class="cls-2" d="M65.6,56.16c0.32,0-1-3.62-2.64-5a10.82,10.82,0,0,0-4.47-1.82A5.74,5.74,0,0,1,57,45.91c-1,1.79-.54,4.41.11,5s2,0.22,4.47,1.82,3.66,3.37,4,3.38h0Z" transform="translate(-0.04 0)"/><path id="_Контур_71" data-name=" Контур 71" class="cls-2" d="M79,61.17c-0.27-.17,2.86-2.43,5-2.6a10.82,10.82,0,0,1,4.71,1.05,5.74,5.74,0,0,0,3.14-2c-0.22,2-2.07,3.93-3,4.08s-1.79-1-4.71-1.05-4.93.69-5.2,0.51H79Z" transform="translate(-0.04 0)"/><path id="_Контур_72" data-name=" Контур 72" class="cls-2" d="M69.68,49.87c0.12-.38-2.56-6.6-6.38-7.8s-8.18,2-7.41,2.23,3.29-1.11,7.11.08,6.56,5.87,6.68,5.49h0Z" transform="translate(-0.04 0)"/><path id="_Контур_73" data-name=" Контур 73" class="cls-2" d="M81.31,54.77c0.12-.38,5.86-4,9.69-2.78s5.59,6.29,4.83,6.05-2.07-2.78-5.89-4-8.74,1.09-8.62.7h0v0Z" transform="translate(-0.04 0)"/><path id="_Контур_74" data-name=" Контур 74" class="cls-2" d="M76.55,65.15C77,64.91,80.4,67.5,81.14,70s0,5,1.52,7.35S87,80.63,86.88,81s-2.89-.52-5.46-2.09-3.67-5.35-2.8-8.13-2.52-5.37-2.06-5.61h0Z" transform="translate(-0.04 0)"/><path id="_Контур_75" data-name=" Контур 75" class="cls-5" d="M79.32,68.5a5,5,0,0,1,.76,3.67,7.33,7.33,0,0,0,1.48,5,15.26,15.26,0,0,0,2,2.15,9.78,9.78,0,0,1-2.46-1.91,7.4,7.4,0,0,1-1.72-5.5,8,8,0,0,0-.07-3.46h0V68.5Z" transform="translate(-0.04 0)"/><path id="_Контур_76" data-name=" Контур 76" class="cls-2" d="M65.06,61.59c-0.24-.46-4.5-0.26-6.54,1.39s-2.8,4.09-5.43,5.17-5.41.22-5.52,0.57,2.67,1.22,5.67,1.39,6.06-2.3,6.93-5.09,5.13-3,4.89-3.43h0Z" transform="translate(-0.04 0)"/><path id="_Контур_77" data-name=" Контур 77" class="cls-2" d="M77.75,19.72C90.49,22.94,101,32.72,101,44.17s-3,16.69-5.42,18.92c4.86-18.33-13.66-22.59-22.23-24.51a30.93,30.93,0,0,0-27.3,6.74C46.75,27.22,65,16.51,77.75,19.72h0Z" transform="translate(-0.04 0)"/><path id="_Контур_78" data-name=" Контур 78" class="cls-4" d="M78.13,21c10.26,2.61,18.48,8.51,21.32,18.29q0.27,1,.5,2a29.35,29.35,0,0,1,.57,5.77,35.8,35.8,0,0,1-.18,3.79C84.87,36.07,65.48,34.59,48.55,37.27c6-14,18.72-19,29.58-16.28h0Z" transform="translate(-0.04 0)"/><path id="_Контур_79" data-name=" Контур 79" class="cls-2" d="M72.22,19.73l2.6,0.05a33.85,33.85,0,0,0-9,17.81l-5.2-.29c2.52-7.64,7.31-14.14,11.6-17.57h0Z" transform="translate(-0.04 0)"/><path id="_Контур_80" data-name=" Контур 80" class="cls-2" d="M83,21.66l-2.39-.75c3.12,5.82,2.49,14,1,20.16L86,42.64c1.3-6.21.1-15.5-3-21h0Z" transform="translate(-0.04 0)"/><path id="_Контур_81" data-name=" Контур 81" class="cls-2" d="M49.93,31.43a71,71,0,0,1,27.83.93A52.24,52.24,0,0,1,102.29,45.5a4.49,4.49,0,0,1,1.31,2.85,4.9,4.9,0,0,1-.56,3c-0.57,1.14-2,2.32-3.48,1.56a10,10,0,0,1-1.83-1.67A49.74,49.74,0,0,0,75.58,40a69.67,69.67,0,0,0-25.71-1.23,5.31,5.31,0,0,1-2.3.17A2.44,2.44,0,0,1,45.9,36.3a5.71,5.71,0,0,1,1.49-3.52,4.1,4.1,0,0,1,2.53-1.4h0v0.05Z" transform="translate(-0.04 0)"/><path id="_Контур_82" data-name=" Контур 82" class="cls-4" d="M50.18,32.86C64.31,30.4,87,32.17,101.26,46.53a2.86,2.86,0,0,1,.84,1.6,4.11,4.11,0,0,1-.52,2.89c-0.38.58-1,1-1.49,0.49C85.87,37.14,62.44,35.17,48.31,37.59c-0.69.12-1-.55-0.94-1.25a4.11,4.11,0,0,1,1.22-2.67,2.8,2.8,0,0,1,1.6-.84h0v0Z" transform="translate(-0.04 0)"/><path id="_Контур_83" data-name=" Контур 83" class="cls-5" d="M62.94,78.31c-3.32-.51-4.58,6-3.59,8.3a13.27,13.27,0,0,1,3.59-8.3h0Z" transform="translate(-0.04 0)"/><path id="_Контур_84" data-name=" Контур 84" class="cls-5" d="M67,79.7a3.7,3.7,0,0,0-1.52,6.43c-0.72-2.9-.28-4.29,1.52-6.43h0Z" transform="translate(-0.04 0)"/><path id="_Контур_85" data-name=" Контур 85" class="cls-5" d="M68.65,80.59c0.45,2.33-.87,2.78-2.48,3,0.43-1.39,2.45-1.62,2.48-3h0Z" transform="translate(-0.04 0)"/><path id="_Контур_86" data-name=" Контур 86" class="cls-4" d="M55.11,53.11c3.45,1.08,5.82,3.36,5.28,5.09s-3.79,2.25-7.24,1.17S47.33,56,47.87,54.28s3.79-2.25,7.24-1.17h0Z" transform="translate(-0.04 0)"/><path id="_Контур_87" data-name=" Контур 87" class="cls-5" d="M60.87,62.73a5,5,0,0,0-2.72,2.59,7.33,7.33,0,0,1-4.09,3.3,15.25,15.25,0,0,1-2.87.63,9.77,9.77,0,0,0,3.11-.17,7.4,7.4,0,0,0,4.54-3.54,8,8,0,0,1,2-2.8h0Z" transform="translate(-0.04 0)"/><path id="_Контур_88" data-name=" Контур 88" class="cls-2" d="M87.83,109.46a2,2,0,0,1,1.71.34,1.77,1.77,0,0,1,.72.89,5.07,5.07,0,0,1-.93,4.28,1.57,1.57,0,0,1-.83.47,2,2,0,0,1-1.74-.24,1.9,1.9,0,0,1-.82-1,5,5,0,0,1,.93-4.28,1.67,1.67,0,0,1,1-.5h0Z" transform="translate(-0.04 0)"/><path id="_Контур_89" data-name=" Контур 89" class="cls-4" d="M88.07,110.52a0.93,0.93,0,0,1,.85.19,0.72,0.72,0,0,1,.33.52,5,5,0,0,1-.62,2.85,0.69,0.69,0,0,1-.52.33,0.93,0.93,0,0,1-.85-0.19,0.72,0.72,0,0,1-.33-0.52,5,5,0,0,1,.62-2.85,0.69,0.69,0,0,1,.52-0.33h0Z" transform="translate(-0.04 0)"/><path id="_Контур_91" data-name=" Контур 91" class="cls-4" d="M71.39,54.76c1.18,3-3.13,5.13-2.36,6.32-1.21.2-2.12,0.67-1.7,1.76-3.9-2.17,4.36-4.17,4-8.08h0Z" transform="translate(-0.04 0)"/><path id="_Контур_92" data-name=" Контур 92" class="cls-4" d="M71.45,62.89c-2.3-.9-2-2.65-4.18-2.18s-0.56,2.43.59,2.88,0.92,1,2.65,1.7,2,0.1,3.1.55,3.31,0,2.39-1.72-2.25-.34-4.54-1.24h0Z" transform="translate(-0.04 0)"/><path id="_Составной_контур_5" data-name=" Составной контур 5" class="cls-2" d="M68,61.39A8.92,8.92,0,0,0,66.85,61a2.47,2.47,0,0,1,.81.61,2.42,2.42,0,0,1,.6,1.63c-0.18.54,1.37,1.69,1.73,0.54C70.27,62.84,69.25,62,68,61.39Zm3.71,3.18c-0.36,1.16,1.55,1.12,1.73.54a2.43,2.43,0,0,1,2.44-1v0C74.12,63.53,72,63.41,71.68,64.57Z" transform="translate(-0.04 0)"/><g id="_Группа_" data-name=" Группа "><path id="_Контур_93" data-name=" Контур 93" class="cls-2" d="M100.39,74.86s17.19,15.73,27.36,19.67a6.37,6.37,0,0,0,5.08-.29S155.22,82,160.91,75c0,0,2-2.14-1.37-4.11,0,0-18.42-7.61-26.3-9.18a10.6,10.6,0,0,0-4.52.26S111.85,66.71,102,71.9C101.92,71.88,98.75,73.22,100.39,74.86Z" transform="translate(-0.04 0)"/></g><g id="_Группа_2" data-name=" Группа 2"><path id="_Контур_94" data-name=" Контур 94" class="cls-4" d="M101.67,75s16.41,14.76,26.09,18.41a6.19,6.19,0,0,0,4.86-.28s21.41-11.51,26.85-18c0,0,1.92-2-1.3-3.85,0,0-17.59-7.12-25.12-8.58a10.33,10.33,0,0,0-4.32.25s-16.12,4.44-25.59,9.31C103.13,72.17,100.09,73.43,101.67,75Z" transform="translate(-0.04 0)"/></g><g id="_Группа_3" data-name=" Группа 3"><path id="_Контур_95" data-name=" Контур 95" class="cls-7" d="M103.11,75.11s15.59,14,24.8,17.5a5.89,5.89,0,0,0,4.62-.26S152.88,81.41,158,75.2c0,0,1.82-1.9-1.24-3.66,0,0-16.72-6.77-23.88-8.16a9.81,9.81,0,0,0-4.1.23s-15.33,4.22-24.32,8.85C104.51,72.46,101.61,73.66,103.11,75.11Z" transform="translate(-0.04 0)"/></g><g id="_Группа_4" data-name=" Группа 4"><g id="_Группа_5" data-name=" Группа 5"><path id="_Составной_контур_6" data-name=" Составной контур 6" class="cls-8" d="M134.76,72.77l-0.07,0h0l-0.12,0h0l-0.09,0-0.29.08-0.29.08-0.11,0s0.05,0.08.07,0.13h0a0.6,0.6,0,0,1-.14.21l0,0.08h0.15a0.09,0.09,0,0,1,0,.05,0.32,0.32,0,0,1,0,.14,0.55,0.55,0,0,0,.25.2s0,0,0,0h0l0.16,0h0l0.08,0h0a0.13,0.13,0,0,0,.08,0h0s0,0,0,0a1.09,1.09,0,0,0,.24-0.07s0-.09,0-0.14a0.65,0.65,0,0,1,0-.13,0.57,0.57,0,0,1,.12-0.18,0.3,0.3,0,0,1,.08-0.08,0.05,0.05,0,0,1,0,0,0,0,0,0,1,0,0s0,0,0,0h0a0.41,0.41,0,0,1,0-.11,0.58,0.58,0,0,1,0-.19v0a0.8,0.8,0,0,1,.08-0.16Zm0,0-0.07,0h0l-0.12,0h0l-0.09,0-0.29.08-0.29.08-0.11,0s0.05,0.08.07,0.13h0a0.6,0.6,0,0,1-.14.21l0,0.08h0.15a0.09,0.09,0,0,1,0,.05,0.32,0.32,0,0,1,0,.14,0.55,0.55,0,0,0,.25.2s0,0,0,0h0l0.16,0h0l0.08,0h0a0.13,0.13,0,0,0,.08,0h0s0,0,0,0a1.09,1.09,0,0,0,.24-0.07s0-.09,0-0.14a0.65,0.65,0,0,1,0-.13,0.57,0.57,0,0,1,.12-0.18,0.3,0.3,0,0,1,.08-0.08,0.05,0.05,0,0,1,0,0,0,0,0,0,1,0,0s0,0,0,0h0a0.41,0.41,0,0,1,0-.11,0.58,0.58,0,0,1,0-.19v0a0.8,0.8,0,0,1,.08-0.16Zm0,0-0.07,0h0l-0.12,0h0l-0.09,0-0.29.08-0.29.08-0.11,0s0.05,0.08.07,0.13h0a0.6,0.6,0,0,1-.14.21l0,0.08h0.15a0.09,0.09,0,0,1,0,.05,0.32,0.32,0,0,1,0,.14,0.55,0.55,0,0,0,.25.2s0,0,0,0h0l0.16,0h0l0.08,0h0a0.13,0.13,0,0,0,.08,0h0s0,0,0,0a1.09,1.09,0,0,0,.24-0.07s0-.09,0-0.14a0.65,0.65,0,0,1,0-.13,0.57,0.57,0,0,1,.12-0.18,0.3,0.3,0,0,1,.08-0.08,0.05,0.05,0,0,1,0,0,0,0,0,0,1,0,0s0,0,0,0h0a0.41,0.41,0,0,1,0-.11,0.58,0.58,0,0,1,0-.19v0a0.8,0.8,0,0,1,.08-0.16Zm0,0-0.07,0h0l-0.12,0h0l-0.09,0-0.29.08-0.29.08-0.11,0s0.05,0.08.07,0.13h0a0.6,0.6,0,0,1-.14.21l0,0.08h0.15a0.09,0.09,0,0,1,0,.05,0.32,0.32,0,0,1,0,.14,0.55,0.55,0,0,0,.25.2s0,0,0,0h0l0.16,0h0l0.08,0h0a0.13,0.13,0,0,0,.08,0h0s0,0,0,0a1.09,1.09,0,0,0,.24-0.07s0-.09,0-0.14a0.65,0.65,0,0,1,0-.13,0.57,0.57,0,0,1,.12-0.18,0.3,0.3,0,0,1,.08-0.08,0.05,0.05,0,0,1,0,0,0,0,0,0,1,0,0s0,0,0,0h0a0.41,0.41,0,0,1,0-.11,0.58,0.58,0,0,1,0-.19v0a0.8,0.8,0,0,1,.08-0.16Zm0,0-0.07,0h0l-0.12,0h0l-0.09,0-0.29.08-0.29.08-0.11,0s0.05,0.08.07,0.13h0a0.6,0.6,0,0,1-.14.21l0,0.08h0.15a0.09,0.09,0,0,1,0,.05,0.35,0.35,0,0,1,0,.14,0.55,0.55,0,0,0,.25.2s0,0,0,0h0l0.16,0h0l0.08,0h0a0.13,0.13,0,0,0,.08,0h0s0,0,0,0a1.09,1.09,0,0,0,.24-0.07s0-.09,0-0.14a0.65,0.65,0,0,1,0-.13,0.41,0.41,0,0,1,.12-0.18,0.3,0.3,0,0,1,.08-0.08,0.05,0.05,0,0,1,0,0,0,0,0,0,1,0,0s0,0,0,0h0a0.41,0.41,0,0,1,0-.11,0.58,0.58,0,0,1,0-.19v0a0.8,0.8,0,0,1,.08-0.16Zm2.46-8.29c0-.29-0.07-0.47-0.08-0.53h0a15.16,15.16,0,0,0-1.65,0l-0.34,0h0c-2,.16-5,0.69-6.36,2.34-2.14,2.61-.56,8.18-0.56,8.18h0c0.12,0,.64,0,1.37,0l1.05-.06,0.43,0,0.19,0c0.21,0,.43,0,0.65-0.08a0,0,0,0,0,0,0h0l0.24,0,0.79-.14h0.12l0.1,0,0.2,0h0.09a2.83,2.83,0,0,0,.31-0.06l0.17,0,0,0h0l0.16,0h0l0.08,0h0a0.13,0.13,0,0,0,.08,0h0s0,0,0,0a1.09,1.09,0,0,0,.24-0.07l0.11,0L135,73.6l0.26-.1,0.22-.1,0.2-.09,0.09,0,0.08,0a2.06,2.06,0,0,0,.5-0.36,0.8,0.8,0,0,0,.17-0.15l0.07-.08h0a1.49,1.49,0,0,0,.15-0.2,1.72,1.72,0,0,0,.13-0.23A2.17,2.17,0,0,0,137,71.8C137.82,69.74,137.41,65.89,137.22,64.48Zm-7.62,9.14-0.89,0a17.48,17.48,0,0,1-.33-2.27,6.76,6.76,0,0,1,.88-4.38c0.88-1.12,3-1.87,5.94-2.11h0c0.54,0,1-.06,1.34-0.07,0.08,0.67.2,1.71,0.23,2.82a10.87,10.87,0,0,1-.36,3.73,1.88,1.88,0,0,1-.36.65,1.49,1.49,0,0,1-.18.17l-0.08,0-0.09.07h0a2.83,2.83,0,0,1-.55.3l-0.39.15-0.07,0h0l-0.12,0h0l-0.09,0-0.29.08-0.29.08-0.11,0h-0.07l-0.3.07-0.4.09h0l-0.27,0H132.6l-0.09,0L132,73.4l-0.28,0h0l-0.39.05h-0.12a0,0,0,0,1,0,0h0a1.63,1.63,0,0,1-.31,0l-0.26,0h0Zm5.16-.85-0.07,0h0l-0.12,0h0l-0.09,0-0.29.08-0.29.08-0.11,0s0.05,0.08.07,0.13h0a0.6,0.6,0,0,1-.14.21l0,0.08h0.15a0.09,0.09,0,0,1,0,.05,0.32,0.32,0,0,1,0,.14,0.55,0.55,0,0,0,.25.2s0,0,0,0h0l0.16,0h0l0.08,0h0a0.13,0.13,0,0,0,.08,0h0s0,0,0,0a1.09,1.09,0,0,0,.24-0.07s0-.09,0-0.14a0.65,0.65,0,0,1,0-.13,0.57,0.57,0,0,1,.12-0.18,0.3,0.3,0,0,1,.08-0.08,0.05,0.05,0,0,1,0,0,0,0,0,0,1,0,0s0,0,0,0h0a0.41,0.41,0,0,1,0-.11,0.58,0.58,0,0,1,0-.19v0a0.8,0.8,0,0,1,.08-0.16Zm0,0-0.07,0h0l-0.12,0h0l-0.09,0-0.29.08-0.29.08-0.11,0s0.05,0.08.07,0.13h0a0.6,0.6,0,0,1-.14.21l0,0.08h0.15a0.09,0.09,0,0,1,0,.05,0.32,0.32,0,0,1,0,.14,0.55,0.55,0,0,0,.25.2s0,0,0,0h0l0.16,0h0l0.08,0h0a0.13,0.13,0,0,0,.08,0h0s0,0,0,0a1.09,1.09,0,0,0,.24-0.07s0-.09,0-0.14a0.65,0.65,0,0,1,0-.13,0.57,0.57,0,0,1,.12-0.18,0.3,0.3,0,0,1,.08-0.08,0.05,0.05,0,0,1,0,0,0,0,0,0,1,0,0s0,0,0,0h0a0.41,0.41,0,0,1,0-.11,0.58,0.58,0,0,1,0-.19v0a0.8,0.8,0,0,1,.08-0.16Zm0,0-0.07,0h0l-0.12,0h0l-0.09,0-0.29.08-0.29.08-0.11,0s0.05,0.08.07,0.13h0a0.6,0.6,0,0,1-.14.21l0,0.08h0.15a0.09,0.09,0,0,1,0,.05,0.32,0.32,0,0,1,0,.14,0.55,0.55,0,0,0,.25.2s0,0,0,0h0l0.16,0h0l0.08,0h0a0.13,0.13,0,0,0,.08,0h0s0,0,0,0a1.09,1.09,0,0,0,.24-0.07s0-.09,0-0.14a0.65,0.65,0,0,1,0-.13,0.57,0.57,0,0,1,.12-0.18,0.3,0.3,0,0,1,.08-0.08,0.05,0.05,0,0,1,0,0,0,0,0,0,1,0,0s0,0,0,0h0a0.41,0.41,0,0,1,0-.11,0.58,0.58,0,0,1,0-.19v0a0.8,0.8,0,0,1,.08-0.16Zm0,0-0.07,0h0l-0.12,0h0l-0.09,0-0.29.08-0.29.08-0.11,0s0.05,0.08.07,0.13h0a0.6,0.6,0,0,1-.14.21l0,0.08h0.15a0.09,0.09,0,0,1,0,.05,0.32,0.32,0,0,1,0,.14,0.55,0.55,0,0,0,.25.2s0,0,0,0h0l0.16,0h0l0.08,0h0a0.13,0.13,0,0,0,.08,0h0s0,0,0,0a1.09,1.09,0,0,0,.24-0.07s0-.09,0-0.14a0.65,0.65,0,0,1,0-.13,0.57,0.57,0,0,1,.12-0.18,0.3,0.3,0,0,1,.08-0.08,0.05,0.05,0,0,1,0,0,0,0,0,0,1,0,0s0,0,0,0h0a0.41,0.41,0,0,1,0-.11,0.58,0.58,0,0,1,0-.19v0a0.8,0.8,0,0,1,.08-0.16Zm0,0-0.07,0h0l-0.12,0h0l-0.09,0-0.29.08-0.29.08-0.11,0s0.05,0.08.07,0.13h0a0.6,0.6,0,0,1-.14.21l0,0.08h0.15a0.09,0.09,0,0,1,0,.05,0.32,0.32,0,0,1,0,.14,0.55,0.55,0,0,0,.25.2s0,0,0,0h0l0.16,0h0l0.08,0h0a0.13,0.13,0,0,0,.08,0h0s0,0,0,0a1.09,1.09,0,0,0,.24-0.07s0-.09,0-0.14a0.65,0.65,0,0,1,0-.13,0.57,0.57,0,0,1,.12-0.18,0.3,0.3,0,0,1,.08-0.08,0.05,0.05,0,0,1,0,0,0,0,0,0,1,0,0s0,0,0,0h0a0.41,0.41,0,0,1,0-.11,0.58,0.58,0,0,1,0-.19v0a0.8,0.8,0,0,1,.08-0.16Zm0,0-0.07,0h0l-0.12,0h0l-0.09,0-0.29.08-0.29.08-0.11,0s0.05,0.08.07,0.13h0a0.6,0.6,0,0,1-.14.21l0,0.08h0.15a0.09,0.09,0,0,1,0,.05,0.32,0.32,0,0,1,0,.14,0.55,0.55,0,0,0,.25.2s0,0,0,0h0l0.16,0h0l0.08,0h0a0.13,0.13,0,0,0,.08,0h0s0,0,0,0a1.09,1.09,0,0,0,.24-0.07s0-.09,0-0.14a0.65,0.65,0,0,1,0-.13,0.57,0.57,0,0,1,.12-0.18,0.3,0.3,0,0,1,.08-0.08,0.05,0.05,0,0,1,0,0,0,0,0,0,1,0,0s0,0,0,0h0a0.41,0.41,0,0,1,0-.11,0.58,0.58,0,0,1,0-.19v0a0.8,0.8,0,0,1,.08-0.16Z" transform="translate(-0.04 0)"/><path id="_Контур_96" data-name=" Контур 96" class="cls-8" d="M137.14,64a6.32,6.32,0,0,0-3.3-1.3c-1.73,0-5.38.65-7.33,2.34s-1,7.88-.78,8.45,2.5,1.1,2.5,1.1-0.76-4.76.33-7.39C129.88,64.2,137.14,64,137.14,64Z" transform="translate(-0.04 0)"/><g id="_Группа_обтравки_" data-name=" Группа обтравки "><g class="cls-9"><g id="_Группа_6" data-name=" Группа 6"><path id="_Контур_97" data-name=" Контур 97" class="cls-4" d="M135.88,65a10,10,0,0,0-3-2.38L133,62.3a10.11,10.11,0,0,1,3.1,2.47Z" transform="translate(-0.04 0)"/><path id="_Контур_98" data-name=" Контур 98" class="cls-4" d="M132.94,65.11a9.61,9.61,0,0,0-2.32-2l0.11-.3a9.68,9.68,0,0,1,2.41,2.09Z" transform="translate(-0.04 0)"/><path id="_Контур_99" data-name=" Контур 99" class="cls-4" d="M130.48,65.8a9.08,9.08,0,0,0-2.7-2l0.09-.31a9.1,9.1,0,0,1,2.81,2.07Z" transform="translate(-0.04 0)"/><path id="_Контур_100" data-name=" Контур 100" class="cls-4" d="M128.62,67.4a9.15,9.15,0,0,0-2.68-1.68L126,65.4a9.25,9.25,0,0,1,2.77,1.74Z" transform="translate(-0.04 0)"/><path id="_Контур_101" data-name=" Контур 101" class="cls-4" d="M128.26,69.47a9.41,9.41,0,0,0-3.11-1.55V67.6a9.5,9.5,0,0,1,3.21,1.6Z" transform="translate(-0.04 0)"/><path id="_Контур_102" data-name=" Контур 102" class="cls-4" d="M128.18,72.13a10.75,10.75,0,0,0-3-1.45V70.36a10.76,10.76,0,0,1,3.15,1.51Z" transform="translate(-0.04 0)"/></g></g></g></g><g id="_Группа_7" data-name=" Группа 7"><path id="_Контур_103" data-name=" Контур 103" class="cls-8" d="M126.26,71.26c-0.74.06-1.38,0.08-1.81,0.09a16.82,16.82,0,0,1-.33-2.27A6.76,6.76,0,0,1,125,64.7c0.88-1.12,3-1.87,5.94-2.11,0.54,0,1-.06,1.34-0.07a1.69,1.69,0,0,0,.06.53,1.09,1.09,0,0,1,.68-0.2c-0.08-.74-0.16-1.22-0.16-1.22a19.64,19.64,0,0,0-2,.07c-2,.16-5,0.69-6.36,2.34-2.14,2.61-.56,8.18-0.56,8.18s1,0,2.35-.1A2.07,2.07,0,0,1,126.26,71.26Z" transform="translate(-0.04 0)"/><path id="_Контур_104" data-name=" Контур 104" class="cls-8" d="M132.87,61.65a6.32,6.32,0,0,0-3.3-1.3c-1.73,0-5.38.65-7.33,2.34s-1,7.88-.78,8.45,2.5,1.1,2.5,1.1-0.76-4.76.33-7.39C125.6,61.9,132.87,61.65,132.87,61.65Z" transform="translate(-0.04 0)"/><g id="_Группа_обтравки_2" data-name=" Группа обтравки 2"><g class="cls-10"><g id="_Группа_8" data-name=" Группа 8"><path id="_Контур_105" data-name=" Контур 105" class="cls-4" d="M131.6,62.75a10,10,0,0,0-3-2.38l0.09-.37a10.11,10.11,0,0,1,3.1,2.47Z" transform="translate(-0.04 0)"/><path id="_Контур_106" data-name=" Контур 106" class="cls-4" d="M128.66,62.81a9.61,9.61,0,0,0-2.32-2l0.11-.3a9.68,9.68,0,0,1,2.41,2.09Z" transform="translate(-0.04 0)"/><path id="_Контур_107" data-name=" Контур 107" class="cls-4" d="M126.2,63.5a9.08,9.08,0,0,0-2.7-2l0.09-.31a9.1,9.1,0,0,1,2.81,2.07Z" transform="translate(-0.04 0)"/><path id="_Контур_108" data-name=" Контур 108" class="cls-4" d="M124.34,65.1a9.15,9.15,0,0,0-2.68-1.68l0.07-.32a9.25,9.25,0,0,1,2.77,1.74Z" transform="translate(-0.04 0)"/><path id="_Контур_109" data-name=" Контур 109" class="cls-4" d="M124,67.17a9.41,9.41,0,0,0-3.11-1.55V65.3a9.5,9.5,0,0,1,3.21,1.6Z" transform="translate(-0.04 0)"/><path id="_Контур_110" data-name=" Контур 110" class="cls-4" d="M123.9,69.84a10.74,10.74,0,0,0-3-1.45V68.07a10.76,10.76,0,0,1,3.2,1.52Z" transform="translate(-0.04 0)"/></g></g></g></g><path id="_Контур_111" data-name=" Контур 111" class="cls-8" d="M133.9,67.07h0.67c0,0.33.1,0.86,0.12,1.41a3.61,3.61,0,0,1-.36,2.19,4.9,4.9,0,0,1-2.75.76h-0.93a8.42,8.42,0,0,1-.17-1.14,3.28,3.28,0,0,1,.44-2.19,4.4,4.4,0,0,1,3-1.05Z" transform="translate(-0.04 0)"/></g><g id="_Группа_9" data-name=" Группа 9"><path id="_Контур_112" data-name=" Контур 112" class="cls-8" d="M120.87,76.59c0,1.74-3,3.16-6.64,3.16s-6.64-1.41-6.64-3.16,3-.55,6.64-0.55S120.87,74.87,120.87,76.59Z" transform="translate(-0.04 0)"/><rect id="_Контур_113" data-name=" Контур 113" class="cls-8" x="107.55" y="69.88" width="13.29" height="6.73"/><g id="_Группа_10" data-name=" Группа 10"><ellipse id="_Контур_114" data-name=" Контур 114" class="cls-4" cx="114.19" cy="69.88" rx="6.07" ry="2.89"/><path id="_Составной_контур_7" data-name=" Составной контур 7" class="cls-8" d="M117.56,67.13h0a9.9,9.9,0,0,0-1.32-.28h0a12.88,12.88,0,0,0-2-.15h0c-3.19,0-5.84,1.09-6.46,2.52h0a1.51,1.51,0,0,0-.13.63,0.41,0.41,0,0,0,0,.11,0.5,0.5,0,0,0,0,.17,1.66,1.66,0,0,0,.31.71,3.6,3.6,0,0,0,1.25,1,7.11,7.11,0,0,0,1.78.7,12.23,12.23,0,0,0,3.27.42c0.34,0,.67,0,1,0h0a10.91,10.91,0,0,0,1.47-.19c2.42-.46,4.15-1.59,4.17-2.91v0C120.86,68.69,119.53,67.68,117.56,67.13Zm1,4.16-0.17.06a9.76,9.76,0,0,1-1.67.51,11.35,11.35,0,0,1-1.44.22,11.23,11.23,0,0,1-3.56-.24h0a11.18,11.18,0,0,1-1.59-.48l-0.19-.07a1.43,1.43,0,0,1-1.26-.76,1.29,1.29,0,0,1-.17-0.65v0a0.28,0.28,0,0,1,0-.09,0.09,0.09,0,0,1,0,0,1.43,1.43,0,0,1,.86-1.18h0a1.06,1.06,0,0,1,.39-0.09s0,0,0,0a0.39,0.39,0,0,1,.15,0,11.06,11.06,0,0,1,1.85-.59l0.27,0a9.09,9.09,0,0,1,2.09-.2H115c0.32,0,.64,0,1,0.1a10.78,10.78,0,0,1,2.61.73A1.43,1.43,0,0,1,120,69.86v0a0.13,0.13,0,0,1,0,.06s0,0,0,0a1.26,1.26,0,0,1-.28.76s0,0,0,0A1.44,1.44,0,0,1,118.54,71.29Z" transform="translate(-0.04 0)"/></g><path id="_Контур_115" data-name=" Контур 115" class="cls-8" d="M120.17,69.72h-0.1a2.14,2.14,0,0,1-1,1.14,5.69,5.69,0,0,1-1.17.5c-0.24.07-.5,0.13-0.78,0.19a10.78,10.78,0,0,1-2.46.19,7.36,7.36,0,0,1-1.18-.12,6.49,6.49,0,0,1-1.85-.54,1.3,1.3,0,0,1-1-1.21,1.18,1.18,0,0,1,.6-0.72,3.85,3.85,0,0,1,.82-0.36l0.33-.08a6.28,6.28,0,0,1,2.11-.06,2.39,2.39,0,0,1,1.26.5,0.38,0.38,0,0,1,.07.53l-0.07.07a1.09,1.09,0,0,1-.35.18,1.86,1.86,0,0,1-.78,0,0.23,0.23,0,0,1-.22-0.16h0.08l0.1-.05h0a0.14,0.14,0,0,0,0-.26,1.21,1.21,0,0,0-.65-0.17,2.25,2.25,0,0,0-1.21.22h0a0.61,0.61,0,0,0-.41.61h0a1,1,0,0,0,.48.47h0a4.51,4.51,0,0,0,1.88.41,6.54,6.54,0,0,0,2.13-.26l0.32-.1a2.46,2.46,0,0,0,1.09-.68h0a0.85,0.85,0,0,0,.14-0.86h0a2,2,0,0,0-1-.86,8.55,8.55,0,0,0-3.23-.7h0a11.16,11.16,0,0,0-2.62.2,10.81,10.81,0,0,0-1,.27l-0.27.08h0a4,4,0,0,0-1.72,1h0a5.66,5.66,0,0,0-.35.63h0.41a5.59,5.59,0,0,1,.34-0.62,3.83,3.83,0,0,1,1.62-.95l0.21-.06c0.28-.08.55-0.15,0.83-0.21a10.47,10.47,0,0,1,2.46-.19,8,8,0,0,1,3,.66,1.87,1.87,0,0,1,.9.8,0.79,0.79,0,0,1-.13.8,2.23,2.23,0,0,1-1,.62l-0.18.06a6,6,0,0,1-1.81.2h0a4,4,0,0,1-1.66-.36,0.89,0.89,0,0,1-.42-0.41c0-.17,0-0.32.36-0.51h0.11a2.8,2.8,0,0,1,.62-0.06,0.72,0.72,0,0,1,.38.1,0.08,0.08,0,0,1,0,.12h-0.06a0.23,0.23,0,0,0-.17.14,0.42,0.42,0,0,0,.4.28h0a2.53,2.53,0,0,0,1.2-.08,1.51,1.51,0,0,0,.58-0.27h0a0.44,0.44,0,0,0,.08-0.62l-0.08-.08a2.73,2.73,0,0,0-1.44-.57h0a7,7,0,0,0-2.34.06l-0.48.12a4.2,4.2,0,0,0-1,.42h0a1.29,1.29,0,0,0-.65.79h0a1.42,1.42,0,0,0,1,1.31h0a6.94,6.94,0,0,0,2,.58c0.4,0.06.83,0.09,1.25,0.12h0.45a11.25,11.25,0,0,0,2.18-.21,9.13,9.13,0,0,0,1-.24,6.15,6.15,0,0,0,1.36-.56,2.25,2.25,0,0,0,1.11-1.2Z" transform="translate(-0.04 0)"/></g><g id="_Группа_11" data-name=" Группа 11"><path id="_Контур_116" data-name=" Контур 116" class="cls-8" d="M153.75,74.59c0,1.68-2.87,3-6.4,3s-6.4-1.36-6.4-3,2.87-.53,6.4-0.53S153.75,72.86,153.75,74.59Z" transform="translate(-0.04 0)"/><rect id="_Контур_117" data-name=" Контур 117" class="cls-8" x="140.96" y="68.06" width="12.81" height="6.48"/><g id="_Группа_12" data-name=" Группа 12"><ellipse id="_Контур_118" data-name=" Контур 118" class="cls-4" cx="147.36" cy="68.06" rx="5.96" ry="2.83"/><path id="_Составной_контур_8" data-name=" Составной контур 8" class="cls-8" d="M151.07,65.56a7.44,7.44,0,0,0-1-.27,1.69,1.69,0,0,0-.31-0.06,3.11,3.11,0,0,0-.44-0.08h0c-0.14,0-.29,0-0.44-0.06l-0.16,0h-0.22c-0.2,0-.41,0-0.62,0h-0.54q-0.36,0-.72,0l-0.36,0c-0.43,0-.84.1-1.23,0.17h0a0.37,0.37,0,0,0-.15,0h0a8.7,8.7,0,0,0-1.12.3l-0.36.12h0a6.33,6.33,0,0,0-.94.46A2.34,2.34,0,0,0,141,68a0.09,0.09,0,0,0,0,0c0,1.62,2.9,3,6.39,3a10,10,0,0,0,5.06-1.18,3.59,3.59,0,0,0,.71-0.54,2.09,2.09,0,0,0,.51-0.7,1.63,1.63,0,0,0,.12-0.53v0C153.81,67,152.73,66.1,151.07,65.56Zm2,2.77a1.26,1.26,0,0,1-.42.74,1.4,1.4,0,0,1-.82.36,0.88,0.88,0,0,1-.23,0l-0.07,0a11.07,11.07,0,0,1-8.24,0,1.38,1.38,0,0,1-1.49-1.26s0-.07,0-0.11A1.38,1.38,0,0,1,143,66.68h0.23l0.3-.13h0l0.35-.13h0l0.4-.13h0l0.19-.05h0a0.9,0.9,0,0,1,.22-0.06h0a2.88,2.88,0,0,1,.49-0.11h0l0.36-.07,0.41-.06,0.19,0h0l0.26,0h0.07a8,8,0,0,1,.85,0h0.87l0.59,0.06h0a2.61,2.61,0,0,1,.46.08h0.06l0.13,0h0l0.12,0,0.09,0a0.31,0.31,0,0,1,.13,0,4.78,4.78,0,0,1,.51.13,4.09,4.09,0,0,1,.46.15h0l0.12,0,0.57,0.22a1.43,1.43,0,0,1,.36,0A1.38,1.38,0,0,1,153,67.94s0,0.07,0,.12A1.24,1.24,0,0,1,153,68.33Z" transform="translate(-0.04 0)"/></g><g id="_Группа_13" data-name=" Группа 13"><circle id="_Контур_119" data-name=" Контур 119" class="cls-8" cx="144.26" cy="68.06" r="0.81" transform="translate(-15.29 69.57) rotate(-25.8)"/><circle id="_Контур_120" data-name=" Контур 120" class="cls-8" cx="143.91" cy="67.01" r="0.81"/><circle id="_Контур_121" data-name=" Контур 121" class="cls-8" cx="145.38" cy="68.74" r="0.81"/><circle id="_Контур_122" data-name=" Контур 122" class="cls-8" cx="146.77" cy="68.74" r="0.81"/><circle id="_Контур_123" data-name=" Контур 123" class="cls-8" cx="148.06" cy="68.74" r="0.81"/><circle id="_Контур_124" data-name=" Контур 124" class="cls-8" cx="149.22" cy="68.46" r="0.81"/><circle id="_Контур_125" data-name=" Контур 125" class="cls-8" cx="150.48" cy="68.28" r="0.81"/><circle id="_Контур_126" data-name=" Контур 126" class="cls-8" cx="151.43" cy="67.93" r="0.81"/><circle id="_Контур_127" data-name=" Контур 127" class="cls-8" cx="143.29" cy="67.65" r="0.81"/><circle id="_Контур_128" data-name=" Контур 128" class="cls-8" cx="150.06" cy="67.26" r="1.2"/><circle id="_Контур_129" data-name=" Контур 129" class="cls-8" cx="148.64" cy="67.65" r="0.81"/><circle id="_Контур_130" data-name=" Контур 130" class="cls-8" cx="147.4" cy="67.47" r="0.81"/><circle id="_Контур_131" data-name=" Контур 131" class="cls-8" cx="144.44" cy="65.85" r="0.81"/><circle id="_Контур_132" data-name=" Контур 132" class="cls-8" cx="145.78" cy="65.22" r="0.81"/><circle id="_Контур_133" data-name=" Контур 133" class="cls-8" cx="147.01" cy="65.04" r="0.81"/><ellipse id="_Контур_134" data-name=" Контур 134" class="cls-8" cx="145.72" cy="67.12" rx="1.62" ry="1.38"/><circle id="_Контур_135" data-name=" Контур 135" class="cls-8" cx="148.06" cy="64.83" r="0.81"/><circle id="_Контур_136" data-name=" Контур 136" class="cls-8" cx="149.22" cy="65.24" r="0.81"/><circle id="_Контур_137" data-name=" Контур 137" class="cls-8" cx="150.31" cy="65.82" r="0.81" transform="translate(-8.34 23.74) rotate(-8.79)"/><circle id="_Контур_138" data-name=" Контур 138" class="cls-8" cx="151.07" cy="66.66" r="0.81"/><circle id="_Контур_139" data-name=" Контур 139" class="cls-8" cx="148.86" cy="65.85" r="0.81"/><circle id="_Контур_140" data-name=" Контур 140" class="cls-8" cx="147.12" cy="66.2" r="1.16"/><circle id="_Контур_141" data-name=" Контур 141" class="cls-8" cx="148.21" cy="66.45" r="0.81"/><circle id="_Контур_142" data-name=" Контур 142" class="cls-8" cx="149.45" cy="66.84" r="0.81"/></g></g><g id="_Группа_14" data-name=" Группа 14"><g id="_Группа_15" data-name=" Группа 15"><circle id="_Контур_143" data-name=" Контур 143" class="cls-11" cx="133.98" cy="73.3" r="0.67"/><circle id="_Контур_144" data-name=" Контур 144" class="cls-11" cx="132.21" cy="72.78" r="0.67"/><circle id="_Контур_145" data-name=" Контур 145" class="cls-11" cx="131.9" cy="73.24" r="0.67"/><circle id="_Контур_146" data-name=" Контур 146" class="cls-11" cx="135.67" cy="72.99" r="0.67"/><circle id="_Контур_147" data-name=" Контур 147" class="cls-11" cx="135" cy="73.45" r="0.67"/><circle id="_Контур_148" data-name=" Контур 148" class="cls-11" cx="133.13" cy="73.45" r="0.67"/><circle id="_Контур_149" data-name=" Контур 149" class="cls-11" cx="133.89" cy="72.44" r="0.67"/><circle id="_Контур_150" data-name=" Контур 150" class="cls-11" cx="135" cy="72.44" r="0.67"/><circle id="_Контур_151" data-name=" Контур 151" class="cls-11" cx="131.18" cy="72.25" r="0.67"/><circle id="_Контур_152" data-name=" Контур 152" class="cls-11" cx="131.18" cy="72.98" r="0.67"/><circle id="_Контур_153" data-name=" Контур 153" class="cls-11" cx="130.98" cy="71.72" r="0.67"/><circle id="_Контур_154" data-name=" Контур 154" class="cls-11" cx="131.69" cy="70.99" r="0.67"/><circle id="_Контур_155" data-name=" Контур 155" class="cls-11" cx="132.88" cy="71.11" r="0.67"/><circle id="_Контур_156" data-name=" Контур 156" class="cls-11" cx="131.85" cy="71.77" r="0.67"/><circle id="_Контур_157" data-name=" Контур 157" class="cls-11" cx="133.98" cy="71.46" r="0.67"/><circle id="_Контур_158" data-name=" Контур 158" class="cls-11" cx="132.88" cy="72.32" r="0.67"/></g><g id="_Группа_16" data-name=" Группа 16"><circle id="_Контур_159" data-name=" Контур 159" class="cls-11" cx="136.59" cy="74.55" r="0.67" transform="translate(-7.44 15.54) rotate(-6.34)"/><circle id="_Контур_160" data-name=" Контур 160" class="cls-11" cx="134.78" cy="74.22" r="0.67" transform="translate(-7.42 15.34) rotate(-6.34)"/><circle id="_Контур_161" data-name=" Контур 161" class="cls-11" cx="138.24" cy="74.05" r="0.67" transform="translate(-7.38 15.72) rotate(-6.34)"/><circle id="_Контур_162" data-name=" Контур 162" class="cls-11" cx="137.63" cy="74.58" r="0.67" transform="translate(-7.44 15.65) rotate(-6.34)"/><circle id="_Контур_163" data-name=" Контур 163" class="cls-11" cx="135.76" cy="74.78" r="0.67" transform="translate(-7.47 15.45) rotate(-6.34)"/><circle id="_Контур_164" data-name=" Контур 164" class="cls-11" cx="136.4" cy="73.75" r="0.67" transform="translate(-7.34 15.49) rotate(-6.33)"/><circle id="_Контур_165" data-name=" Контур 165" class="cls-11" cx="137.52" cy="73.58" r="0.67" transform="translate(-7.33 15.63) rotate(-6.34)"/><circle id="_Контур_166" data-name=" Контур 166" class="cls-11" cx="133.69" cy="73.86" r="0.67" transform="translate(-7.37 15.19) rotate(-6.33)"/><circle id="_Контур_167" data-name=" Контур 167" class="cls-11" cx="133.19" cy="72.97" r="0.67" transform="translate(-7.29 15.15) rotate(-6.34)"/><circle id="_Контур_168" data-name=" Контур 168" class="cls-11" cx="134.06" cy="72.5" r="0.67" transform="translate(-7.23 15.25) rotate(-6.34)"/><circle id="_Контур_169" data-name=" Контур 169" class="cls-11" cx="135.28" cy="72.5" r="0.67" transform="translate(-7.22 15.38) rotate(-6.34)"/><circle id="_Контур_170" data-name=" Контур 170" class="cls-11" cx="135.4" cy="73.69" r="0.67" transform="translate(-7.35 15.4) rotate(-6.34)"/><circle id="_Контур_171" data-name=" Контур 171" class="cls-11" cx="134.31" cy="73.26" r="0.67" transform="translate(-7.31 15.28) rotate(-6.34)"/><circle id="_Контур_172" data-name=" Контур 172" class="cls-11" cx="136.39" cy="72.97" r="0.67" transform="translate(-7.26 15.48) rotate(-6.33)"/><circle id="_Контур_173" data-name=" Контур 173" class="cls-11" cx="135.1" cy="71.67" r="0.67" transform="translate(-7.13 15.36) rotate(-6.34)"/><circle id="_Контур_174" data-name=" Контур 174" class="cls-11" cx="136.43" cy="72.04" r="0.67" transform="translate(-7.17 15.51) rotate(-6.34)"/><circle id="_Контур_175" data-name=" Контур 175" class="cls-11" cx="137.27" cy="72.74" r="0.67" transform="translate(-7.24 15.6) rotate(-6.34)"/></g><g id="_Группа_17" data-name=" Группа 17"><circle id="_Контур_176" data-name=" Контур 176" class="cls-11" cx="140.32" cy="75.87" r="0.67" transform="translate(-7.56 15.96) rotate(-6.34)"/><circle id="_Контур_177" data-name=" Контур 177" class="cls-11" cx="138.5" cy="75.54" r="0.67" transform="translate(-7.54 15.75) rotate(-6.34)"/><circle id="_Контур_178" data-name=" Контур 178" class="cls-11" cx="141.94" cy="75.42" r="0.67" transform="translate(-7.49 16.11) rotate(-6.33)"/><circle id="_Контур_179" data-name=" Контур 179" class="cls-11" cx="141.35" cy="75.9" r="0.67" transform="translate(-7.56 16.07) rotate(-6.34)"/><circle id="_Контур_180" data-name=" Контур 180" class="cls-11" cx="139.48" cy="76.11" r="0.67" transform="translate(-7.6 15.87) rotate(-6.34)"/><circle id="_Контур_181" data-name=" Контур 181" class="cls-11" cx="140.14" cy="75.02" r="0.67" transform="translate(-7.47 15.93) rotate(-6.34)"/><circle id="_Контур_182" data-name=" Контур 182" class="cls-11" cx="141.23" cy="74.9" r="0.67" transform="translate(-7.45 16.05) rotate(-6.34)"/><circle id="_Контур_183" data-name=" Контур 183" class="cls-11" cx="137.42" cy="75.14" r="0.67" transform="translate(-7.5 15.63) rotate(-6.34)"/><circle id="_Контур_184" data-name=" Контур 184" class="cls-11" cx="136.9" cy="74.29" r="0.67" transform="translate(-7.41 15.57) rotate(-6.34)"/><circle id="_Контур_185" data-name=" Контур 185" class="cls-11" cx="137.79" cy="73.82" r="0.67" transform="translate(-7.35 15.67) rotate(-6.34)"/><circle id="_Контур_186" data-name=" Контур 186" class="cls-11" cx="139" cy="73.82" r="0.67" transform="translate(-7.35 15.8) rotate(-6.34)"/><circle id="_Контур_187" data-name=" Контур 187" class="cls-11" cx="139.13" cy="75.02" r="0.67" transform="translate(-7.48 15.82) rotate(-6.34)"/><circle id="_Контур_188" data-name=" Контур 188" class="cls-11" cx="138.02" cy="74.64" r="0.67" transform="translate(-7.43 15.67) rotate(-6.33)"/><circle id="_Контур_189" data-name=" Контур 189" class="cls-11" cx="140.13" cy="74.23" r="0.67" transform="translate(-7.38 15.93) rotate(-6.34)"/><circle id="_Контур_190" data-name=" Контур 190" class="cls-11" cx="138.82" cy="72.99" r="0.67" transform="translate(-7.26 15.77) rotate(-6.34)"/><circle id="_Контур_191" data-name=" Контур 191" class="cls-11" cx="138.03" cy="72.5" r="0.67" transform="translate(-7.21 15.68) rotate(-6.34)"/><circle id="_Контур_192" data-name=" Контур 192" class="cls-11" cx="140.16" cy="73.37" r="0.67" transform="translate(-7.29 15.92) rotate(-6.34)"/><circle id="_Контур_193" data-name=" Контур 193" class="cls-11" cx="140.98" cy="74.06" r="0.67" transform="translate(-7.36 16.02) rotate(-6.34)"/></g><g id="_Группа_18" data-name=" Группа 18"><circle id="_Контур_194" data-name=" Контур 194" class="cls-11" cx="135.11" cy="76.21" r="0.67" transform="translate(-7.63 15.38) rotate(-6.34)"/><circle id="_Контур_195" data-name=" Контур 195" class="cls-11" cx="133.31" cy="75.89" r="0.67" transform="translate(-7.61 15.18) rotate(-6.34)"/><circle id="_Контур_196" data-name=" Контур 196" class="cls-11" cx="136.76" cy="75.72" r="0.67" transform="translate(-7.57 15.56) rotate(-6.34)"/><circle id="_Контур_197" data-name=" Контур 197" class="cls-11" cx="136.12" cy="76.3" r="0.67" transform="translate(-7.63 15.47) rotate(-6.33)"/><circle id="_Контур_198" data-name=" Контур 198" class="cls-11" cx="134.28" cy="76.45" r="0.67" transform="translate(-7.67 15.29) rotate(-6.34)"/><circle id="_Контур_199" data-name=" Контур 199" class="cls-11" cx="134.93" cy="75.36" r="0.67" transform="translate(-7.54 15.36) rotate(-6.34)"/><circle id="_Контур_200" data-name=" Контур 200" class="cls-11" cx="136.03" cy="75.24" r="0.67" transform="translate(-7.52 15.48) rotate(-6.34)"/><circle id="_Контур_201" data-name=" Контур 201" class="cls-11" cx="132.22" cy="75.47" r="0.67" transform="translate(-7.57 15.06) rotate(-6.34)"/><circle id="_Контур_202" data-name=" Контур 202" class="cls-11" cx="131.7" cy="74.63" r="0.67" transform="translate(-7.48 15) rotate(-6.34)"/><circle id="_Контур_203" data-name=" Контур 203" class="cls-11" cx="132.58" cy="74.17" r="0.67" transform="translate(-7.42 15.09) rotate(-6.34)"/><circle id="_Контур_204" data-name=" Контур 204" class="cls-11" cx="133.8" cy="74.16" r="0.67" transform="translate(-7.42 15.23) rotate(-6.34)"/><circle id="_Контур_205" data-name=" Контур 205" class="cls-11" cx="133.92" cy="75.36" r="0.67" transform="translate(-7.55 15.25) rotate(-6.34)"/><circle id="_Контур_206" data-name=" Контур 206" class="cls-11" cx="132.83" cy="74.92" r="0.67" transform="translate(-7.51 15.13) rotate(-6.34)"/><circle id="_Контур_207" data-name=" Контур 207" class="cls-11" cx="134.93" cy="74.57" r="0.67" transform="translate(-7.45 15.35) rotate(-6.34)"/><circle id="_Контур_208" data-name=" Контур 208" class="cls-11" cx="133.61" cy="73.39" r="0.67" transform="translate(-7.32 15.18) rotate(-6.33)"/><circle id="_Контур_209" data-name=" Контур 209" class="cls-11" cx="134.94" cy="73.76" r="0.67" transform="translate(-7.35 15.33) rotate(-6.33)"/><circle id="_Контур_210" data-name=" Контур 210" class="cls-11" cx="135.78" cy="74.4" r="0.67" transform="translate(-7.43 15.45) rotate(-6.34)"/></g><g id="_Группа_19" data-name=" Группа 19"><circle id="_Контур_211" data-name=" Контур 211" class="cls-11" cx="139.07" cy="77.77" r="0.67" transform="translate(-7.78 15.83) rotate(-6.34)"/><circle id="_Контур_212" data-name=" Контур 212" class="cls-11" cx="137.26" cy="77.44" r="0.67" transform="translate(-7.76 15.63) rotate(-6.34)"/><circle id="_Контур_213" data-name=" Контур 213" class="cls-11" cx="140.71" cy="77.27" r="0.67" transform="translate(-7.72 16.01) rotate(-6.34)"/><circle id="_Контур_214" data-name=" Контур 214" class="cls-11" cx="140.11" cy="77.8" r="0.67" transform="translate(-7.78 15.95) rotate(-6.34)"/><circle id="_Контур_215" data-name=" Контур 215" class="cls-11" cx="138.24" cy="78" r="0.67" transform="translate(-7.81 15.74) rotate(-6.34)"/><circle id="_Контур_216" data-name=" Контур 216" class="cls-11" cx="138.9" cy="76.92" r="0.67" transform="translate(-7.69 15.81) rotate(-6.34)"/><circle id="_Контур_217" data-name=" Контур 217" class="cls-11" cx="140" cy="76.79" r="0.67" transform="translate(-7.67 15.93) rotate(-6.34)"/><circle id="_Контур_218" data-name=" Контур 218" class="cls-11" cx="134.83" cy="76.66" r="0.67" transform="translate(-7.69 15.36) rotate(-6.34)"/><circle id="_Контур_219" data-name=" Контур 219" class="cls-11" cx="135.66" cy="76.19" r="0.67" transform="translate(-7.63 15.44) rotate(-6.34)"/><circle id="_Контур_220" data-name=" Контур 220" class="cls-11" cx="136.52" cy="75.78" r="0.67" transform="translate(-7.57 15.51) rotate(-6.33)"/><circle id="_Контур_221" data-name=" Контур 221" class="cls-11" cx="137.74" cy="75.78" r="0.67" transform="translate(-7.56 15.65) rotate(-6.33)"/><circle id="_Контур_222" data-name=" Контур 222" class="cls-11" cx="137.86" cy="76.98" r="0.67" transform="translate(-7.69 15.67) rotate(-6.33)"/><circle id="_Контур_223" data-name=" Контур 223" class="cls-11" cx="136.78" cy="76.48" r="0.67" transform="translate(-7.65 15.57) rotate(-6.34)"/><circle id="_Контур_224" data-name=" Контур 224" class="cls-11" cx="138.89" cy="76.13" r="0.67" transform="translate(-7.6 15.8) rotate(-6.34)"/><circle id="_Контур_225" data-name=" Контур 225" class="cls-11" cx="137.57" cy="74.89" r="0.67" transform="translate(-7.47 15.65) rotate(-6.34)"/><circle id="_Контур_226" data-name=" Контур 226" class="cls-11" cx="138.9" cy="75.26" r="0.67" transform="translate(-7.51 15.8) rotate(-6.34)"/><circle id="_Контур_227" data-name=" Контур 227" class="cls-11" cx="139.73" cy="76.02" r="0.67" transform="translate(-7.57 15.87) rotate(-6.33)"/></g><g id="_Группа_20" data-name=" Группа 20"><path id="_Контур_228" data-name=" Контур 228" class="cls-2" d="M142.89,76.17a2.33,2.33,0,0,0-.36-1.25,1.5,1.5,0,0,1-.16.69c-0.76,1.51-4,1.71-7.32.44-3.12-1.21-5.12-3.31-4.64-4.82a1.84,1.84,0,0,0-.67.73,1.55,1.55,0,0,0-.14.82h0V79.1h0c-0.1,1.56,2,3.57,5.24,4.75,3.59,1.33,7.13,1.1,7.9-.5a1.52,1.52,0,0,0,.15-0.62h0V76.16h0Z" transform="translate(-0.04 0)"/><path id="_Контур_229" data-name=" Контур 229" class="cls-12" d="M134.94,76.54c3.48,1.35,7,1.19,8-.32V76.17h0a2.33,2.33,0,0,0-.36-1.25,1.5,1.5,0,0,1-.16.69c-0.76,1.51-4,1.71-7.32.44-3.12-1.21-5.12-3.31-4.64-4.82a1.85,1.85,0,0,0-.66.71C129.92,73.5,132,75.38,134.94,76.54Z" transform="translate(-0.04 0)"/></g></g><g id="_Группа_21" data-name=" Группа 21"><g id="_Группа_22" data-name=" Группа 22"><circle id="_Контур_230" data-name=" Контур 230" class="cls-11" cx="124.68" cy="78.76" r="0.67"/><circle id="_Контур_231" data-name=" Контур 231" class="cls-11" cx="122.91" cy="78.23" r="0.67"/><circle id="_Контур_232" data-name=" Контур 232" class="cls-11" cx="122.6" cy="78.69" r="0.67"/><circle id="_Контур_233" data-name=" Контур 233" class="cls-11" cx="126.37" cy="78.45" r="0.67"/><circle id="_Контур_234" data-name=" Контур 234" class="cls-11" cx="125.7" cy="78.9" r="0.67"/><circle id="_Контур_235" data-name=" Контур 235" class="cls-11" cx="123.83" cy="78.9" r="0.67"/><circle id="_Контур_236" data-name=" Контур 236" class="cls-11" cx="124.59" cy="77.89" r="0.67"/><circle id="_Контур_237" data-name=" Контур 237" class="cls-11" cx="125.7" cy="77.89" r="0.67"/><circle id="_Контур_238" data-name=" Контур 238" class="cls-11" cx="121.88" cy="77.71" r="0.67"/><circle id="_Контур_239" data-name=" Контур 239" class="cls-11" cx="121.88" cy="78.44" r="0.67"/><circle id="_Контур_240" data-name=" Контур 240" class="cls-11" cx="121.68" cy="77.18" r="0.67"/><circle id="_Контур_241" data-name=" Контур 241" class="cls-11" cx="122.39" cy="76.44" r="0.67"/><circle id="_Контур_242" data-name=" Контур 242" class="cls-11" cx="123.58" cy="76.56" r="0.67"/><circle id="_Контур_243" data-name=" Контур 243" class="cls-11" cx="122.55" cy="77.22" r="0.67"/><circle id="_Контур_244" data-name=" Контур 244" class="cls-11" cx="124.68" cy="76.92" r="0.67"/><circle id="_Контур_245" data-name=" Контур 245" class="cls-11" cx="123.58" cy="77.78" r="0.67"/></g><g id="_Группа_23" data-name=" Группа 23"><circle id="_Контур_246" data-name=" Контур 246" class="cls-11" cx="127.3" cy="80" r="0.67" transform="translate(-8.1 14.54) rotate(-6.34)"/><circle id="_Контур_247" data-name=" Контур 247" class="cls-11" cx="125.48" cy="79.68" r="0.67" transform="translate(-8.08 14.34) rotate(-6.34)"/><circle id="_Контур_248" data-name=" Контур 248" class="cls-11" cx="128.94" cy="79.51" r="0.67" transform="translate(-8.04 14.72) rotate(-6.34)"/><circle id="_Контур_249" data-name=" Контур 249" class="cls-11" cx="128.33" cy="80.03" r="0.67" transform="translate(-8.1 14.66) rotate(-6.34)"/><circle id="_Контур_250" data-name=" Контур 250" class="cls-11" cx="126.46" cy="80.25" r="0.67" transform="translate(-8.13 14.45) rotate(-6.34)"/><circle id="_Контур_251" data-name=" Контур 251" class="cls-11" cx="127.11" cy="79.21" r="0.67" transform="translate(-8 14.5) rotate(-6.33)"/><circle id="_Контур_252" data-name=" Контур 252" class="cls-11" cx="128.21" cy="79.03" r="0.67" transform="translate(-7.99 14.64) rotate(-6.34)"/><circle id="_Контур_253" data-name=" Контур 253" class="cls-11" cx="124.39" cy="79.32" r="0.67" transform="translate(-8.03 14.2) rotate(-6.33)"/><circle id="_Контур_254" data-name=" Контур 254" class="cls-11" cx="123.89" cy="78.43" r="0.67" transform="translate(-7.95 14.16) rotate(-6.34)"/><circle id="_Контур_255" data-name=" Контур 255" class="cls-11" cx="124.77" cy="77.96" r="0.67" transform="translate(-7.89 14.25) rotate(-6.34)"/><circle id="_Контур_256" data-name=" Контур 256" class="cls-11" cx="125.98" cy="77.95" r="0.67" transform="translate(-7.88 14.39) rotate(-6.34)"/><circle id="_Контур_257" data-name=" Контур 257" class="cls-11" cx="126.1" cy="79.15" r="0.67" transform="translate(-8.01 14.41) rotate(-6.34)"/><circle id="_Контур_258" data-name=" Контур 258" class="cls-11" cx="125.01" cy="78.71" r="0.67" transform="translate(-7.97 14.28) rotate(-6.34)"/><circle id="_Контур_259" data-name=" Контур 259" class="cls-11" cx="127.09" cy="78.41" r="0.67" transform="translate(-7.91 14.49) rotate(-6.33)"/><circle id="_Контур_260" data-name=" Контур 260" class="cls-11" cx="125.8" cy="77.12" r="0.67" transform="translate(-7.79 14.36) rotate(-6.34)"/><circle id="_Контур_261" data-name=" Контур 261" class="cls-11" cx="127.13" cy="77.49" r="0.67" transform="translate(-7.82 14.51) rotate(-6.34)"/><circle id="_Контур_262" data-name=" Контур 262" class="cls-11" cx="127.96" cy="78.2" r="0.67" transform="translate(-7.9 14.61) rotate(-6.34)"/></g><g id="_Группа_24" data-name=" Группа 24"><circle id="_Контур_263" data-name=" Контур 263" class="cls-11" cx="131.02" cy="81.33" r="0.67" transform="translate(-8.22 14.96) rotate(-6.34)"/><circle id="_Контур_264" data-name=" Контур 264" class="cls-11" cx="129.21" cy="81" r="0.67" transform="translate(-8.2 14.76) rotate(-6.34)"/><circle id="_Контур_265" data-name=" Контур 265" class="cls-11" cx="132.65" cy="80.89" r="0.67" transform="translate(-8.15 15.12) rotate(-6.33)"/><circle id="_Контур_266" data-name=" Контур 266" class="cls-11" cx="132.05" cy="81.35" r="0.67" transform="translate(-8.22 15.08) rotate(-6.34)"/><circle id="_Контур_267" data-name=" Контур 267" class="cls-11" cx="130.19" cy="81.57" r="0.67" transform="translate(-8.25 14.87) rotate(-6.34)"/><circle id="_Контур_268" data-name=" Контур 268" class="cls-11" cx="130.84" cy="80.47" r="0.67" transform="translate(-8.13 14.94) rotate(-6.34)"/><circle id="_Контур_269" data-name=" Контур 269" class="cls-11" cx="131.94" cy="80.35" r="0.67" transform="translate(-8.11 15.06) rotate(-6.34)"/><circle id="_Контур_270" data-name=" Контур 270" class="cls-11" cx="128.12" cy="80.59" r="0.67" transform="translate(-8.16 14.64) rotate(-6.34)"/><circle id="_Контур_271" data-name=" Контур 271" class="cls-11" cx="127.6" cy="79.75" r="0.67" transform="translate(-8.07 14.58) rotate(-6.34)"/><circle id="_Контур_272" data-name=" Контур 272" class="cls-11" cx="128.49" cy="79.28" r="0.67" transform="translate(-8.01 14.67) rotate(-6.34)"/><circle id="_Контур_273" data-name=" Контур 273" class="cls-11" cx="129.71" cy="79.27" r="0.67" transform="translate(-8 14.81) rotate(-6.34)"/><circle id="_Контур_274" data-name=" Контур 274" class="cls-11" cx="129.82" cy="80.47" r="0.67" transform="translate(-8.14 14.83) rotate(-6.34)"/><circle id="_Контур_275" data-name=" Контур 275" class="cls-11" cx="128.71" cy="80.08" r="0.67" transform="translate(-8.09 14.68) rotate(-6.33)"/><circle id="_Контур_276" data-name=" Контур 276" class="cls-11" cx="130.83" cy="79.7" r="0.67" transform="translate(-8.04 14.93) rotate(-6.34)"/><circle id="_Контур_277" data-name=" Контур 277" class="cls-11" cx="129.52" cy="78.44" r="0.67" transform="translate(-7.91 14.78) rotate(-6.34)"/><circle id="_Контур_278" data-name=" Контур 278" class="cls-11" cx="128.73" cy="77.95" r="0.67" transform="translate(-7.86 14.69) rotate(-6.34)"/><circle id="_Контур_279" data-name=" Контур 279" class="cls-11" cx="130.85" cy="78.81" r="0.67" transform="translate(-7.95 14.93) rotate(-6.34)"/><circle id="_Контур_280" data-name=" Контур 280" class="cls-11" cx="131.68" cy="79.52" r="0.67" transform="translate(-8.02 15.03) rotate(-6.34)"/></g><g id="_Группа_25" data-name=" Группа 25"><circle id="_Контур_281" data-name=" Контур 281" class="cls-11" cx="125.82" cy="81.67" r="0.67" transform="translate(-8.29 14.39) rotate(-6.34)"/><circle id="_Контур_282" data-name=" Контур 282" class="cls-11" cx="124.01" cy="81.34" r="0.67" transform="translate(-8.27 14.19) rotate(-6.34)"/><circle id="_Контур_283" data-name=" Контур 283" class="cls-11" cx="127.47" cy="81.17" r="0.67" transform="translate(-8.23 14.57) rotate(-6.34)"/><circle id="_Контур_284" data-name=" Контур 284" class="cls-11" cx="126.84" cy="81.75" r="0.67" transform="translate(-8.28 14.48) rotate(-6.33)"/><circle id="_Контур_285" data-name=" Контур 285" class="cls-11" cx="124.98" cy="81.9" r="0.67" transform="translate(-8.32 14.3) rotate(-6.34)"/><circle id="_Контур_286" data-name=" Контур 286" class="cls-11" cx="125.64" cy="80.81" r="0.67" transform="translate(-8.2 14.37) rotate(-6.34)"/><circle id="_Контур_287" data-name=" Контур 287" class="cls-11" cx="126.73" cy="80.69" r="0.67" transform="translate(-8.18 14.49) rotate(-6.34)"/><circle id="_Контур_288" data-name=" Контур 288" class="cls-11" cx="122.93" cy="80.93" r="0.67" transform="translate(-8.23 14.07) rotate(-6.34)"/><circle id="_Контур_289" data-name=" Контур 289" class="cls-11" cx="122.4" cy="80.09" r="0.67" transform="translate(-8.14 14) rotate(-6.34)"/><circle id="_Контур_290" data-name=" Контур 290" class="cls-11" cx="123.29" cy="79.61" r="0.67" transform="translate(-8.08 14.1) rotate(-6.34)"/><circle id="_Контур_291" data-name=" Контур 291" class="cls-11" cx="124.5" cy="79.62" r="0.67" transform="translate(-8.07 14.23) rotate(-6.34)"/><circle id="_Контур_292" data-name=" Контур 292" class="cls-11" cx="124.62" cy="80.81" r="0.67" transform="translate(-8.21 14.25) rotate(-6.34)"/><circle id="_Контур_293" data-name=" Контур 293" class="cls-11" cx="123.53" cy="80.37" r="0.67" transform="translate(-8.16 14.13) rotate(-6.34)"/><circle id="_Контур_294" data-name=" Контур 294" class="cls-11" cx="125.63" cy="80.03" r="0.67" transform="translate(-8.11 14.36) rotate(-6.34)"/><circle id="_Контур_295" data-name=" Контур 295" class="cls-11" cx="124.3" cy="78.84" r="0.67" transform="translate(-7.98 14.18) rotate(-6.33)"/><circle id="_Контур_296" data-name=" Контур 296" class="cls-11" cx="125.64" cy="79.21" r="0.67" transform="translate(-8.01 14.33) rotate(-6.33)"/><circle id="_Контур_297" data-name=" Контур 297" class="cls-11" cx="126.48" cy="79.87" r="0.67" transform="translate(-8.09 14.45) rotate(-6.34)"/></g><g id="_Группа_26" data-name=" Группа 26"><circle id="_Контур_298" data-name=" Контур 298" class="cls-11" cx="129.77" cy="83.22" r="0.67" transform="translate(-8.44 14.84) rotate(-6.34)"/><circle id="_Контур_299" data-name=" Контур 299" class="cls-11" cx="127.96" cy="82.9" r="0.67" transform="translate(-8.42 14.64) rotate(-6.34)"/><circle id="_Контур_300" data-name=" Контур 300" class="cls-11" cx="131.41" cy="82.73" r="0.67" transform="translate(-8.38 15.02) rotate(-6.34)"/><circle id="_Контур_301" data-name=" Контур 301" class="cls-11" cx="130.81" cy="83.25" r="0.67" transform="translate(-8.44 14.95) rotate(-6.34)"/><circle id="_Контур_302" data-name=" Контур 302" class="cls-11" cx="128.94" cy="83.46" r="0.67" transform="translate(-8.47 14.75) rotate(-6.34)"/><circle id="_Контур_303" data-name=" Контур 303" class="cls-11" cx="129.6" cy="82.38" r="0.67" transform="translate(-8.35 14.81) rotate(-6.34)"/><circle id="_Контур_304" data-name=" Контур 304" class="cls-11" cx="130.7" cy="82.26" r="0.67" transform="translate(-8.33 14.93) rotate(-6.34)"/><circle id="_Контур_305" data-name=" Контур 305" class="cls-11" cx="125.56" cy="82.1" r="0.67" transform="translate(-8.34 14.37) rotate(-6.34)"/><circle id="_Контур_306" data-name=" Контур 306" class="cls-11" cx="126.36" cy="81.65" r="0.67" transform="translate(-8.29 14.45) rotate(-6.34)"/><circle id="_Контур_307" data-name=" Контур 307" class="cls-11" cx="127.23" cy="81.23" r="0.67" transform="translate(-8.22 14.52) rotate(-6.33)"/><circle id="_Контур_308" data-name=" Контур 308" class="cls-11" cx="128.44" cy="81.23" r="0.67" transform="translate(-8.22 14.66) rotate(-6.33)"/><circle id="_Контур_309" data-name=" Контур 309" class="cls-11" cx="128.55" cy="82.43" r="0.67" transform="translate(-8.35 14.67) rotate(-6.33)"/><circle id="_Контур_310" data-name=" Контур 310" class="cls-11" cx="127.48" cy="81.93" r="0.67" transform="translate(-8.31 14.58) rotate(-6.34)"/><circle id="_Контур_311" data-name=" Контур 311" class="cls-11" cx="129.59" cy="81.59" r="0.67" transform="translate(-8.26 14.81) rotate(-6.34)"/><circle id="_Контур_312" data-name=" Контур 312" class="cls-11" cx="128.27" cy="80.34" r="0.67" transform="translate(-8.13 14.65) rotate(-6.34)"/><circle id="_Контур_313" data-name=" Контур 313" class="cls-11" cx="129.61" cy="80.71" r="0.67" transform="translate(-8.16 14.8) rotate(-6.34)"/><circle id="_Контур_314" data-name=" Контур 314" class="cls-11" cx="130.43" cy="81.48" r="0.67" transform="translate(-8.23 14.88) rotate(-6.33)"/></g><g id="_Группа_27" data-name=" Группа 27"><path id="_Контур_315" data-name=" Контур 315" class="cls-2" d="M133.6,81.59a2.33,2.33,0,0,0-.36-1.25,1.5,1.5,0,0,1-.16.69c-0.76,1.51-4,1.71-7.32.44-3.12-1.21-5.12-3.31-4.64-4.82a1.84,1.84,0,0,0-.67.73,1.55,1.55,0,0,0-.14.82h0v6.39h0c-0.1,1.56,2,3.57,5.24,4.75,3.59,1.33,7.13,1.1,7.9-.5a1.52,1.52,0,0,0,.15-0.62h0V81.59h0Z" transform="translate(-0.04 0)"/><path id="_Контур_316" data-name=" Контур 316" class="cls-12" d="M125.64,82c3.48,1.35,7,1.19,8-.32V81.59h0a2.33,2.33,0,0,0-.36-1.25,1.5,1.5,0,0,1-.16.69c-0.76,1.51-4,1.71-7.32.44-3.12-1.21-5.12-3.31-4.64-4.82a1.85,1.85,0,0,0-.66.71C120.62,79,122.67,80.84,125.64,82Z" transform="translate(-0.04 0)"/></g></g></svg>